<svg version="1.2" xmlns="http://www.w3.org/2000/svg" viewBox="0 0 750 750" width="750" height="750">
	<style>
		.s0 { opacity: .98;fill: #3d4d5c } 
		.s1 { opacity: .97;fill: #7bafe4 } 
	</style>
	<g id="Background">
		<path id="Path 0" fill-rule="evenodd" class="s0" d="m374.6 37c2.42 0 5.41 0.52 6.65 1.17 1.24 0.64 6.08 4.58 10.75 8.76 4.67 4.18 11.42 9.84 15 12.57 3.58 2.74 11.67 8.29 18 12.35 6.33 4.06 20.05 11.57 30.5 16.69 10.45 5.12 24.62 11.54 31.5 14.26 6.87 2.73 18.12 6.79 25 9.02 6.87 2.23 21.5 6.29 32.5 9.01 11 2.71 26.52 6.13 34.5 7.59 7.97 1.46 22.15 3.54 31.5 4.63 9.35 1.08 18.35 2.28 20 2.65 1.65 0.37 4.31 1.83 5.92 3.24 1.6 1.41 3.51 4.02 4.25 5.81 1.07 2.62 1.35 21.96 1.44 100.5 0.06 53.49 0.17 116.15 0.25 139.25 0.08 23.1-0.2 46.73-0.63 52.5-0.42 5.77-1.47 14.55-2.33 19.5-0.86 4.95-3.13 14.4-5.05 21-1.91 6.6-5.51 16.95-8 23-2.48 6.05-6.61 15.05-9.16 20-2.56 4.95-9.01 15.52-14.34 23.5-5.33 7.98-14.08 19.67-19.45 26-5.37 6.33-15.2 16.93-21.83 23.56-6.64 6.64-17.02 16.29-23.07 21.45-6.05 5.16-18.88 15.27-28.5 22.47-9.63 7.21-25.38 18.29-35 24.64-9.63 6.35-25.83 16.5-36 22.56-10.17 6.06-25.25 14.74-33.5 19.31-8.25 4.56-17.48 9.56-20.5 11.12-3.23 1.66-7.15 2.85-9.5 2.88-3 0.04-7.13-1.54-16.5-6.29-6.88-3.5-21.95-11.89-33.5-18.66-11.55-6.77-27.08-16.17-34.5-20.89-7.43-4.73-18.68-12.16-25-16.53-6.33-4.36-18.03-12.9-26-18.98-7.98-6.07-17.43-13.47-21-16.45-3.58-2.97-11.45-9.97-17.5-15.55-6.05-5.58-16.99-16.44-24.31-24.14-7.33-7.7-17.02-18.95-21.54-25-4.52-6.05-11.19-15.95-14.82-22-3.63-6.05-8.06-13.92-9.85-17.5-1.78-3.58-5.18-11.23-7.54-17-2.36-5.77-5.4-14.33-6.76-19-1.35-4.67-3.41-13.11-4.57-18.75-1.16-5.64-2.44-13.51-2.84-17.5-0.4-3.99-0.74-72.76-0.77-298.4l3-3.86c1.65-2.13 4.35-4.39 6-5.04 1.65-0.65 9.75-1.91 18-2.8 8.25-0.9 23.1-2.97 33-4.61 9.9-1.65 23.62-4.36 30.5-6.05 6.87-1.68 19.47-5.13 28-7.66 8.52-2.53 21.12-6.72 28-9.31 6.87-2.59 15.87-6.19 20-7.99 4.12-1.8 13.35-6.22 20.5-9.84 7.15-3.61 17.05-9.01 22-12 4.95-2.99 12.82-8.05 17.5-11.25 4.67-3.2 12.32-9.04 17-12.97 4.67-3.93 10.68-8.9 13.35-11.06 4-3.22 5.63-3.91 9.25-3.91zm-8.95 37.95c-5.23 4.15-15.51 11.37-22.84 16.04-7.32 4.66-21.41 12.55-31.31 17.53-9.9 4.97-24.98 11.79-33.5 15.15-8.53 3.36-21.13 7.93-28 10.16-6.88 2.23-17 5.39-22.5 7.02-5.5 1.63-16.75 4.55-25 6.48-8.25 1.93-19.95 4.44-26 5.57-6.05 1.12-16.4 2.74-23 3.58-6.6 0.84-13.46 1.52-15.25 1.52h-3.25c0.03 253.67 0.29 281.16 1.42 288.5 0.76 4.95 2.37 12.83 3.58 17.5 1.21 4.67 3.75 12.77 5.65 18 1.91 5.23 6.11 14.9 9.34 21.5 3.24 6.6 8.73 16.3 12.2 21.55 3.47 5.26 10.13 14.47 14.81 20.48 4.67 6 15.47 17.94 24 26.52 8.52 8.58 20.45 19.78 26.5 24.9 6.05 5.12 12.24 10.37 13.75 11.68 1.51 1.3 8.94 7.01 16.5 12.68 7.56 5.68 18.25 13.48 23.75 17.34 5.5 3.86 12.92 8.96 16.5 11.34 3.57 2.38 12.8 8.09 20.5 12.7 7.7 4.6 14.11 8.36 14.25 8.34 0.14-0.02 3.06 1.69 6.5 3.78 3.44 2.1 11.76 6.83 18.5 10.5l12.25 6.69c18.99-10.32 33.27-18.5 44-24.84 10.72-6.35 24.67-14.9 31-19 6.33-4.11 17.12-11.52 24-16.47 6.87-4.95 17.87-13.32 24.44-18.6 6.56-5.27 14.21-11.42 17-13.66 2.78-2.24 10.87-9.44 17.98-16 7.1-6.56 17.23-16.88 22.51-22.93 5.28-6.05 12.33-14.6 15.68-19 3.34-4.4 8.68-12.05 11.86-17 3.18-4.95 8.2-13.84 11.16-19.75 2.95-5.91 6.77-14.24 8.48-18.5 1.71-4.26 4.19-11.35 5.52-15.75 1.32-4.4 3.41-12.95 4.64-19l2.23-11-0.15-282c-5.31-0.42-14.73-1.7-24.35-3.1-9.63-1.41-22.9-3.67-29.5-5.03-6.6-1.37-18.98-4.31-27.5-6.54-8.53-2.23-21.8-6.07-29.5-8.55-7.7-2.48-20.08-6.88-27.5-9.78-7.42-2.9-19.58-8.05-27-11.45-7.42-3.39-19.13-9.35-26-13.25-6.88-3.89-17-10.1-22.5-13.78-5.5-3.68-13.67-9.61-18.16-13.16l-8.16-6.46zm-45.65 98.44c7.25 0.23 14.45 1.13 19.5 2.44 4.4 1.14 10.7 3.27 14 4.73 3.3 1.47 8.36 4.19 11.25 6.05 2.88 1.87 7.34 5.3 9.9 7.64 2.56 2.34 6.39 6.39 8.5 9 3.19 3.94 3.85 5.52 3.85 9.25 0 3.55-0.48 4.82-2.25 6.03-1.88 1.27-4.57 1.42-16.25 0.86-11.19-0.53-15.71-0.32-22.5 1.04-4.84 0.96-12.07 3.39-16.75 5.63-5 2.38-10.03 5.72-12.75 8.44-2.48 2.47-4.5 5.4-4.5 6.5 0 1.1 0.87 3.69 1.95 5.75 1.07 2.06 4.48 6.67 7.58 10.25 3.09 3.57 6.49 8.19 7.54 10.25 1.06 2.06 2.09 5.44 2.3 7.5 0.2 2.06 0.83 4.65 1.4 5.75 0.56 1.1 1.96 2.9 3.11 4 1.14 1.1 1.79 2.45 1.44 3-0.36 0.55-0.24 0.65 0.26 0.22 0.51-0.43 11.94 10.17 25.42 23.54 13.47 13.38 29.91 29.48 36.53 35.78 6.62 6.3 19.44 18.03 28.5 26.06 9.06 8.04 30.89 27.39 48.52 43 17.64 15.62 39.24 34.71 48 42.43 8.77 7.72 19.67 17.17 24.22 21 4.55 3.83 9.32 8.54 10.6 10.47 1.29 1.92 3.36 5.75 4.6 8.5 1.41 3.1 2.48 7.84 2.81 12.5 0.3 4.12 0.17 8.4-0.28 9.5-0.45 1.1-0.75 2.34-0.66 2.75 0.08 0.41-0.93 3.11-2.27 6-1.33 2.89-4.41 7.5-6.85 10.25-2.67 3.01-6.97 6.3-10.82 8.29-3.63 1.86-9.44 3.79-13.4 4.45-5.13 0.85-8.61 0.88-13 0.09-3.3-0.59-8.25-2.1-11-3.36-4.04-1.84-14.21-11.5-52.54-49.87-26.14-26.18-56.52-57.05-67.5-68.6-10.98-11.55-31.42-32.7-45.43-47-14-14.3-32.68-33.35-41.5-42.33-15.74-16.03-16.12-16.33-20.53-16.52-2.92-0.13-6.09-1.18-9-2.99-2.48-1.53-7.43-4.79-11-7.24-3.58-2.45-7.63-4.74-9-5.09-1.46-0.36-3.55-0.02-5 0.82-1.38 0.79-3.02 2.54-3.66 3.89-0.9 1.92-0.85 3.17 0.25 5.71 0.77 1.79 1.41 4.82 1.41 6.75 0 1.92-0.64 4.74-1.42 6.25-0.78 1.51-7.65 8.89-15.25 16.4-10.32 10.18-14.85 13.97-17.83 14.91-3.21 1.01-4.9 1.01-8.5 0-3.89-1.08-7.41-4.12-25.83-22.4-12.05-11.95-22.22-22.9-23.37-25.16-1.32-2.59-1.89-5.24-1.62-7.5 0.27-2.17 1.98-5.41 4.5-8.5 2.24-2.75 9.08-9.84 15.2-15.75 8.57-8.29 12.03-10.98 15.12-11.75q4-1 6.5 0c1.37 0.55 3.51 1.01 4.75 1.03 1.23 0.02 3.03-0.77 3.99-1.75 1.57-1.6 1.63-2.5 0.59-8.78-0.64-3.85-0.84-8.35-0.45-10 0.52-2.13 8.76-11.02 28.42-30.64 21.78-21.74 29.62-28.91 36.7-33.54 4.95-3.24 12.6-7.4 17-9.24 4.4-1.84 11.82-4.19 16.5-5.21 6.37-1.39 11.37-1.77 20-1.48zm-27.5 21.58c-3.3 1.16-8.03 3.29-10.5 4.73-2.48 1.44-7.65 5-11.5 7.9-3.85 2.91-17.06 15.32-29.36 27.59l-22.35 22.31c1.94 10.07 2.21 14.69 1.85 16.75-0.44 2.54-2.17 5.39-5.39 8.86-2.62 2.81-6.55 6.02-8.75 7.12-2.95 1.49-5.06 1.85-8 1.4-2.2-0.34-5.35-0.87-7-1.18-2.75-0.52-3.85 0.29-13 9.51l-10 10.08c28.67 28.62 37.56 36.93 38.25 36.94 0.68 0.01 5.75-4.48 11.25-9.98 6-6 10-10.8 10-12 0-1.1-0.69-3.69-1.53-5.75-0.84-2.06-1.51-5.21-1.5-7 0.02-2.57 1.24-4.54 5.78-9.35 3.16-3.36 7.55-7.16 9.75-8.45 2.2-1.29 5.8-2.63 8-2.98 2.83-0.45 5.59-0.05 9.5 1.4 3.02 1.12 8.42 4.24 12 6.92 3.57 2.69 7.62 5.45 9 6.14 2.39 1.21 2.95 0.82 13-9.15 5.77-5.73 12.91-12.64 15.87-15.35 4.52-4.15 5.27-5.33 4.75-7.43-0.34-1.38-3.85-6.33-7.79-11-3.94-4.68-8.21-10.75-9.49-13.5-1.4-3-2.33-6.9-2.33-9.75-0.01-2.73 0.8-6.35 1.9-8.5 1.06-2.06 3.87-5.62 6.25-7.9 2.39-2.29 7.26-6.02 10.84-8.3 3.57-2.28 9.98-5.25 14.25-6.6 4.26-1.35 11.68-2.9 16.5-3.44 4.81-0.55 11.45-1.01 14.75-1.03 5.65-0.04 5.88-0.14 4-1.63-1.1-0.87-4.93-2.94-8.5-4.6-3.58-1.66-9.43-3.88-13-4.94-4.1-1.21-10.77-2.08-18-2.36-7.83-0.29-13.42 0.02-17.5 0.99-3.3 0.77-8.7 2.36-12 3.53zm6.5 118.03c68.58 71.35 88.72 92.05 89 92.04 0.27-0.02 5.67-5.16 12-11.43l11.5-11.4c-26.35-25.17-46.84-45.45-62.54-61.31l-28.53-28.83zm99.5 103.83c96 96.43 113.59 113.43 117.09 115.31 2.7 1.45 6.26 2.95 7.91 3.32 1.65 0.38 5.7 0.13 9-0.55 4.47-0.92 6.99-2.15 9.91-4.82 2.15-1.98 4.72-5.39 5.72-7.59 1.01-2.2 1.83-6.25 1.83-9 0.01-3.2-0.8-6.61-2.22-9.45-1.51-3-5.98-7.74-13.68-14.5-6.29-5.53-17.77-15.63-25.5-22.44-7.73-6.82-15.86-14.03-18.06-16.04-2.2-2-13.48-12.17-25.06-22.6-11.58-10.44-25.53-22.91-31-27.73-5.47-4.82-10.16-8.75-10.44-8.72-0.27 0.02-6.12 5.61-13 12.42zm119.5-237.69c1.93-0.06 8 0.6 13.5 1.48 5.67 0.91 12.06 2.64 14.75 3.99 2.88 1.45 5.34 3.58 6.25 5.39 0.83 1.65 1.5 3.68 1.5 4.5 0 0.83-0.62 2.74-1.38 4.25-0.76 1.52-6.72 7.64-13.25 13.6-6.53 5.97-14.46 13.28-17.62 16.25-3.16 2.97-5.75 5.97-5.74 6.65 0 0.69 0.44 3.95 0.98 7.25 0.54 3.3 1.55 7.27 2.25 8.81 1.09 2.42 2.81 3.32 23.73 10.19l18.6-18.25c17.73-17.39 18.78-18.25 22.51-18.25 3.07 0 4.65 0.71 7.26 3.25 2.69 2.61 3.62 4.64 4.75 10.25 0.78 3.85 1.4 11.73 1.38 17.5-0.01 6.27-0.72 13.53-1.75 18-0.95 4.13-3.55 11.1-5.79 15.5-2.25 4.4-5.96 10.43-8.25 13.4-2.3 2.97-7.1 7.84-10.68 10.83-3.57 2.98-10.1 7.24-14.5 9.46-4.4 2.22-11.37 4.88-15.5 5.91-4.54 1.13-11.05 1.87-16.5 1.87-4.95 0-11.81-0.67-15.25-1.48-5.87-1.4-6.42-1.37-9 0.4-1.51 1.04-10.17 9.48-19.24 18.75-9.07 9.27-19.53 19.68-23.25 23.11-4.59 4.24-7.22 6.01-8.18 5.5-0.78-0.41-3.74-3-11.76-10.75l50.68-50.31-3.5-1.72c-1.92-0.95-6.31-3.69-9.75-6.09-3.5-2.45-6.95-5.81-7.85-7.63-0.87-1.78-1.32-4.26-1-5.5 0.33-1.23 1.5-2.47 2.6-2.75 1.37-0.34 4.3 1.24 9.25 4.98 3.99 3.02 11.08 7.35 15.75 9.64 4.68 2.28 11.43 4.76 15 5.5 3.58 0.74 9.88 1.34 14 1.34 4.13 0 9.53-0.49 12-1.08 2.48-0.58 4.95-1.15 5.5-1.27 0.55-0.11 3.48-1.45 6.5-2.98 3.03-1.53 7.94-4.66 10.93-6.96 2.98-2.29 7.41-6.64 9.85-9.67 2.43-3.02 5.9-8.65 7.71-12.5 1.81-3.85 3.79-9.36 4.4-12.25 0.61-2.88 1.11-8.4 1.11-12.25 0-3.85-0.11-7.01-0.25-7.03-0.14-0.01-6.32 6.07-13.75 13.53-7.42 7.45-14.96 14.21-16.75 15.02-1.79 0.82-4.71 1.46-6.5 1.44-1.79-0.02-9.35-1.93-16.8-4.25-7.96-2.47-15.07-5.34-17.25-6.96-2.03-1.51-4.44-4.21-5.34-6-0.9-1.78-2.47-7.3-3.49-12.25-1.01-4.95-1.84-11.47-1.84-14.5 0-3.69 0.73-6.96 2.23-9.96 1.33-2.65 4.91-6.7 8.83-10 3.62-3.04 9.87-8.24 21.21-17.54l-7.9-0.3c-4.55-0.17-11.08 0.37-15.4 1.27-4.12 0.87-10.87 3.22-15 5.22-5.55 2.7-9.46 5.63-15.01 11.23-4.28 4.32-8.86 10.16-10.66 13.58-1.73 3.3-3.93 8.7-4.88 12-1.28 4.45-1.7 9.51-1.64 19.5 0.06 11.55-0.22 14.15-1.96 18-1.45 3.2-9.6 12.2-28.19 31.12-14.39 14.64-26.72 26.68-27.41 26.75-0.69 0.07-3.84-2.32-12.75-10.75l20.57-20.81c11.31-11.44 23.26-23.73 32.56-33.81l0.54-15.5c0.47-13.37 0.92-16.6 3.28-23.5 1.5-4.4 4.32-10.7 6.27-14 1.95-3.3 5.84-8.64 8.66-11.87 2.82-3.23 7.82-7.79 11.12-10.13 3.3-2.34 8.7-5.62 12-7.27 3.3-1.66 8.7-3.81 12-4.77 3.3-0.97 8.48-2.08 11.5-2.48 3.03-0.39 7.08-0.77 9-0.84zm-189.26 204.85c0.42 0 3.46 2.7 12.76 12.01l-15 14.33c-8.25 7.88-22.2 20.94-31 29.02-9.48 8.71-18.04 15.69-21 17.14-3.74 1.83-7.39 2.61-14.5 3.09-5.22 0.35-11.97 1.32-15 2.17-3.02 0.84-7.97 2.91-11 4.6-3.02 1.69-8.04 5.57-11.15 8.61-3.51 3.46-6.81 7.99-8.74 12.04-1.71 3.58-3.64 9.43-4.3 13-0.92 5.04-0.92 8.03 0 13.25 0.65 3.72 2.61 9.57 4.35 13 1.73 3.44 5.45 8.5 8.25 11.25 2.8 2.75 7.34 6.21 10.09 7.69 2.75 1.48 7.7 3.39 11 4.26 3.3 0.86 8.48 1.56 11.5 1.57 3.03 0 7.98-0.73 11-1.62 3.03-0.89 7.53-2.64 10-3.88 2.48-1.24 6.98-4.51 10-7.27q5.5-5 9.65-12.87c2.39-4.53 5.07-11.7 6.31-16.88 1.19-4.95 2.58-10.12 3.09-11.5 0.51-1.37 2.08-4.07 3.48-6 1.4-1.92 15.57-16.66 31.48-32.75 15.91-16.08 29.4-29.25 29.96-29.25 0.57 0 3.84 2.69 13.53 11.93l-30.59 30.78c-18.01 18.13-31.04 32.03-31.68 33.79-0.59 1.65-2.26 7.28-3.71 12.5-1.46 5.23-4.3 12.65-6.33 16.5-2.33 4.43-6.44 9.79-11.19 14.59-4.28 4.33-10.29 9.14-14 11.22-3.57 1.99-10.32 4.6-15 5.78-6.86 1.73-10.52 2.06-19 1.72-8.05-0.34-12.25-1.06-18-3.11-4.12-1.47-10.61-4.82-14.41-7.44-3.8-2.62-8.91-7.01-11.35-9.76-2.44-2.75-5.95-7.47-7.79-10.5-1.84-3.02-4.3-8.2-5.46-11.5-1.21-3.43-2.38-9.85-2.72-15-0.37-5.68-0.12-11.39 0.69-15.5 0.7-3.57 3.1-10.32 5.33-15 3.28-6.9 5.65-10.11 12.63-17.12 6.68-6.71 10.24-9.4 16.08-12.18 4.13-1.97 10.88-4.5 15-5.64 4.13-1.13 11.1-2.38 15.5-2.76 7.18-0.63 8.46-1.08 12.5-4.31 2.48-1.99 10.78-9.43 18.47-16.55 7.68-7.12 19.71-18.45 26.74-25.19 7.03-6.73 13.12-12.25 13.53-12.26zm-74.24 90.1c5.84-0.07 8.08 0.42 13.5 2.98 4.19 1.98 8.21 4.91 11.31 8.25 2.8 3.01 5.63 7.38 6.75 10.43 1.22 3.29 1.94 7.77 1.93 12-0.01 5.13-0.62 8.07-2.57 12.25-1.41 3.03-3.32 6.28-4.24 7.23-0.92 0.96-2.02 1.52-2.43 1.25-0.41-0.26-0.51 0.09-0.22 0.77 0.29 0.69-0.72 2.2-2.25 3.35-1.53 1.16-4.69 3.07-7.03 4.25-2.34 1.18-6.84 2.54-10 3.01-3.4 0.5-7.8 0.46-10.75-0.1-2.75-0.53-7.02-2-9.5-3.27-2.47-1.28-6.39-4.27-8.7-6.65-2.31-2.39-5.41-7.04-6.9-10.34-2.4-5.34-2.64-6.87-2.22-14 0.33-5.61 1.16-9.34 2.75-12.5 1.25-2.47 4.14-6.45 6.42-8.83 2.28-2.38 5.94-5.27 8.12-6.41 2.18-1.14 5.11-2.42 6.5-2.83 1.39-0.42 5.68-0.79 9.53-0.84zm-11.92 20.91c-1.46 1.38-3.29 4.4-4.07 6.71-0.79 2.36-1.17 5.87-0.86 8 0.3 2.09 1.18 5.03 1.95 6.54 0.77 1.52 3.31 3.87 5.65 5.23 2.98 1.74 5.74 2.48 9.25 2.48 3.51 0 6.27-0.74 9.25-2.48 2.87-1.67 4.89-3.86 6.24-6.73 1.09-2.33 1.98-5.6 1.97-7.25 0-1.65-0.81-4.8-1.79-7-0.99-2.2-3.12-4.97-4.73-6.17-1.62-1.19-4.82-2.58-7.11-3.09-2.75-0.62-5.68-0.56-8.63 0.16-2.46 0.61-5.66 2.23-7.12 3.6z"/>
		<path id="Path 1" class="s1" d="m374.57 183.25c4.36 2.88 11 8.17 14.75 11.75 3.85 3.67 7.72 8.46 8.89 11 1.53 3.35 1.9 5.52 1.41 8.5-0.36 2.2-1.55 5.46-2.64 7.25-1.09 1.79-3.89 4.35-6.23 5.7-2.65 1.52-5.94 2.48-8.75 2.53-2.48 0.05-7.65-0.34-11.5-0.87-4.5-0.62-9.5-0.62-14 0-3.85 0.53-8.12 1.24-9.5 1.57-1.37 0.34-4.98 1.85-8 3.37-3.02 1.52-7.52 4.19-10 5.94l-4.5 3.18c5.66 5.68 9.3 10.48 11.74 14.33 2.45 3.85 5.73 10.6 7.29 15 2.75 7.72 3.28 8.43 15.43 20.5 6.92 6.87 15.17 14.98 18.34 18l5.75 5.5c8.14-8.52 19.26-19.41 29.97-29.68l19.48-18.68c1.14-19.1 1.66-25.54 1.89-26.64 0.23-1.1 1.11-4.7 1.96-8 0.85-3.3 2.84-8.93 4.42-12.5 1.59-3.57 5.21-9.99 8.06-14.25 2.84-4.26 5.62-7.98 6.17-8.25 0.55-0.27 1-0.95 1-1.5 0-0.55-5.51-3.2-12.25-5.88-6.74-2.69-16.75-6.04-22.25-7.45-5.5-1.41-14.73-3.26-20.5-4.11-5.77-0.85-15.87-1.55-22.43-1.55l-11.93-0.01zm-117.54 145.5c0.01 1.59-1.78 5.51-4.24 9.25-2.34 3.58-9.66 11.84-16.27 18.36-9.45 9.31-13.52 12.58-19.02 15.27-5.4 2.64-8.26 3.42-12.5 3.42-3.03 0-7.53-0.72-10-1.6-2.48-0.87-5.74-2.46-7.25-3.52-1.51-1.06-2.98-1.93-3.25-1.93-0.28 0-0.5 2.59-0.5 5.75-0.01 3.17 0.67 10.93 1.5 17.25 0.84 6.33 2.6 16 3.93 21.5 1.32 5.5 3.73 13.83 5.35 18.5 1.63 4.68 4.36 11.54 6.09 15.25 1.72 3.72 3.35 6.75 3.63 6.75 0.27 0 3.31-1.88 6.75-4.19 3.44-2.31 9.85-5.85 14.25-7.88q8-3.7 18-5.39c5.5-0.93 11.69-2.11 13.75-2.61 2.78-0.69 7.96-4.73 20-15.6 8.94-8.07 22.21-20.22 29.5-27l13.25-12.33c-12.58-13.56-21.24-23.24-27.37-30.25-8.76-10.04-11.66-12.75-13.63-12.73-1.38 0.01-4.53-0.68-7-1.54-2.48-0.87-6.53-2.89-9-4.5-2.48-1.61-4.84-2.94-5.25-2.95-0.41-0.02-0.74 1.21-0.72 2.72zm295.97 6.77c-3.03 1.28-8.99 3.03-13.25 3.9-4.26 0.87-9.66 1.58-12 1.58-2.34 0-6.73-0.42-9.75-0.91-3.03-0.5-6.63-1.19-8-1.54-2.23-0.56-5.07 1.94-26 22.93-12.93 12.95-23.63 23.88-23.79 24.29-0.16 0.4 7.72 7.96 17.5 16.8 9.78 8.84 25.9 23.24 35.82 32 9.91 8.76 20.26 17.83 23 20.14 2.73 2.32 5.19 4.24 5.47 4.29 0.27 0.04 2.39-3.88 4.7-8.71 2.3-4.83 4.38-9.69 4.6-10.79 0.22-1.1 1.21-3.8 2.18-6 0.98-2.2 3.31-10.07 5.18-17.5 1.88-7.42 3.64-15.97 3.93-19 0.28-3.02 0.97-9.32 1.53-14 0.56-4.69 0.72-14.32 0.36-21.5-0.36-7.15-1.17-16.36-1.81-20.48-0.83-5.32-1.6-7.54-2.67-7.65-0.83-0.09-3.98 0.88-7 2.15zm-184.95 134.22c-11.72 11.97-24.63 25.14-28.68 29.26-7.17 7.31-7.43 7.75-9.87 16.75-1.37 5.09-3.9 12.29-5.6 16-1.7 3.72-2.72 7.06-2.25 7.44 0.47 0.38 4.67 1.79 9.35 3.13 4.67 1.35 11.87 3.06 16 3.82q7.49 1.37 30 1.29c19.41-0.06 23.94-0.38 33-2.32 5.77-1.24 14.77-3.62 20-5.28 5.22-1.66 11.52-4.11 14-5.45 2.47-1.34 5.06-2.42 5.75-2.41 0.69 0.02 1.25-0.3 1.25-0.72 0-0.41 0.56-0.79 1.25-0.84 0.69-0.05 3.84-1.51 7-3.25l5.75-3.16c-8.91-8.5-25.8-25.26-43.27-42.73-17.47-17.47-31.9-32.11-32.06-32.53-0.17-0.43-9.89 9.02-21.62 21z"/>
		<path id="Path 2" class="s0" d="m521.02 505.75c-1.73 1.51-3.61 4.33-4.17 6.25-0.57 1.92-0.78 4.63-0.48 6 0.31 1.38 2.15 3.96 4.09 5.75 2.81 2.58 4.41 3.26 7.79 3.28 2.94 0.03 5.15-0.66 7.18-2.25 1.61-1.25 3.52-3.74 4.25-5.53 0.98-2.41 1.06-4.28 0.32-7.25-0.6-2.39-2.21-5.01-4-6.5-2.2-1.84-4.17-2.5-7.42-2.5-3.38 0-5.15 0.64-7.56 2.75z"/>
	</g>
</svg>