<svg version="1.2" xmlns="http://www.w3.org/2000/svg" viewBox="0 0 900 900" width="900" height="900">
	<style>
		.s0 { opacity: 1;fill: #333539 } 
		.s1 { opacity: .95;fill: #c9ccce } 
		.s2 { opacity: 1;fill: #686b72 } 
		.s3 { opacity: 1;fill: #349eea } 
	</style>
	<g id="Background">
		<path id="Path 0" class="s0" d="m443.5 259.04c-9.9 0.35-19.8 0.97-22 1.38-2.2 0.41-8.5 1.66-14 2.78-5.5 1.12-13.38 3.07-17.5 4.34-4.13 1.26-10.2 3.26-13.5 4.43-3.3 1.17-11.63 4.89-18.5 8.27-6.88 3.38-16.55 8.88-21.5 12.23-4.95 3.34-11.7 8.06-15 10.48-3.3 2.42-12.08 10.51-19.51 17.98-7.53 7.57-16.67 17.99-20.66 23.57-3.94 5.5-9.07 13.15-11.41 17-2.34 3.85-6.48 11.73-9.2 17.5-2.73 5.77-6.9 16.35-9.28 23.5-2.38 7.15-5.22 17.5-6.31 23-1.08 5.5-2.52 14.73-3.19 20.5-0.79 6.86-0.99 16.57-0.57 28 0.35 9.62 0.79 18.4 0.97 19.5 0.18 1.1 0.67 4.48 1.09 7.5 0.42 3.02 1.59 9.1 2.6 13.5 1 4.4 3.26 12.5 5.01 18 1.76 5.5 3.82 11.24 4.58 12.75 0.76 1.51 2.84 3.65 4.63 4.75 3.1 1.9 5.04 1.99 41.75 2 32.66 0.01 38.84-0.21 40.75-1.49 1.24-0.83 2.71-2.75 3.28-4.26 0.71-1.89 0.71-3.77 0-6-0.57-1.79-2.04-3.81-3.28-4.5-1.63-0.9-11.93-1.39-37.24-1.75l-35-0.5c-5.11-17.05-7.58-27.18-8.79-33.5-1.87-9.73-2.2-14.89-2.18-33.5 0.03-20 0.28-23.13 2.71-34.5 1.47-6.88 4.25-17.45 6.17-23.5 1.92-6.05 6.8-17.52 10.83-25.5 4.03-7.98 10.69-19.2 14.79-24.95 4.1-5.75 11.96-15.14 17.46-20.88 5.5-5.73 13.38-13.23 17.5-16.66 4.13-3.43 11.77-9.05 17-12.49 5.23-3.43 15.35-9.07 22.5-12.52 7.15-3.45 18.18-7.85 24.5-9.78 6.32-1.92 13.52-4 16-4.61 2.48-0.62 8.55-1.76 13.5-2.54 4.95-0.78 13.95-1.72 20-2.11 6.53-0.41 16.28-0.21 24 0.49 7.15 0.65 16.6 1.86 21 2.68 4.4 0.82 12.61 2.81 18.25 4.43 5.64 1.62 15.76 5.31 22.5 8.21 6.74 2.9 16.01 7.51 20.6 10.25 4.59 2.74 13.14 8.58 19 12.98 5.85 4.4 14.69 12.05 19.65 17.01 4.95 4.95 11.98 12.83 15.62 17.5 3.65 4.67 9.09 12.31 12.11 16.99 3.01 4.67 6.84 11.2 8.5 14.5 1.67 3.3 4.61 9.82 6.53 14.5 1.93 4.67 4.65 12.1 6.04 16.5 1.4 4.4 3.45 12.5 4.57 18 1.12 5.5 2.58 16.07 3.24 23.5 0.93 10.43 0.93 16.57 0.02 27-0.65 7.42-2.07 18-3.15 23.5-1.09 5.5-3.32 14.39-4.98 19.75l-3 9.75c-71.24 0.49-72.88 0.59-74.91 2.5-1.17 1.1-2.38 3.35-2.69 5-0.31 1.65-0.08 4.12 0.5 5.5 0.59 1.37 2.2 3.06 3.58 3.75 1.89 0.94 12.33 1.24 41.77 1.22 36.64-0.03 39.45-0.16 42.25-1.91 1.65-1.03 3.54-2.93 4.2-4.22 0.65-1.29 2.55-6.39 4.21-11.34 1.65-4.95 4.13-13.73 5.5-19.5 1.37-5.78 3.24-16.13 4.15-23 1.22-9.26 1.52-16.9 1.15-29.5-0.37-12.35-1.22-20.76-3.11-30.75-1.43-7.56-4.63-19.94-7.11-27.5-2.48-7.56-7.35-19.6-10.83-26.75-3.48-7.15-8.81-16.83-11.85-21.5-3.04-4.68-8.32-12.1-11.74-16.5-3.41-4.4-9.44-11.32-13.39-15.37-3.95-4.06-10.33-10.16-14.18-13.57-3.85-3.41-9.7-8.22-13-10.68-3.3-2.47-9.38-6.64-13.5-9.27-4.13-2.64-13.35-7.63-20.5-11.09-7.15-3.47-16.38-7.51-20.5-8.99-4.13-1.47-12.68-3.95-19-5.5-6.32-1.55-17.57-3.56-25-4.47-7.43-0.91-14.4-1.76-15.5-1.9-1.1-0.15-10.1 0.03-20 0.38zm-281 107.87c-5.5 0.96-13.82 2.97-18.5 4.48-4.68 1.5-13.45 5.17-19.5 8.14-6.05 2.98-14.83 8.14-19.5 11.46-4.68 3.32-12.72 10.2-17.87 15.28-5.16 5.08-12.21 13.28-15.68 18.23-3.47 4.95-8.78 14.17-11.8 20.5-3.03 6.32-6.62 15.32-7.98 20-1.37 4.67-3.2 12.55-4.08 17.5-0.89 5.07-1.59 14.57-1.59 21.75 0 7.01 0.66 17.14 1.48 22.5 0.81 5.36 2.65 13.8 4.09 18.75 1.44 4.95 4.15 12.26 6.02 16.25 2.34 4.98 4.27 7.68 6.16 8.63 1.88 0.94 7.63 1.47 18.25 1.68 8.53 0.17 45.42 0.24 82 0.16 64.32-0.13 66.58-0.2 69-2.09 1.97-1.53 2.46-2.76 2.33-5.79-0.12-2.75-0.9-4.48-2.75-6.09l-2.58-2.25h-157c-2.16-4.26-4.02-9.55-5.52-14.5-1.5-4.95-3.35-12.83-4.1-17.5-0.76-4.67-1.37-12.78-1.37-18 0-5.23 0.65-13.78 1.44-19 0.79-5.23 2.35-12.43 3.45-16 1.11-3.58 3.41-9.88 5.11-14 1.7-4.13 5.88-11.95 9.29-17.38 3.41-5.44 9.8-13.71 14.2-18.39 4.4-4.68 11.83-11.38 16.5-14.89 4.67-3.51 12.78-8.59 18-11.29 5.22-2.69 13.55-6.26 18.5-7.91 4.95-1.66 13.05-3.77 18-4.7 6.82-1.28 12.02-1.55 21.5-1.12 6.87 0.31 16.1 1.26 20.5 2.11 4.4 0.85 12.05 2.9 17 4.57 4.95 1.66 9.79 3.02 10.75 3.01 0.96-0.01 2.37-1.02 3.12-2.26 0.76-1.24 1.89-4.05 2.51-6.25 1.04-3.66 0.94-4.15-1.12-5.81-1.24-1-6.31-3.1-11.26-4.67-4.95-1.56-14.29-3.78-20.75-4.93-8-1.42-15.66-2.06-24-2.01-6.77 0.05-16.72 0.86-22.25 1.83zm541.5-1.26c-1.38 0.21-6.77 1.11-12 2.01-5.23 0.89-13.33 2.93-18 4.52-4.67 1.59-9.51 3.55-10.75 4.35-1.63 1.06-2.25 2.44-2.25 4.97 0 2.27 0.88 4.56 2.5 6.5 1.37 1.65 3.17 3 4 3 0.83 0 6.11-1.54 11.75-3.43 5.64-1.89 14.98-4.2 20.75-5.14 7.94-1.3 13.79-1.57 24-1.14 10.17 0.42 15.85 1.21 23 3.19 5.23 1.45 12.87 3.98 17 5.64 4.12 1.65 10.42 4.6 14 6.57 3.58 1.96 9.76 5.99 13.75 8.94 3.99 2.95 10.62 8.86 14.74 13.12 4.12 4.26 9.53 10.45 12.02 13.75 2.5 3.3 7.19 11.4 10.44 18 3.25 6.6 6.83 15.15 7.95 19 1.13 3.85 2.74 11.5 3.57 17 0.84 5.5 1.52 14.05 1.52 19 0 4.95-0.68 13.27-1.52 18.5-0.83 5.22-2.46 12.42-3.62 16-1.15 3.58-3.05 8.66-4.22 11.29l-2.13 4.79-157-0.13c-3.35 3.53-4.41 5.45-4.53 6.55-0.11 1.1-0.15 2.79-0.09 3.75 0.07 0.96 1.02 2.65 2.12 3.75 1.97 1.97 3.35 2 84.25 2.03l82.25 0.03c6.1-4.11 7.55-6.52 10.75-14.56 2.2-5.5 4.8-13.15 5.78-17 0.98-3.85 2.33-10.83 3-15.5 0.66-4.67 1.19-13.9 1.17-20.5-0.02-6.6-0.75-16.28-1.6-21.5-0.86-5.23-2.42-12.43-3.47-16-1.04-3.58-3.1-9.65-4.56-13.5-1.47-3.85-4.51-10.38-6.76-14.5-2.24-4.13-6.59-11.1-9.64-15.5-3.06-4.4-9.86-12.28-15.12-17.5-5.25-5.23-13.82-12.4-19.05-15.95-5.23-3.55-14-8.59-19.5-11.19-5.5-2.61-13.38-5.85-17.5-7.19-4.13-1.35-12.79-3.4-19.25-4.56-8.1-1.46-15.4-2.07-23.5-1.97-6.46 0.07-12.88 0.3-14.25 0.51z"/>
		<path id="Path 1" class="s1" d="m644.35 468c0 4.68 0.17 6.48 0.38 4 0.21-2.48 0.21-6.3 0-8.5-0.21-2.2-0.38-0.18-0.38 4.5zm-528.85 87.75c20.9 0.15 55.32 0.15 76.5 0 21.18-0.15 4.07-0.27-38-0.27-42.08 0-59.4 0.12-38.5 0.27zm578.5 0c10.73 0.16 28.73 0.16 40 0 11.27-0.16 2.5-0.29-19.5-0.29-22 0-31.23 0.13-20.5 0.29zm81.5-0.01c2.75 0.2 7.48 0.2 10.5 0 3.02-0.2 0.77-0.37-5-0.37-5.77 0-8.25 0.17-5.5 0.37z"/>
		<path id="Path 2" class="s2" d="m442.5 258.74c3.85 0.19 9.7 0.19 13 0 3.3-0.2 0.15-0.35-7-0.35-7.15 0-9.85 0.16-6 0.35zm3 18c2.75 0.2 7.48 0.2 10.5 0 3.02-0.2 0.77-0.37-5-0.37-5.77 0-8.25 0.17-5.5 0.37zm-205.13 189.76c0.01 6.05 0.17 8.3 0.37 5 0.2-3.3 0.2-8.25 0-11-0.21-2.75-0.37-0.05-0.37 6zm422.97 2c0.01 4.4 0.18 5.98 0.39 3.5 0.21-2.48 0.21-6.07 0-8-0.22-1.93-0.39 0.1-0.39 4.5zm-617.97 36c0 5.5 0.17 7.52 0.37 4.5 0.2-3.02 0.2-7.52-0.01-10-0.2-2.48-0.37 0-0.36 5.5zm237.63 48.25c10.17 0.16 27.05 0.16 37.5 0 10.45-0.16 2.12-0.3-18.5-0.3-20.63 0-29.18 0.14-19 0.3zm284.5-0.01c3.3 0.2 8.25 0.2 11 0 2.75-0.21 0.05-0.37-6-0.37-6.05 0.01-8.3 0.17-5 0.37zm35 0.01c7.15 0.17 18.4 0.17 25 0 6.6-0.18 0.75-0.32-13-0.32-13.75 0-19.15 0.15-12 0.32zm-529.5 19.99c3.02 0.2 8.2 0.2 11.5 0 3.3-0.2 0.82-0.36-5.5-0.36-6.33 0-9.03 0.16-6 0.36zm57.5 0.01c18.15 0.15 48.07 0.15 66.5 0 18.42-0.15 3.57-0.28-33-0.28-36.58 0-51.65 0.13-33.5 0.28zm585 0c22.55 0.15 59.22 0.15 81.5 0 22.27-0.15 3.83-0.27-41-0.27-44.83 0-63.05 0.12-40.5 0.27z"/>
		<path id="Path 3" class="s0" d="m445 304c-1.82 1.82-2 3.35-2.02 16.75-0.01 10.3 0.37 15.3 1.25 16.57 0.78 1.13 2.99 2.03 5.77 2.35 3.57 0.42 5.07 0.09 7.25-1.57l2.75-2.1c0-28.63-0.06-29.06-2.5-31.5-1.83-1.83-3.57-2.5-6.5-2.5q-4 0-6 2zm-74.24 18.78c-1.51 0.94-3.29 3.07-3.95 4.72-1.11 2.78-0.8 3.75 4.13 13 2.93 5.5 6.39 11.46 7.69 13.25 2 2.74 3 3.25 6.42 3.25 2.99 0 4.68-0.65 6.5-2.5 1.35-1.38 2.45-3.63 2.45-5 0-1.38-3.04-7.96-6.75-14.64-3.71-6.67-7.54-12.52-8.5-13-0.96-0.47-2.54-0.85-3.5-0.83-0.96 0.01-2.98 0.8-4.49 1.75zm151.94-0.53c-0.97 0.69-4.68 6.65-8.25 13.25-4.96 9.15-6.38 12.65-5.98 14.75 0.29 1.51 1.77 3.67 3.28 4.78 1.51 1.12 4.1 2.02 5.75 1.99 1.65-0.03 3.53-0.38 4.17-0.79 0.64-0.4 4.13-6.02 7.75-12.48 4.03-7.2 6.58-12.91 6.58-14.75 0-2.11-0.89-3.74-3-5.5-1.65-1.38-4.25-2.5-5.78-2.5-1.52 0-3.56 0.56-4.52 1.25zm21.46 43.94c-5.37 5.12-14.95 14.04-21.29 19.81-6.33 5.77-13.05 11.86-14.94 13.53-1.89 1.67-7.7 6.82-12.93 11.44-5.23 4.62-12.21 10.91-15.52 13.97-3.32 3.06-7.37 6.69-9.02 8.06-1.65 1.38-5.88 4.98-9.41 8-6.3 5.41-6.52 5.5-12.98 5.61-4.41 0.08-8.21 0.85-11.57 2.33-2.75 1.22-6.74 3.65-8.86 5.39-2.3 1.89-5.13 5.79-7 9.65-2.64 5.45-3.13 7.6-3.08 13.5 0.05 4.73 0.72 8.49 2.06 11.52 1.1 2.48 3.77 6.45 5.94 8.83 2.17 2.39 6.42 5.54 9.44 7 4.74 2.3 6.74 2.66 14.5 2.63 7.66-0.04 9.74-0.43 14-2.62 2.75-1.42 6.54-4.33 8.41-6.46 1.88-2.13 4.32-5.9 5.44-8.38 1.6-3.57 2.03-6.71 2.09-15.18 0.06-10.08 0.21-10.84 2.67-13.5 1.43-1.55 8.6-10.02 15.94-18.82 7.34-8.8 20.84-24.55 30.02-35 9.17-10.45 21.03-23.73 26.34-29.5 5.32-5.77 9.93-11.4 10.24-12.5 0.31-1.1-0.05-3.35-0.8-5-1.16-2.56-2-3.05-5.64-3.31-4.16-0.3-4.52-0.07-14.05 9zm-231.41 10.35c-1.75 0.93-3.16 2.83-3.87 5.21-0.83 2.77-0.83 4.34 0 6 0.61 1.24 2.58 3 4.37 3.91 1.79 0.91 6.85 4.07 11.25 7.02 4.67 3.13 9.09 5.35 10.61 5.34 1.52-0.01 3.74-1.18 5.29-2.77 1.86-1.91 2.68-3.82 2.68-6.25 0.01-2.78-0.67-4.03-3.28-6.06-1.82-1.41-7.35-5.12-12.3-8.24-4.95-3.12-9.68-5.66-10.5-5.65-0.82 0.02-2.74 0.69-4.25 1.49zm260.75 6c-4.95 3.61-9.81 7.55-10.79 8.76-0.99 1.21-1.79 3.33-1.79 4.7 0.01 1.38 0.93 3.74 2.05 5.25 1.49 2.02 2.9 2.75 5.28 2.75 2.38 0 6.26-2 14.5-7.5 8.62-5.74 11.34-8.09 11.64-10.02 0.21-1.39-0.13-3.92-0.75-5.63-0.63-1.71-1.93-3.5-2.89-3.98-0.96-0.48-3.21-0.87-5-0.88-2.43-0.01-5.52 1.65-12.25 6.55zm-395 19.03c-1.32 1.26-1.63 3.53-1.57 11.5 0.06 9.14 0.25 10.05 2.32 11.44 1.24 0.83 3.15 1.52 4.25 1.53 1.1 0.01 2.78-0.78 3.72-1.76 1.39-1.43 1.73-3.68 1.75-11.53 0.02-7.36-0.34-10.12-1.47-11.25-0.82-0.82-2.82-1.5-4.43-1.5-1.61 0-3.67 0.71-4.57 1.57zm536.08-0.49c-1.72 0.91-1.91 2.1-1.78 11.22 0.11 8.35 0.46 10.51 1.92 11.92 0.98 0.95 2.79 1.74 4.03 1.75 1.24 0.02 3.15-0.87 4.25-1.97 1.77-1.77 1.97-3.14 1.75-12.04-0.19-7.63-0.61-10.26-1.75-10.98-0.83-0.52-2.63-0.94-4-0.93-1.38 0-3.36 0.47-4.42 1.03zm-584.08 14.37c-1.32 1.35-2.43 3.15-2.45 4-0.03 0.85 1.38 4.14 3.13 7.3 1.75 3.16 4 6.99 5 8.5 1.31 1.98 2.66 2.75 4.82 2.75 1.67 0 3.89-0.89 5-2 1.1-1.1 2-2.9 2-4 0-1.1-0.84-3.24-1.87-4.75-1.03-1.51-2.99-5-4.36-7.75-1.36-2.75-3.22-5.34-4.12-5.75-0.91-0.41-2.35-0.75-3.2-0.75-0.85 0-2.63 1.1-3.95 2.45zm95.87 0.3c-0.92 1.51-3.18 5.11-5.02 8-1.84 2.89-3.35 6.38-3.35 7.75 0 1.48 0.92 3.12 2.25 4.01 1.24 0.83 3.15 1.52 4.25 1.54 1.1 0.02 2.49-0.54 3.08-1.26 0.6-0.71 1.6-5.34 2.22-10.29 0.62-4.95 1.37-9.79 1.66-10.75 0.39-1.26-0.02-1.75-1.44-1.75-1.09 0-2.73 1.24-3.65 2.75zm446.03-0.09c0.29 1.56 1.22 7 2.06 12.09 1.51 9.1 1.59 9.25 4.34 9.25 1.54 0 3.35-0.56 4.02-1.25 0.67-0.69 1.21-2.49 1.2-4-0.01-1.51-1.93-5.96-4.27-9.88-2.34-3.92-5.07-7.56-6.07-8.09-1.59-0.84-1.75-0.61-1.28 1.88zm99.75 31.69c-6.96 6.79-16.92 16.37-22.15 21.29-5.23 4.93-12.2 11.43-15.5 14.46-3.3 3.03-8.02 7.18-10.5 9.23q-4.5 3.72-7.5 3.7c-1.65-0.01-4.8 0.48-7 1.08-2.49 0.69-5.6 2.75-8.25 5.49-3.21 3.33-4.53 5.68-5.38 9.65-0.87 4.03-0.84 6.52 0.13 10.75 1 4.35 2.22 6.46 5.88 10.08 3.58 3.55 5.86 4.88 10.12 5.9 4.34 1.04 6.45 1.07 10 0.14 2.48-0.65 6.25-2.63 8.39-4.4 2.15-1.77 4.82-5.02 5.95-7.22 1.51-2.95 2.06-5.99 2.1-11.59l0.06-7.6c12.4-15.08 16.9-20.69 18-22.18 1.1-1.5 7.42-9.23 14.04-17.18 6.62-7.95 14.16-17.04 16.75-20.2 2.59-3.16 4.71-6.54 4.72-7.5 0-0.96-0.67-2.76-1.5-4-0.83-1.24-2.45-2.25-3.61-2.25-1.33 0-6.7 4.5-14.75 12.35zm-677.7 4.15c-1.61 1.64-2.36 3.44-2.2 5.24 0.2 2.15 1.86 3.87 7.75 8.04 4.25 3.01 8.58 5.3 10 5.29 1.38 0 3.28-0.81 4.22-1.79 0.95-0.98 1.74-3.24 1.75-5.03 0.03-2.97-0.68-3.73-8.22-8.75-4.54-3.03-8.83-5.5-9.55-5.5-0.71 0-2.4 1.12-3.75 2.5zm191.39 0.42c-0.8 1.06-1.84 3.65-2.31 5.75-0.76 3.4-0.56 4.14 1.81 6.58 2.64 2.73 2.75 2.75 16.41 2.79 12.16 0.04 14.04-0.18 16.25-1.91 2.03-1.59 2.5-2.83 2.5-6.63 0-3.8-0.47-5.04-2.5-6.63-2.22-1.73-4.09-1.95-16.6-1.91-12.71 0.04-14.25 0.23-15.56 1.96zm302.36-1.03c-1.27 0.38-2.95 1.8-3.74 3.15-0.79 1.35-1.44 3.7-1.45 5.21 0 1.61 1.02 3.78 2.49 5.25 2.42 2.42 2.93 2.5 15.75 2.47q13.25-0.03 14.84-1.25c0.87-0.67 2.11-2.23 2.75-3.47 0.64-1.24 1.16-3.38 1.16-4.75 0-1.38-1.12-3.63-2.5-5-2.41-2.41-2.95-2.5-14.75-2.4-6.74 0.05-13.29 0.41-14.55 0.79zm-377.28 19.9c-8.02 7.54-17.28 16.19-20.58 19.21-5.62 5.16-6.37 5.53-12.07 6-4.61 0.38-7.1 1.22-10.34 3.5-2.35 1.65-5.36 5.02-6.68 7.5-2.02 3.79-2.35 5.63-2.08 11.66 0.28 6.03 0.81 7.85 3.34 11.5 1.8 2.6 4.81 5.24 7.5 6.57 2.47 1.23 6.62 2.58 9.22 3 2.6 0.43 4.73 0.54 4.74 0.27 0.01-0.27 1.93-1.01 4.27-1.64 3.07-0.82 5.46-2.5 8.54-6 3.01-3.42 4.59-6.34 5.36-9.86 0.76-3.52 0.77-6.18 0.03-9-1.01-3.87-0.9-4.19 3.58-10 2.54-3.3 7.54-9.6 11.1-14 3.56-4.4 6.96-8.63 7.56-9.41 0.63-0.82 1.09-5.95 1.09-12.24 0-5.96 0-10.83 0-10.81 0 0.02-6.56 6.2-14.58 13.75zm-132.92 30.21c-1.1 1.1-2 3.12-2 4.5 0 1.37 0.9 3.4 2 4.5 1.72 1.72 3.33 2 11.5 2 8.17 0 9.78-0.28 11.5-2 1.1-1.1 2.02-2.79 2.03-3.75 0.02-0.96-0.88-2.99-2-4.5-1.97-2.66-2.33-2.75-11.53-2.75-8.17 0-9.78 0.28-11.5 2z"/>
		<path id="Path 4" class="s3" d="m579.44 373.96c-3.17 3.81-5.68 7.18-5.6 7.49 0.09 0.3 2.07-0.81 4.41-2.47 2.93-2.07 5.42-3.01 8-3 2.4 0.01 4.47 0.74 5.75 2.02 1.1 1.1 2.28 3.24 2.61 4.75 0.34 1.51 0.19 3.65-0.33 4.75-0.52 1.1-5.86 5.26-11.87 9.24-7.36 4.89-11.89 7.25-13.91 7.27-1.65 0.01-3.64-0.55-4.43-1.24-0.79-0.7 0.26 0.75 2.33 3.23 2.07 2.48 5.69 8.55 8.06 13.5 2.36 4.95 5.44 12.6 6.83 17 1.39 4.4 2.79 9.69 3.12 11.75 0.5 3.17 0.86 3.61 2.34 2.86 0.96-0.5 7.71-0.95 15-1 12.87-0.11 13.32-0.04 15.75 2.39 1.71 1.71 2.5 3.6 2.5 6 0 2.37-0.79 4.31-2.45 6-2.39 2.43-2.84 2.5-16.5 2.5h-14.05c0.15 16.78-0.53 25.67-1.47 31-1.51 8.64-1.52 9.7-0.1 11.75 1.51 2.16 2.15 2.25 16.57 2.25h15c2.32-4.65 3.95-11.51 5.11-18.25 1.79-10.38 2.03-14.85 1.59-29.25-0.37-11.9-1.17-20-2.67-27-1.18-5.5-3.64-14.5-5.47-20-1.83-5.5-5.32-14.05-7.76-19-2.44-4.95-6.01-11.48-7.95-14.5-1.93-3.02-5.45-7.75-7.82-10.5-2.37-2.75-4.88-5.33-5.58-5.74-0.83-0.49-3.22 1.62-7.01 6.2zm182.26 41.46c-1.21 1.33-3.78 5.34-5.7 8.91-3.13 5.8-3.37 6.77-2.25 9.08 0.69 1.42 2.49 3.05 4 3.61 2.05 0.76 3.26 0.67 4.75-0.34 1.1-0.75 3.93-4.7 6.28-8.77 2.35-4.08 4.27-8.2 4.25-9.16-0.02-0.96-1.27-2.67-2.78-3.78-1.51-1.12-3.56-2.02-4.55-2-0.98 0.01-2.78 1.12-4 2.45zm38.62 36.76c-2.79 2.37-6.46 5.45-8.17 6.82-1.71 1.38-3.34 3.74-3.63 5.25-0.39 2.09 0.14 3.41 2.21 5.5 1.51 1.51 3.79 5 5.08 7.75 1.29 2.75 3.41 8.83 4.7 13.5 1.87 6.74 2.14 9.12 1.32 11.5-0.72 2.11-0.7 3.74 0.09 5.5 0.61 1.38 1.93 3.85 2.92 5.5 1.69 2.8 2.26 3.02 8.49 3.25 3.67 0.14 7.57-0.2 8.67-0.75 1.1-0.55 2.71-2.69 3.58-4.75 1.19-2.8 1.42-5.39 0.94-10.25-0.36-3.57-0.85-8.07-1.09-10-0.24-1.92-1.11-6.2-1.94-9.5-0.83-3.3-3.94-10.95-6.91-17-2.97-6.05-6.7-12.27-8.29-13.82l-2.9-2.83z"/>
		<path id="Path 5" fill-rule="evenodd" class="s1" d="m460.74 311.5c0.2 2.75 0.2 6.8-0.01 9-0.21 2.2-0.38-0.05-0.38-5 0.01-4.95 0.18-6.75 0.39-4zm-271.32 91l0.31 10c0.28 9.28 0.14 10.14-4.16 14l1.69-2c1.3-1.54 1.74-4.32 1.92-12zm-12.68 5.5c0.21 2.48 0.21 6.75 0 9.5-0.21 2.75-0.37 0.73-0.37-4.5 0-5.23 0.16-7.48 0.37-5zm549-0.5c0.21 2.2 0.21 6.02 0 8.5-0.21 2.48-0.39 0.68-0.39-4 0-4.68 0.18-6.7 0.39-4.5zm-424.23 41.89c7.7 0.01 10.62 0.16 6.5 0.35-4.13 0.19-10.43 0.19-14 0-3.58-0.19-0.2-0.35 7.5-0.35zm323.23 11.11c0.2 2.75 0.2 7.7 0 11-0.19 3.3-0.36 1.05-0.36-5 0-6.05 0.16-8.75 0.36-6zm-322.23 6.89c7.7 0.01 10.62 0.16 6.5 0.35-4.13 0.19-10.43 0.19-14 0-3.58-0.19-0.2-0.35 7.5-0.35zm-215 30.95c4.4 0 6.42 0.17 4.5 0.39-1.93 0.21-5.53 0.21-8 0-2.48-0.21-0.9-0.38 3.5-0.39zm532.45 9.13c0.3 0.26-0.24 1.62-1.2 3-1.74 2.51-1.88 2.53-16.5 2.57-13.02 0.04-14.93-0.16-16.21-1.75-1.27-1.56-1.27-1.63 0-0.52 1.04 0.9 5.71 1.26 16.21 1.25 14.74-0.02 14.75-0.02 15.95-2.52 0.66-1.38 1.44-2.29 1.75-2.03zm206.63 1.53c0.23 0 0.42 0.68 0.42 1.5 0 0.82-1.32 2.85-2.93 4.5-2.67 2.75-3.5 3-9.75 3.03-5.31 0.03-7.18-0.36-8.42-1.75-0.88-0.98-1.93-2.68-2.32-3.78-0.4-1.1-0.36-1.61 0.09-1.14 0.46 0.48 1.29 1.83 1.85 3 0.88 1.84 2 2.18 8 2.4 4.92 0.18 7.64-0.18 9.23-1.25 1.23-0.83 2.51-2.63 2.83-4.01 0.33-1.38 0.78-2.5 1-2.5z"/>
		<path id="Path 6" class="s2" d="m442.4 321c0 7.98 0.15 11.35 0.34 7.5 0.19-3.85 0.19-10.38 0-14.5-0.19-4.13-0.34-0.98-0.34 7zm269.97 91.5c0 5.5 0.17 7.52 0.37 4.5 0.2-3.02 0.2-7.52-0.01-10-0.2-2.48-0.37 0-0.36 5.5zm56.61 37.25l-10.48 10.75c16.67-16.27 21.51-21.11 21.51-21.25-0.01-0.14-0.13-0.25-0.28-0.25-0.15 0-4.98 4.84-10.75 10.75zm-550.53 13.51l-5.95 6.24 12.52-12 0.37 14c0.5-10.07 0.28-13.33-0.17-13.74-0.45-0.41-3.5 2.07-6.77 5.5z"/>
		<path id="Path 7" class="s1" d="m441.99 464.52c-1.37 0.8-3.5 2.92-4.71 4.71-1.35 1.99-2.23 4.84-2.25 7.27-0.02 2.2 0.75 5.51 1.72 7.36 0.96 1.85 3.32 4.21 5.25 5.25 1.93 1.04 5.07 1.89 7 1.89 1.93 0 4.96-0.91 6.75-2 1.79-1.1 3.87-3.24 4.63-4.75 0.76-1.51 1.67-4.1 2.02-5.75 0.46-2.12-0.02-4.32-1.63-7.5-1.5-2.98-3.45-5.08-5.77-6.2-1.93-0.94-5.07-1.71-7-1.71-1.93-0.01-4.63 0.64-6.01 1.43zm-266.45 46.76c-1.8 1.58-2.65 3.43-2.81 6.09-0.19 3.07 0.31 4.28 2.52 6.22 1.62 1.42 4 2.41 5.8 2.41 1.92 0 3.94-0.92 5.5-2.5 1.5-1.53 2.45-3.66 2.45-5.5 0-1.65-0.34-3.74-0.75-4.64-0.41-0.9-1.99-2.25-3.5-3-1.51-0.75-3.62-1.36-4.69-1.36-1.07 0-3.1 1.03-4.52 2.28zm535.96 0.17q-2.41 2.46-2.45 6c-0.04 2.49 0.69 4.29 2.45 6.05 1.57 1.57 3.63 2.5 5.55 2.5 1.92 0 3.94-0.92 5.5-2.5 1.66-1.69 2.45-3.63 2.45-6 0-2.4-0.79-4.29-2.5-6-1.57-1.57-3.63-2.5-5.55-2.5-1.91 0-3.94 0.91-5.45 2.45z"/>
	</g>
</svg>