<svg version="1.2" xmlns="http://www.w3.org/2000/svg" viewBox="0 0 1050 1050" width="1050" height="1050">
	<style>
		.s0 { opacity: .99;fill: #3f4751 } 
		.s1 { opacity: .99;fill: #5da5ed } 
		.s2 { opacity: .9;fill: #e0ebef } 
		.s3 { opacity: .98;fill: #808693 } 
		.s4 { opacity: .94;fill: #b4bbb9 } 
		.s5 { opacity: .35;fill: #e7eaed } 
		.s6 { opacity: .42;fill: #a2a292 } 
	</style>
	<g id="Layer 1">
		<path id="Path 0" fill-rule="evenodd" class="s0" d="m461.5 140.5l3.26 2.5c1.79 1.38 4.25 4.53 7.68 11.5l-0.32 112.5c-0.18 61.88-0.39 113.06-0.47 113.75-0.08 0.69-0.49 1.25-0.9 1.25-0.41 0-0.76 0.56-0.77 1.25 0 0.69-1.24 2.97-2.75 5.07-1.5 2.1-4.75 4.8-11.73 8.18l-98-0.01c-53.9-0.01-98.9-0.29-100-0.62-1.1-0.33-3.01-1.11-4.25-1.74-1.24-0.62-3.36-2.14-4.72-3.38-1.36-1.24-2.15-2.7-1.75-3.24 0.43-0.59 0.21-0.69-0.53-0.25-0.79 0.47-1.71-0.17-2.5-1.72-0.69-1.35-1.47-2.3-1.75-2.1-0.28 0.2-0.66-0.6-0.86-1.79-0.19-1.18-0.55-51.88-0.8-112.65-0.41-104.27-0.34-110.83 1.36-116.33 1.1-3.57 2.97-6.93 4.8-8.66 1.65-1.55 3.9-3.04 5-3.31 1.1-0.26 48.8-0.42 210-0.2zm-186.85 26.5c-0.74 0-2.51 1.24-3.94 2.75-1.43 1.51-3.06 4.78-3.63 7.25-0.64 2.79-1.04 25.18-1.07 59-0.02 33.76 0.37 56.59 1.01 60 0.57 3.02 1.7 5.84 2.51 6.25 0.81 0.41 1.47 1.43 1.47 2.25 0 0.82 1.91 2.51 4.25 3.75l4.25 2.25c115.48 0.46 150.8 0.36 153 0.06 2.73-0.37 5.32-1.73 8.18-4.3 3.12-2.8 4.39-4.85 5-8.03 0.45-2.35 1.16-4.26 1.57-4.25 0.41 0.01 0.75-25.85 0.75-57.48 0-37.33-0.35-57.68-1-58-0.55-0.28-1-1.29-0.99-2.25 0.01-0.96-0.56-2.99-1.25-4.51-0.72-1.58-2.66-3.3-4.52-4-1.8-0.68-3.26-1.58-3.25-1.99 0-0.41-36.22-0.75-80.49-0.75-53 0-80.5 0.34-80.5 1 0 0.55-0.61 1-1.35 1zm71.85 176.5c-1.38 1.38-2.95 3.4-3.5 4.5-0.55 1.1-1 4.48-1 7.5 0 4.67 0.45 6.03 3 9 1.65 1.93 3.9 3.5 5 3.5 1.1 0 2 0.45 2 1 0 0.55 1.91 0.99 4.25 0.99 2.34-0.01 6.16-0.91 8.5-2 2.34-1.1 4.25-2.67 4.25-3.49 0-0.82 0.79-1.92 1.75-2.43 1.37-0.73 1.75-2.24 1.75-7.04 0-3.35-0.48-6.42-1.07-6.82-0.59-0.39-1.38-1.5-1.75-2.46-0.38-0.96-1.58-1.98-2.68-2.25-1.1-0.27-1.99-0.84-1.98-1.25 0.02-0.41-1.67-1.31-3.75-1.98-2.07-0.68-4-1.2-4.27-1.15-0.27 0.04-2.19 0.49-4.25 0.98-2.06 0.5-4.88 2.03-6.25 3.4zm-249.2-193.84c1.21 0.2 3.44 1.48 7.7 5.34l-0.02 35.25c-0.01 27.06 0.28 35.57 1.25 36.65 1.05 1.15 1 1.24-0.23 0.55-1.21-0.67-1.27-0.55-0.34 0.61 0.96 1.19 4.94 1.4 44.34 0.94v-35c0-21 0.4-36 1-37.5 0.55-1.37 2.24-3.27 3.75-4.2 1.51-0.94 4.43-1.72 6.49-1.75 2.06-0.03 3.75 0.29 3.75 0.7 0.01 0.41 0.91 0.98 2.01 1.25 1.16 0.29 2.43 1.86 3.02 3.75 0.6 1.94 1.01 17.2 0.98 72.75l9.75-0.02c6.2-0.02 11.02 0.49 13.25 1.4 1.92 0.79 4.23 2.26 5.12 3.27 0.88 1.02 1.9 3.09 2.25 4.6 0.34 1.51 0.29 4.4-0.12 6.42-0.47 2.32-1.86 4.53-3.75 6-1.65 1.28-5.25 2.67-13 3.85l-2.18 17.49c-1.2 9.62-2.4 19.51-2.68 21.99-0.27 2.48-1 8.32-1.61 13-0.61 4.68-1.36 9.4-1.66 10.5-0.31 1.1-1.53 4.02-2.71 6.48-1.19 2.46-4.41 6.64-7.16 9.29-2.75 2.64-5.53 4.79-6.18 4.77-0.65-0.02-1.77 0.55-2.5 1.27-0.73 0.72-3.57 1.94-6.32 2.73-3.26 0.92-10.04 1.42-19.5 1.44-7.98 0.01-16.3-0.3-18.5-0.68-2.2-0.39-5.13-1.04-6.5-1.44-1.38-0.39-3.06-1.32-3.75-2.04-0.69-0.73-1.81-1.31-2.5-1.29-0.69 0.02-2.38-0.89-3.75-2.01-1.38-1.13-3.57-3.06-4.89-4.29-1.31-1.22-3.61-4.03-5.12-6.23-1.51-2.2-3.47-6.81-4.37-10.25-0.89-3.44-1.62-7.37-1.62-8.75 0-1.37-0.34-2.5-0.75-2.51-0.41-0.01-0.87-3.72-1.01-8.25-0.14-4.53-0.75-10.94-1.36-14.24-0.61-3.3-1.61-10.73-3.38-27l-6.17-0.5c-5.51-0.45-6.51-0.88-9.28-4-1.7-1.93-3.15-4.62-3.23-6-0.07-1.37-0.01-3.62 0.13-5 0.14-1.37 1-3.53 1.9-4.8 0.91-1.26 3.34-2.95 5.4-3.75 2.23-0.86 7.2-1.45 20.75-1.45l0.03-36.25c0.04-35.46 0.08-36.3 2.16-38.75 1.16-1.37 3.65-2.99 5.52-3.6 1.87-0.6 4.39-0.93 5.59-0.74zm8.7 110.84c44.59-0.56 45.5-0.65 45.54-2.53 0.03-1.9-0.76-1.97-22.75-1.97h-22.79zm3.09 96.5h43.62l-0.1 22.67c-0.08 17.22-0.41 22.75-1.36 23-0.69 0.18-1.04 0.67-0.79 1.08 0.25 0.41-1.32 1.76-7.46 5.25l0.1 57.25c0.05 31.49 0.5 58.94 1 61 0.62 2.59 1.29 3.52 2.14 3q1.24-0.74 0.5 0.5c-0.43 0.73 0.2 2.26 1.51 3.67 1.24 1.33 4.28 3.46 6.75 4.75 3.85 1.99 5.97 2.33 14.67 2.33 9.68 0 10.37-0.14 14.5-3.02 2.38-1.66 5.22-4.81 6.31-7 1.71-3.45 2.06-6.92 2.63-25.98 0.37-12.52 1.18-23.72 1.88-26 0.67-2.2 1.74-4.58 2.37-5.29 0.63-0.72 0.8-1.28 0.39-1.25-0.41 0.02-0.19-0.7 0.5-1.61 0.69-0.9 3.73-4.22 6.75-7.38 3.03-3.16 7.75-6.85 10.5-8.21 2.75-1.35 7.93-3.04 11.5-3.75 3.58-0.7 9.54-1.56 13.25-1.9 3.71-0.33 6.75-0.27 6.75 0.14 0 0.41 0.79 0.52 1.75 0.25 0.96-0.28 2.2-0.11 2.75 0.37 0.55 0.48 2.8 1.19 5 1.59 2.2 0.4 6.25 1.76 9 3.04 2.75 1.27 7.81 5.05 11.25 8.41 3.44 3.35 6.03 6.54 5.75 7.09-0.27 0.55 0.01 0.89 0.64 0.75 0.62-0.14 1.53 1.1 2.02 2.75 0.49 1.65 1.44 3.63 2.11 4.4 0.9 1.02 1.37 10.61 1.76 35.5 0.49 31.88 0.66 34.39 2.62 38.6 1.15 2.48 3.38 5.8 4.97 7.39 1.58 1.6 5.13 3.94 7.88 5.22 2.75 1.28 7.25 2.61 10 2.96 3.95 0.5 6.58 0.09 12.5-1.96 4.13-1.42 7.61-3.04 7.75-3.6 0.14-0.55 0.81-1 1.5-0.99 0.69 0.01 2.45-1.22 3.91-2.75 1.46-1.52 3.48-4.57 4.48-6.77 1.66-3.65 1.85-7.93 2.37-93l-5.43-5c-2.99-2.75-6.54-7.02-7.9-9.5-2.3-4.2-2.47-5.53-2.68-35h25.5c14.03 0 25.84-0.11 26.25-0.25 0.41-0.14 0.9 3.8 1.08 8.75 0.18 4.95-0.24 12.15-0.94 16-0.7 3.85-1.32 7.23-1.37 7.5-0.05 0.27-0.85 2.07-1.77 4-0.92 1.93-3.26 4.96-5.21 6.75-1.95 1.79-3.8 2.91-4.11 2.5-0.31-0.41-0.31 0.04 0 1 0.37 1.14 0.05 1.75-0.93 1.75-1.31 0-1.5 5.83-1.5 46.5 0 29-0.37 47.25-1 48.5-0.55 1.1-0.9 2.56-0.79 3.25 0.12 0.69-0.33 2.26-1 3.5-0.66 1.24-0.98 2.7-0.71 3.25 0.28 0.55 0.05 1-0.5 1-0.55 0-1.75 1.46-2.67 3.25-0.92 1.79-3.96 5.43-6.75 8.1-2.79 2.66-6.32 5.48-7.83 6.25-1.51 0.77-3.2 1.17-3.75 0.9-0.55-0.27-1 0.17-1 1 0 0.95-1.56 1.85-4.25 2.46-2.34 0.53-5.37 0.66-6.75 0.29-1.82-0.49-2.29-0.34-1.75 0.54 0.41 0.67 0.41 1.27 0 1.34-0.41 0.06-4.35 0.25-8.75 0.4-5.12 0.19-11.24-0.4-17-1.63-4.95-1.06-9.11-2.37-9.25-2.91-0.14-0.54-0.81-1-1.5-1.01-0.69-0.01-3.27-1.37-5.75-3.02-2.47-1.65-6.07-4.75-8-6.89-1.92-2.13-4.49-5.84-5.71-8.23-1.21-2.39-2.33-5.46-2.5-6.84-0.16-1.37-0.74-2.82-1.29-3.21-0.61-0.44-1.19-13.71-2-68.29l-2.5-4.27c-1.79-3.07-4.05-5.08-8-7.13-3.02-1.56-6.74-3.13-8.25-3.47-1.58-0.36-2.75-0.21-2.75 0.37 0 0.55-0.45 1-1 1-0.55 0-0.77-0.45-0.5-1 0.31-0.61-1.83-1-5.5-1-3.66 0-7.94 0.78-11 2-2.75 1.1-6.18 3.01-7.62 4.25-1.44 1.24-3.47 4.16-4.5 6.5-1.58 3.57-1.81 6.06-1.47 15.5 0.23 6.19-0.02 16.88-0.54 23.75-0.79 10.15-1.44 13.44-3.5 17.5-1.39 2.75-3.74 6.35-5.22 8-1.48 1.65-4.49 4.4-6.67 6.11-2.19 1.7-7.13 4.16-10.98 5.46-5.91 1.99-8.86 2.34-19 2.26-10.4-0.09-12.9-0.45-18.75-2.72-3.71-1.43-7.47-3.17-8.34-3.86-0.88-0.69-2.68-2.26-4-3.5-1.33-1.24-2.52-2.01-2.66-1.73-0.14 0.29-1.84-1.39-3.78-3.75-1.95-2.35-4.38-5.62-5.41-7.27-1.02-1.65-2.44-6.37-3.14-10.5-0.93-5.43-1.32-22.99-1.4-63.5-0.09-42.06-0.42-56.32-1.32-57.29-0.66-0.72-1.65-1.27-2.2-1.23-0.55 0.04-1.97-0.95-3.15-2.2-1.18-1.26-2.82-4.98-3.65-8.28-1.02-4.07-1.51-11.38-1.55-22.75zm360.91 126l-3.11 7.25c-1.71 3.99-4.1 9.5-5.32 12.25-1.22 2.75-3.54 8.05-5.15 11.78-1.61 3.73-3.26 6.77-3.67 6.75-0.41-0.02-0.53 0.42-0.25 0.97 0.27 0.55-0.39 2.91-1.48 5.25-1.08 2.34-3.55 8.08-5.49 12.75-1.93 4.67-3.85 8.43-4.27 8.33-0.42-0.09-0.81 0.81-0.88 2-0.06 1.2-1.24 4.65-2.62 7.67-1.38 3.02-3.58 8.2-4.89 11.5-1.3 3.3-2.71 6.11-3.12 6.25-0.41 0.14-0.53 0.92-0.25 1.75 0.27 0.83 0.16 1.49-0.25 1.47-0.41-0.02-1.43 2.02-2.25 4.53-0.83 2.51-1.84 4.55-2.25 4.53-0.41-0.02-0.76 0.53-0.78 1.22-0.01 0.69-2.08 5.98-4.58 11.75-2.51 5.77-5.39 12.3-6.42 14.5-1.02 2.2-2.11 5.24-2.41 6.75-0.31 1.51-1.01 2.75-1.56 2.75-0.55 0-1 0.79-0.99 1.75 0 0.96-0.62 2.65-1.39 3.75-0.76 1.1-2 3.92-2.75 6.27-0.76 2.35-1.71 4.27-2.12 4.25-0.41-0.01-0.53 0.65-0.25 1.48 0.27 0.83 0.05 1.5-0.5 1.5-0.55 0-1 0.45-1 1 0 0.55-1.16 3.59-2.57 6.75-1.41 3.16-3.16 6.88-3.88 8.25-0.73 1.38-1.6 3.96-1.94 5.75-0.33 1.79-1.06 3.25-1.61 3.25-0.55 0-1.27 1.24-1.59 2.75-0.32 1.51-1.96 5.67-3.64 9.25-1.68 3.58-4.6 10.33-6.48 15-1.89 4.67-3.73 8.85-4.11 9.28-0.37 0.42-4.18 0.87-16.22 1.22l0.52-2.5c0.29-1.37 1.43-4.3 2.53-6.5 1.1-2.2 2-4.56 2-5.25-0.01-0.69 0.55-1.48 1.24-1.76 0.69-0.28 1.36-1.29 1.49-2.25 0.14-0.96 0.36-2.64 0.5-3.74 0.14-1.1 0.71-2.28 1.26-2.63 0.55-0.35 1.67-2.72 2.5-5.28 0.82-2.56 1.84-4.64 2.25-4.62 0.41 0.02 1.01-1.21 1.32-2.72 0.31-1.51 1.39-4.55 2.4-6.75 1.01-2.2 3.95-8.95 6.53-15 2.59-6.05 5.56-12.91 6.6-15.25 1.04-2.34 1.67-4.7 1.4-5.25-0.28-0.55 0.06-1.17 0.75-1.37 0.69-0.21 1.85-2.12 2.6-4.25 0.74-2.13 2.23-5.9 3.32-8.38 1.09-2.48 2.58-5.62 3.32-7 0.73-1.37 1.37-2.84 1.42-3.25 0.05-0.41 1.24-3.34 2.64-6.5 1.41-3.16 2.31-6.31 2-7-0.3-0.69-0.21-1.05 0.2-0.8 0.41 0.25 2.27-3.01 4.14-7.25 1.86-4.23 4.03-9.05 4.81-10.7 0.78-1.65 2.57-5.92 3.99-9.5 1.41-3.58 3.58-8.75 4.81-11.5 1.24-2.75 2.6-5.9 3.03-7 0.43-1.1 0.72-2.34 0.63-2.75-0.09-0.41 0.29-0.75 0.84-0.75 0.55 0 1.22-1.12 1.5-2.5 0.27-1.37 2.24-6.21 4.37-10.75 2.12-4.54 4.6-9.94 5.5-12 0.89-2.06 1.64-4.09 1.66-4.5 0.02-0.41 0.91-2.55 1.97-4.75 1.06-2.2 1.96-4.45 2-5 0.03-0.55 1.17-3.25 2.52-6 1.35-2.75 2.46-5.56 2.47-6.25 0-0.69 0.46-1.25 1.01-1.25 0.55 0 1-0.67 1-1.5 0-1.22 1.61-1.5 17-1.5zm261 110.44c8.68 0.19 15.4 0.97 22 2.54 5.22 1.24 11.75 3.15 14.5 4.23 2.75 1.09 5.79 3.06 6.75 4.38 1 1.37 2.07 5.4 2.5 9.36 0.56 5.18 1.26 7.34 2.75 8.49 1.1 0.84 4.02 2.2 6.5 3.01 2.47 0.81 6.97 2.32 10 3.35 3.02 1.04 6.28 2.29 7.23 2.79 1.34 0.7 0.29 1.21-4.5 2.18-3.43 0.7-10.06 1.66-14.73 2.12-4.79 0.47-14.82 0.44-23-0.07-7.98-0.5-15.63-0.76-17-0.58-2.05 0.28-1.6 0.64 2.5 2.01 2.75 0.91 8.04 2.81 11.75 4.21 3.71 1.4 7.09 2.59 7.5 2.66 0.41 0.07 1.65 0.47 2.75 0.89 1.1 0.43 3.57 1.07 5.5 1.44 1.96 0.36 6.35 0.02 10-0.79 3.57-0.79 9.42-2.17 13-3.07 3.57-0.9 8.97-2.28 12-3.06 3.02-0.79 9.1-2.24 13.5-3.23 4.4-0.99 11.37-1.79 15.5-1.78 4.12 0.02 8.4 0.29 9.5 0.6 1.1 0.32 3.24 1.09 4.75 1.73 1.51 0.63 3.31 1.16 4 1.18 0.69 0.02 2.77 1.03 4.63 2.25 1.86 1.22 4.22 3.68 7.12 8.72l3.25-1.75c2.4-1.29 5.48-1.73 11.75-1.69 6.43 0.04 10.45 0.71 16.5 2.72 5.39 1.8 9.47 3.94 17 10.49l0.68 20.73-6.59 1.75c-3.63 0.96-7.49 1.75-8.59 1.75-1.1 0-2 0.45-2 1 0 0.55-0.45 0.77-1 0.5-0.55-0.27-5.16 0.45-10.25 1.61-5.09 1.16-9.93 2.35-10.75 2.65-0.83 0.3-1.95 0.64-2.5 0.77-0.55 0.12-3.7 0.76-7 1.41-3.3 0.65-8.03 1.8-10.5 2.55-2.48 0.75-6.75 1.86-9.5 2.46-2.75 0.6-5.9 1.32-7 1.6-1.1 0.29-4.48 0.98-7.5 1.54-3.03 0.56-7.53 1.63-10 2.38-2.48 0.75-6.3 1.67-8.5 2.04-2.2 0.37-4.45 1.01-5 1.42-0.55 0.41-4.38 1.33-8.5 2.03-4.13 0.7-7.95 1.6-8.5 2-0.55 0.4-4.38 1.3-8.5 2-4.13 0.7-8.29 1.67-9.25 2.16-1.38 0.69-2.49-0.02-5.21-3.37-1.91-2.34-3.18-4.59-2.84-5 0.35-0.41 0.22-0.73-0.28-0.72-0.51 0.02-2.27-1.22-6.92-5.56l9.5-2.31c5.22-1.27 12.65-3.14 16.5-4.16 3.85-1.02 10.82-2.77 15.5-3.89 4.67-1.13 13.45-3.19 19.5-4.59 6.05-1.39 13.25-3.16 16-3.93 2.75-0.77 6.8-1.69 9-2.04 2.2-0.36 6.25-1.36 9-2.23 2.75-0.88 5.13-1.64 5.3-1.7 0.16-0.07-0.4-2.26-1.25-4.87-0.85-2.61-2.31-5.99-3.23-7.5-0.92-1.51-3.51-4.67-5.75-7.01-2.24-2.35-4.75-4.27-5.57-4.27-0.83 0-7.58 1.98-15 4.39-7.43 2.42-16.88 5.38-21 6.58-4.13 1.21-10.43 3.06-14 4.12-3.58 1.06-8.41 2.38-10.75 2.94-2.97 0.7-4.03 1.38-3.51 2.25q0.73 1.24-0.5 0.5c-0.68-0.41-4.39-0.08-8.24 0.75-5.06 1.08-6.79 1.84-6.25 2.74q0.74 1.23-0.5 0.5c-0.69-0.41-4.96 0.21-9.5 1.36-4.54 1.16-10.28 2.56-12.75 3.11-2.48 0.55-4.93 1.4-5.45 1.9-0.52 0.49-1.76 0.89-2.75 0.89-1.32 0-0.13 1.93 4.48 7.25 3.46 3.99 8.29 9.95 10.75 13.25 2.45 3.3 4.71 6.23 5.03 6.5 0.31 0.27 1.96 2.98 3.66 6 1.69 3.02 4.72 8.65 6.72 12.5 2 3.85 4.85 8.06 6.35 9.36 2.32 2.02 3.36 2.26 7.21 1.69 2.47-0.37 9.45-1.81 15.5-3.2 6.05-1.39 11.9-2.91 13-3.38 1.1-0.47 3.57-1.14 5.5-1.5 1.92-0.35 8.22-1.75 14-3.11 5.77-1.36 14.32-3.36 19-4.44 4.67-1.08 10.97-2.61 14-3.4 3.02-0.78 10.67-2.62 17-4.08 6.32-1.46 12.4-3.04 13.5-3.51 1.1-0.47 4.92-1.35 8.5-1.94 3.57-0.6 8.52-1.7 11-2.45 2.47-0.76 6.3-1.66 8.5-2.02 2.2-0.35 6.25-1.26 9-2.02 2.75-0.76 9.27-2.35 14.5-3.53 5.22-1.18 10.29-2.33 11.25-2.56 1.23-0.29 1.74-1.38 1.73-3.66 0-1.79-0.34-3.76-0.75-4.39-0.4-0.63-3.43-2.53-6.73-4.22-3.3-1.7-6.56-3.1-7.25-3.11-0.69-0.02-1.25-0.48-1.25-1.03 0-0.55-1.81-1.56-4.02-2.25-2.22-0.69-4.02-1.59-4-2 0.01-0.41-0.66-0.75-1.48-0.75-1.11 0-1.5-1.17-1.5-4.5 0-2.48 0.22-4.5 0.5-4.5 0.27 0 2.41 0.71 4.75 1.58 2.34 0.87 5.49 2.22 7 3 1.51 0.78 3.2 1.42 3.75 1.42 0.55 0 5.84 2.05 11.75 4.56 5.91 2.5 12.32 5.41 14.25 6.45 1.92 1.04 4.27 3.38 5.21 5.19 0.94 1.82 1.96 6.22 2.26 9.8 0.3 3.58 1.11 7 1.79 7.62 0.68 0.61 4.84 1.53 9.24 2.05 7.22 0.84 8.49 1.32 13 4.99 2.75 2.24 6.35 5.64 8 7.56 1.65 1.92 3.71 4.35 4.57 5.39 0.87 1.04 1.88 2.9 2.25 4.14 0.37 1.24 1.2 2.25 1.85 2.25 0.64 0 0.87 0.34 0.5 0.75-0.36 0.41-0.1 1.38 0.59 2.15 0.95 1.08 1.3 16.51 1.49 67.25 0.21 55.17 0.02 66.54-1.19 70.1-0.79 2.34-1.24 4.59-1 5 0.24 0.41-0.01 0.75-0.56 0.75-0.55 0-0.99 0.56-0.98 1.25 0.01 0.69-1.23 2.8-2.75 4.69-1.53 1.89-5.02 5.64-7.77 8.34-2.75 2.69-6.8 5.82-9 6.96-2.2 1.14-6.25 2.71-9 3.5-2.75 0.79-8.83 2.51-13.5 3.82-4.68 1.31-11.54 3.07-15.25 3.91-4.85 1.1-6.54 1.88-6 2.77q0.74 1.23-0.5 0.5c-0.69-0.41-3.84-0.11-7 0.65-3.16 0.76-7.1 1.96-8.75 2.66-1.65 0.7-3.68 1.17-4.5 1.04-0.83-0.13-4.43 0.66-8 1.77-3.58 1.1-8.62 2.59-11.2 3.32-2.59 0.73-4.32 1.55-3.85 1.82 0.47 0.27-0.34 0.55-1.8 0.6-1.46 0.06-5.24 0.62-8.4 1.25-3.16 0.63-5.75 1.6-5.75 2.15 0 0.55-0.34 0.8-0.75 0.56-0.41-0.25-3.23 0.24-6.25 1.07-3.03 0.84-8.43 2.19-12 3-3.58 0.82-6.95 1.83-7.5 2.25-0.55 0.42-2.13 0.83-3.5 0.9-1.38 0.08-2.61 0.61-2.75 1.18-0.14 0.59-0.96 0.71-1.86 0.29q-1.62-0.75-2.5 1c-0.49 0.96-1.45 1.74-2.14 1.73q-1.25-0.01 0.25-0.98 1.5-0.97 0.25-0.98c-0.69-0.01-2.04 0.4-3 0.91-0.96 0.52-5.58 1.89-10.25 3.05-4.68 1.16-10.61 2.65-13.2 3.31-2.58 0.67-5.28 1.74-6 2.4-0.71 0.65-1.86 0.99-2.55 0.75-0.69-0.24-1.48 0.01-1.75 0.56-0.28 0.55-1.06 0.75-1.75 0.44-0.69-0.31-3.16-0.08-5.5 0.5-2.96 0.74-4.03 1.44-3.51 2.31q0.73 1.24-0.5 0.5c-0.68-0.41-3.38-0.3-5.99 0.26-2.61 0.55-5.88 1.25-7.25 1.56-1.98 0.44-2.19 0.73-1 1.4 1.07 0.61 0.64 0.84-1.5 0.82-1.65-0.02-5.03 0.25-7.5 0.6-2.48 0.35-4.73 1.1-5 1.66-0.28 0.57-0.95 0.92-1.5 0.79-0.55-0.14-3.48 0.34-6.5 1.06-4.21 1.01-5.15 1.54-4 2.3 1.23 0.81 1.19 0.88-0.25 0.39-0.96-0.32-4.56 0.11-8 0.96-3.44 0.86-6.81 1.31-7.5 1-0.69-0.3-1.03-0.1-0.75 0.45 0.27 0.55-1.08 1.23-3 1.5-1.93 0.27-3.5 0.95-3.5 1.5 0 0.55-0.45 0.77-1 0.5-0.55-0.27-3.03-0.05-5.5 0.5-2.48 0.55-4.32 1.34-4.1 1.75 0.22 0.41-1.25 0.84-3.25 0.95-2.01 0.11-5.79 0.68-8.4 1.25-2.61 0.58-4.57 1.39-4.35 1.8 0.22 0.41-1.01 0.86-2.75 0.99-1.73 0.13-5.63 0.92-8.65 1.76-3.03 0.84-8.88 2.46-13 3.61-4.13 1.15-9.53 2.5-12 2.99-2.48 0.5-7.65 0.76-11.5 0.57-5.57-0.26-8.53-1.07-14.5-3.96-4.13-1.99-8.18-3.76-9-3.92-0.83-0.16-1.73-0.58-2-0.94-0.28-0.35-2.64-1.82-5.25-3.25-2.61-1.43-5.31-2.3-6-1.94-0.69 0.36-0.92 0.25-0.52-0.25 0.4-0.5-3.2-2.78-8-5.07-4.8-2.29-11.88-5.64-15.73-7.43-3.85-1.8-7.23-3.56-7.5-3.92-0.28-0.37-1.85-1.16-3.5-1.77-1.65-0.6-3.35-0.79-3.78-0.41-0.43 0.38-0.75 0.24-0.71-0.31 0.03-0.55-2.2-2.24-4.97-3.75-2.77-1.51-5.04-2.3-5.04-1.75 0 0.55-1.24-0.14-2.75-1.53-1.51-1.39-3.99-2.97-5.5-3.5-1.51-0.53-2.75-0.74-2.75-0.47 0 0.27-0.63-0.06-1.4-0.75-0.76-0.69-1.11-1.7-0.76-2.25 0.38-0.59 0.13-0.69-0.6-0.25-0.7 0.43-4.38-0.77-8.49-2.76-3.99-1.92-7.81-3.5-8.5-3.5-0.69 0.01-1.25-0.44-1.25-0.99 0-0.55-1.81-1.56-4.02-2.25-2.22-0.69-4.02-1.59-4-2 0.01-0.41-1.67-1.27-3.73-1.89-2.06-0.63-3.98-1.47-4.25-1.86-0.28-0.39-3.43-2.12-7-3.86-3.58-1.73-7.06-3.15-7.75-3.14-0.69 0-1.36-0.47-1.5-1.05-0.14-0.57-0.93-1.2-1.75-1.39-0.83-0.2-2.51-0.63-3.75-0.96-1.24-0.33-2.25-1.05-2.25-1.6 0-0.55-1.35-1.45-3-2-1.65-0.55-3.56-0.66-4.24-0.25-0.74 0.45-0.96 0.34-0.56-0.25 0.38-0.56-1.99-2.32-5.39-4-3.33-1.65-6.46-3.79-6.94-4.75-0.51-1.03-0.36-7.46 1.63-29.43l12.31 5.18 0.64 6c0.35 3.3 0.63 7.35 0.62 9-0.01 2.29 0.21 2.64 0.94 1.5 0.53-0.83 0.97-1.05 0.99-0.5 0.02 0.55-0.54 1.55-1.23 2.23-0.7 0.68-1.05 1.39-0.77 1.58 0.27 0.18 2.86 1.54 5.75 3.01 2.89 1.48 5.7 2.45 6.25 2.18 0.55-0.27 1-4.33 1-9 0-4.67 0.22-8.5 0.5-8.5 0.27 0 3.42 1.35 13.5 6l-0.05 9.75c-0.03 6.81 0.35 10.07 1.25 10.82 0.72 0.58 3.32 1.81 5.8 2.73 2.47 0.91 4.72 1.41 5 1.1 0.27-0.32 0.6-2 0.72-3.74 0.12-1.74 0.57-5.53 1-8.42 0.43-2.9 0.89-5.26 1.03-5.25 0.14 0 2.39 1.02 5 2.26 2.61 1.24 5.24 2.7 5.85 3.25 0.6 0.55 1.42 5.05 1.81 10 0.39 4.95 0.91 9.79 1.15 10.75 0.24 0.96 1 1.76 1.69 1.77 0.69 0 2.94 1.13 5 2.5 2.06 1.36 4.2 2.25 4.75 1.98 0.62-0.31 0.9-6.61 0.5-32.71l-2.75-1.39c-1.51-0.77-2.75-1.17-2.75-0.9 0 0.27-2.93-1.08-6.5-3-3.58-1.92-6.74-3.16-7.03-2.75-0.29 0.41-0.51 0.19-0.5-0.5 0.02-0.69-0.42-1.25-0.97-1.25-0.55 0-4.04-1.46-7.75-3.25-3.71-1.79-7.08-3.7-7.49-4.25-0.4-0.55-0.74-0.66-0.75-0.25 0 0.41-2.37-0.41-5.26-1.83-2.89-1.42-6.04-3-7-3.5-0.96-0.51-2.54-1.34-3.5-1.86-0.96-0.52-7.38-3.61-14.25-6.87-6.88-3.27-16.33-7.77-21-10.02-4.68-2.24-8.6-3.99-8.72-3.88-0.13 0.12-0.24 8.2-0.28 35.71l-3.25-0.62c-1.79-0.34-5.05-1.8-7.25-3.25-2.2-1.45-5.73-4.21-7.84-6.13-2.11-1.92-4.47-3.84-5.25-4.25-0.78-0.41-1.41-1.2-1.41-1.75 0-0.55-1.46-2.48-3.25-4.3-1.79-1.81-3.93-4.18-4.75-5.26-0.83-1.08-1.67-3.08-1.89-4.45-0.21-1.37-0.66-29.56-1-62.65-0.33-33.08-0.39-60-0.11-59.81 0.27 0.19 1.06-2.21 1.75-5.34 0.69-3.13 3.39-9.96 6-15.18 2.61-5.22 5.2-9.99 5.75-10.61 0.55-0.61 2.57-3.69 4.5-6.83 1.92-3.15 6.23-9.86 9.56-14.9 3.33-5.04 8.25-12.32 10.93-16.17 2.69-3.85 5.81-8.34 6.94-9.97 1.14-1.64 2.52-3.5 3.07-4.14 0.55-0.64 1.68-2 2.5-3.03 0.83-1.02 3.29-4.34 5.48-7.36 2.19-3.02 4.44-6.03 5-6.68 0.56-0.65 7.54-8.13 15.52-16.62 7.97-8.49 15.4-15.98 16.5-16.65 1.65-0.99 3.41-0.74 10 1.47 4.4 1.47 9.69 3.75 11.75 5.08 2.06 1.32 3.97 3.3 4.25 4.4 0.27 1.1-0.06 2.72-0.75 3.6-0.69 0.89-4.96 3.7-9.49 6.25-4.54 2.56-8.26 4.88-8.27 5.15-0.02 0.27 2.34 1.47 5.24 2.65 2.9 1.18 9.54 3.54 14.77 5.24 5.22 1.69 12.2 4.02 15.5 5.18 3.3 1.15 6.45 2.21 7 2.36 0.55 0.15 1.67 0.54 2.5 0.88 0.82 0.34 3.52 1.35 6 2.24 2.47 0.9 6.97 2.35 10 3.24 3.02 0.89 5.72 1.86 6 2.16 0.27 0.3 9.95 3.73 21.5 7.61 17.72 5.96 21.47 6.91 24 6.12 1.65-0.52 3.9-1.34 5-1.83 1.1-0.48 5.15-1.81 9-2.94 3.85-1.14 7.67-2.06 8.5-2.06 0.82 0.01 8.02 2.28 16 5.05 7.97 2.77 15.87 5.06 17.55 5.07 1.68 0.02 3.6-0.53 4.27-1.22 0.66-0.69 1.2-2.26 1.2-3.5-0.01-1.24 0.54-2.82 1.23-3.51 0.69-0.7 2.49-1.82 4-2.5 1.51-0.68 2.75-1.91 2.75-2.74 0-0.83-0.56-2.08-1.25-2.79-0.69-0.71-3.28-2.01-5.75-2.89-2.48-0.88-8.55-2.84-13.5-4.34-4.95-1.51-10.58-3.32-12.5-4.03-1.93-0.7-5.75-2-8.5-2.88-2.75-0.88-9.28-2.96-14.5-4.62-5.23-1.66-12.2-3.85-15.5-4.87-3.3-1.02-7.58-2.18-9.5-2.58-1.93-0.4-3.95-1.06-4.5-1.47-0.55-0.41-3.25-1.29-6-1.97-2.75-0.67-6.8-1.39-9-1.6-2.2-0.2-5.58-0.61-7.5-0.91-1.93-0.29-4.63-1.37-6-2.4-1.38-1.03-4.75-3.05-7.5-4.51-2.75-1.45-5.68-2.67-6.5-2.71-0.83-0.03 3.9-1.66 10.5-3.62 6.6-1.97 15.82-4.42 20.5-5.47 4.67-1.04 10.07-1.67 12-1.4 1.92 0.27 7.55 1.82 12.5 3.44 4.95 1.63 10.12 3.5 11.5 4.17 2.09 1.01 3.23 0.88 7-0.8 2.47-1.11 5.4-2.36 6.5-2.78 1.1-0.42 2.45-0.89 3-1.03 0.55-0.15 3.92-1.22 7.5-2.39 3.57-1.17 9.87-3.07 14-4.23 4.12-1.15 9.75-2.45 12.5-2.88 2.75-0.43 10.62-0.66 17.5-0.5zm-25.5 13.53c-1.1 0.5-4.7 1.47-8 2.14-3.3 0.67-6.45 1.54-7 1.92-0.55 0.39-4.04 1.22-7.75 1.84-3.71 0.62-6.75 1.58-6.75 2.13 0 0.55-1.91 1.01-4.25 1.02-2.34 0.01-4.7-0.45-5.25-1.02-0.55-0.56-3.48-1.27-6.5-1.57-3.03-0.29-7.53-0.15-10 0.32l-4.5 0.85c12.4 2.02 16.45 2.96 17 3.4 0.55 0.43 3.14 0.95 5.75 1.14 3.32 0.25 4.75-0.02 4.75-0.89 0-0.69 0.45-1.25 1-1.25 0.55 0 1 0.67 1 1.5 0 1.2 0.85 1.37 4.25 0.85 2.34-0.36 4.63-0.99 5.1-1.41 0.47-0.42 4.52-1.31 9-1.98 4.48-0.67 8.6-1.55 9.15-1.96 0.55-0.4 4.72-1.36 9.26-2.12 4.54-0.76 8.26-1.72 8.25-2.13-0.01-0.41 1.45-0.78 3.24-0.81 1.79-0.04 6.4-0.63 10.25-1.32 5.96-1.07 6.55-1.35 4-1.88-1.65-0.34-6.83-0.84-11.5-1.1-4.68-0.27-10.75-0.06-13.5 0.46-2.75 0.52-5.9 1.36-7 1.87zm49 11.98c-0.55 0.43-4.15 1.36-8 2.05-3.85 0.69-7.45 1.6-8 2.02-0.55 0.41-4.31 1.36-8.36 2.11-4.05 0.76-7.54 1.71-7.75 2.12-0.22 0.41 1.24 1.09 3.23 1.5 2 0.41 3.8 1.09 4 1.5 0.21 0.41 1.73 0.75 3.38 0.75 1.65 0 2.99-0.34 2.98-0.75-0.02-0.41 1.67-1.31 3.75-1.98 2.07-0.68 4.78-1.24 6.02-1.25 1.24-0.01 2.25-0.47 2.25-1.02 0-0.55 3.2-1.56 7.11-2.25 3.91-0.69 7.29-1.59 7.5-2 0.21-0.41 1.51-0.75 2.89-0.75 1.83 0 2.5-0.53 2.5-2 0-1.55-0.61-1.96-2.75-1.84-1.51 0.09-4.33 0.35-6.25 0.58-1.93 0.24-3.95 0.78-4.5 1.21zm122.8 46.8c0.39 0.69 2.27 1.25 4.2 1.25 1.92 0 3.5-0.45 3.5-1 0-0.55 0.79-1.04 1.75-1.1 1.47-0.08 1.43-0.21-0.25-0.8-1.1-0.39-3.69-1.47-5.75-2.4-2.06-0.94-3.87-1.7-4.02-1.7-0.15 0-0.24 1.01-0.2 2.25 0.04 1.24 0.39 2.81 0.77 3.5zm-349.3 10.2c-1.38 0.95-3.29 2.02-4.25 2.39-0.96 0.36-1.75 1.33-1.75 2.16 0 0.83-0.34 1.61-0.75 1.75-0.41 0.14-2.21 2.16-4 4.5-1.79 2.34-3.25 4.59-3.25 5 0 0.41-0.9 1.31-2 2-1.1 0.69-2 1.92-2 2.75 0 0.83-0.34 1.61-0.75 1.75-0.41 0.14-2.21 2.16-4 4.5-1.79 2.34-3.25 4.7-3.25 5.25 0 0.55-0.68 1.23-1.5 1.5-0.83 0.27-1.51 1.06-1.53 1.75-0.02 0.69-0.69 1.92-1.49 2.75-0.81 0.83-2.6 2.96-3.98 4.75-1.37 1.79-2.5 3.7-2.5 4.25 0 0.55-0.45 1-1 1-0.55 0-1.79 1.63-2.75 3.63-0.96 2-2.33 4.14-3.05 4.75-0.71 0.62-1.27 1.46-1.25 1.87 0.03 0.41-0.58 2.21-1.35 4-0.77 1.79-1.91 4.83-2.52 6.75-0.68 2.13-1.11 11.83-1.1 24.75l0.02 21.25c4.66 1.94 6 2.73 5.98 3-0.01 0.27 1.79 1.17 4.02 2 2.23 0.83 4.04 1.84 4.02 2.25-0.01 0.41 0.77 0.74 1.73 0.73 0.96-0.02 3.77 1.04 6.25 2.35 2.47 1.31 5.96 2.67 7.75 3.02 1.79 0.36 3.24 0.99 3.22 1.4-0.01 0.41 1.9 1.41 4.25 2.21 2.36 0.8 4.5 1.71 4.78 2.02 0.27 0.31 1.74 1.11 3.25 1.79 1.68 0.75 2.75 0.84 2.75 0.23 0-0.55 0.45-1 1-1 0.55 0 0.89 0.77 0.75 1.71-0.15 1.04 0.53 1.86 1.75 2.09 1.1 0.2 4.92 1.74 8.5 3.42 3.57 1.67 11 5.22 16.5 7.89 5.5 2.66 10.56 4.85 11.25 4.86 0.69 0.02 1.47-0.64 1.75-1.47 0.27-0.83 0.5-10.61 0.49-21.75 0-12.58 0.47-22.44 1.25-26.02 0.69-3.17 1.6-5.76 2.01-5.75 0.41 0.01 0.75-0.99 0.74-2.23 0-1.24 1.71-5.62 3.8-9.75 2.09-4.12 4.45-8.62 5.25-10 0.8-1.37 1.72-2.73 2.04-3 0.32-0.27 1.22-1.96 2-3.75 0.78-1.79 1.76-3.25 2.17-3.25 0.41 0 0.75-0.45 0.75-1 0-0.55 1.35-3.02 3-5.5 1.65-2.48 3-4.95 3-5.5 0-0.55 0.34-0.99 0.75-0.98 0.41 0.01 1.42-1.57 2.25-3.52 0.82-1.95 1.84-3.53 2.25-3.52 0.41 0.01 1.43-1.44 2.27-3.23 0.83-1.79 2.29-4.6 3.25-6.25 0.95-1.65 2.18-3.32 2.73-3.71 0.55-0.4 1-3.39 1-6.65 0-4.55-0.46-6.42-2-8.04-1.1-1.17-3.99-2.66-6.42-3.33-2.44-0.66-4.34-1.45-4.23-1.74 0.11-0.29-2.53-1.2-5.85-2.03-3.33-0.83-6.04-1.84-6.02-2.25 0.01-0.41-0.99-0.74-2.23-0.73-1.24 0.01-3.83-0.48-5.75-1.09-1.93-0.6-4.4-1.49-5.5-1.97-1.1-0.48-4.03-1.42-6.5-2.09-2.48-0.67-4.95-1.53-5.5-1.92-0.55-0.38-3.48-1.28-6.5-2.01-3.03-0.72-5.95-1.67-6.5-2.11-0.55-0.43-3.25-0.99-6-1.25-2.75-0.25-5.9-0.21-7 0.1-1.1 0.3-3.13 1.33-4.5 2.27zm155.72 15.8c0.58 1.39 0.37 1.6-1 1-1.26-0.55-2.18-0.01-3.45 2-0.95 1.51-2.05 2.98-2.45 3.25-0.4 0.27-1.98 2.39-3.52 4.7-1.54 2.31-5.67 8.38-9.18 13.5-3.51 5.11-6.77 9.41-7.25 9.55-0.48 0.14-0.87 0.7-0.87 1.25 0 0.55-3.79 6.74-8.41 13.75-4.63 7.01-8.76 13.65-9.18 14.75-0.42 1.1-1.02 2.23-1.34 2.5-0.32 0.27-1.76 2.3-3.22 4.5-1.45 2.2-4.7 7.6-7.22 12-2.52 4.4-4.59 8.56-4.61 9.25-0.01 0.69-0.47 1.25-1.02 1.25-0.55 0-1.39 1.01-1.87 2.25-0.49 1.24-2.27 4.27-3.98 6.75-1.71 2.48-3.23 5.82-3.38 7.42-0.25 2.7 0.19 3.12 5.73 5.47 3.3 1.4 6.22 2.81 6.5 3.12 0.27 0.31 2.19 1.11 4.25 1.78 3.66 1.18 3.76 1.15 4.38-1.54 0.35-1.51 2.93-6.58 5.73-11.25 2.8-4.67 6.45-9.88 8.12-11.57 1.66-1.68 4.82-4.46 7.02-6.17 2.2-1.7 6.47-4.19 9.5-5.53 3.02-1.34 10.9-4.24 17.5-6.46 6.6-2.21 16.95-5.62 23-7.57 6.05-1.94 14.37-4.46 18.5-5.59 4.12-1.12 9.75-2.77 12.5-3.65 2.75-0.89 5.79-2.03 6.75-2.53 0.96-0.51 2.65-0.93 3.75-0.93 1.1 0 2.22-0.45 2.5-1 0.27-0.55-0.08-1.56-0.79-2.25-0.7-0.69-1.6-2.94-2-5-0.39-2.06-1.05-3.74-1.46-3.73-0.41 0.02-1.4-1.89-2.19-4.25-0.79-2.35-2.18-5.39-3.08-6.77-0.91-1.37-1.95-3.29-2.32-4.25-0.36-0.96-1.11-1.75-1.66-1.75-0.55 0-1-0.45-1-1 0-0.55-1.24-2.67-2.75-4.71-1.51-2.03-3.97-4.85-5.46-6.25-1.5-1.4-2.73-2.99-2.75-3.54-0.01-0.55-3.29-4.26-7.28-8.24-3.99-3.99-7.94-7.15-8.76-7.04-0.83 0.11-6.34 0.33-12.25 0.49-9.79 0.26-10.69 0.45-10.03 2.04zm285.89 41.2c-3.91 0.7-7.56 1.62-8.11 2.03-0.55 0.42-4.15 1.33-8 2.02-3.85 0.69-7.45 1.61-8 2.04-0.55 0.43-4.72 1.39-9.26 2.12-4.55 0.74-8.26 1.68-8.25 2.09 0 0.41-3.6 1.31-8 2-4.41 0.69-8.01 1.59-8 2 0 0.41-3.7 1.24-8.24 1.84-4.54 0.6-8.7 1.45-9.25 1.88-0.55 0.44-4.38 1.37-8.5 2.07-4.13 0.7-7.95 1.6-8.5 1.99-0.55 0.39-4.15 1.3-8 2.02-3.85 0.72-7.45 1.64-8 2.05-0.55 0.41-4.15 1.29-8 1.95-3.85 0.66-7.45 1.53-8 1.94-0.55 0.41-4.15 1.32-8 2.01-3.85 0.69-7.45 1.62-8 2.05-0.55 0.43-4.72 1.39-9.26 2.12-4.54 0.73-8.25 1.67-8.25 2.08 0.01 0.41-3.6 1.31-8 2-4.41 0.69-8.01 1.59-8 2 0 0.41-3.6 1.31-8 2-4.41 0.69-8.01 1.59-8 2 0 0.41-1.23 0.77-2.74 0.79-1.51 0.02-5.45 0.72-8.75 1.57-3.3 0.84-8.03 1.96-10.5 2.48-2.48 0.51-9.23 2.08-15 3.49-5.78 1.4-11.63 2.92-13 3.38-1.38 0.45-5.2 1.4-8.5 2.1-3.3 0.7-6.45 1.59-7 1.98-0.55 0.39-3.25 1.02-6 1.4-2.75 0.38-7.25 1.32-10 2.09-2.75 0.77-11.04 2.88-18.41 4.69-12.04 2.94-13.75 3.64-16.74 6.78-1.83 1.92-3.89 5.42-4.59 7.76-0.69 2.34-1.6 4.25-2.01 4.25-0.41-0.01-0.75 1.79-0.75 3.99 0 3.63 0.21 3.95 2.25 3.5 1.24-0.27 5.17-1.2 8.75-2.05 3.57-0.86 10.1-2.4 14.5-3.43 4.4-1.03 11.15-2.6 15-3.5 3.85-0.9 7.9-2.04 9-2.53 1.1-0.49 3.57-1.13 5.5-1.41 1.92-0.28 5.52-0.97 8-1.53 2.47-0.56 6.07-1.45 8-1.97 1.92-0.53 8.45-2.14 14.5-3.58 6.05-1.44 11.67-2.99 12.5-3.43 0.82-0.45 5.1-1.41 9.5-2.12 4.4-0.71 8.45-1.67 9-2.13 0.55-0.45 4.27-1.39 8.26-2.07 3.99-0.69 7.24-1.48 7.23-1.75-0.01-0.27 3.47-1.1 7.74-1.84 4.27-0.73 8.67-1.72 9.77-2.19 1.1-0.48 4.7-1.39 8-2.03 3.3-0.65 6.22-1.48 6.5-1.85 0.27-0.37 4.1-1.26 8.5-1.97 4.4-0.71 8.43-1.71 8.95-2.21 0.52-0.5 1.76-0.91 2.75-0.91 0.99 0 7.76-1.39 15.05-3.1 7.29-1.7 14.15-3.46 15.25-3.91 1.1-0.45 4.92-1.37 8.5-2.05 3.57-0.68 6.95-1.56 7.5-1.96 0.55-0.39 4.72-1.34 9.26-2.1 4.54-0.76 8.25-1.61 8.23-1.88-0.01-0.27 3.47-1.11 7.74-1.85 4.27-0.75 9.12-1.95 10.77-2.68 1.65-0.73 5.47-1.65 8.5-2.03 3.02-0.39 5.95-1.04 6.5-1.44 0.55-0.41 2.8-1.05 5-1.44 2.2-0.38 8.95-1.83 15-3.21 6.05-1.38 11.67-2.88 12.5-3.32 0.82-0.44 5.22-1.42 9.76-2.17 4.54-0.75 8.25-1.59 8.23-1.86-0.01-0.27 1.78-0.84 3.99-1.25 3.21-0.6 4.12-1.26 4.52-3.25 0.27-1.37 0.27-3.62 0-5-0.28-1.37-0.95-2.5-1.5-2.5-0.55 0-1.23-0.9-1.5-2-0.28-1.1-1.74-2.45-3.25-3-1.51-0.55-3.54-1.45-4.5-2-0.96-0.55-3.08-1-4.7-1-1.63 0-3.26 0.37-3.64 0.83-0.38 0.46-3.89 1.41-7.8 2.12zm20.89 38.03c-1.1 0.48-5.15 1.42-9 2.08-3.85 0.66-7.45 1.53-8 1.94-0.55 0.41-4.15 1.31-8 2-3.85 0.69-7.45 1.61-8 2.03-0.55 0.43-4.6 1.36-9 2.08-4.4 0.71-8.23 1.6-8.5 1.96-0.28 0.36-4.33 1.35-9 2.19-4.68 0.85-11.65 2.28-15.5 3.18-3.85 0.91-7.68 2.01-8.5 2.46-0.83 0.45-4.88 1.39-9 2.08-4.13 0.69-7.95 1.59-8.5 2-0.55 0.42-4.15 1.33-8 2.02-3.85 0.69-7.45 1.59-8 2-0.55 0.41-4.15 1.31-8 2-3.85 0.69-7.45 1.6-8 2.02-0.55 0.41-2.8 1.02-5 1.34-2.2 0.33-5.91 0.83-8.25 1.12-2.34 0.28-4.25 0.97-4.25 1.52 0 0.55-3.61 1.56-8.01 2.25-4.41 0.69-8.01 1.59-8 2 0 0.41-3.6 1.31-8 2-4.41 0.69-8.01 1.48-8 1.75 0 0.27-0.55 0.59-1.24 0.69-0.69 0.11-4.4 0.78-8.25 1.51-3.85 0.72-7.45 1.62-8 2.01-0.55 0.38-4.38 1.36-8.5 2.18-4.13 0.81-11.1 2.3-15.5 3.31-4.4 1-8.45 2.09-9 2.43-0.55 0.33-4.15 1.17-8 1.87-3.85 0.69-7.45 1.61-8 2.04-0.55 0.43-4.72 1.39-9.26 2.12-4.55 0.74-8.26 1.68-8.25 2.09 0 0.41-3.6 1.31-8 2-4.41 0.69-8.01 1.59-8 2 0 0.41-1.23 0.77-2.74 0.79-1.51 0.02-5.45 0.71-8.75 1.55-3.3 0.83-9.6 2.34-14 3.34-4.4 1-12.41 2.82-17.81 4.05l-9.81 2.23 0.62 99.29c3.87 7.56 6.35 10.57 8 11.57 1.65 0.99 4.8 2.1 7 2.45 2.49 0.4 6.46 0.02 10.5-1 3.57-0.91 9.87-2.48 14-3.5 4.12-1.01 10.2-2.56 13.5-3.45 3.3-0.88 6.79-2.05 7.75-2.59 0.96-0.54 4.79-1.52 8.5-2.17 3.71-0.66 7.08-1.67 7.48-2.25 0.41-0.58 0.75-0.72 0.75-0.31 0.01 0.41 1.48 0.35 3.27-0.13 1.79-0.48 6.85-1.87 11.25-3.09 4.4-1.21 9.57-2.65 11.5-3.18 1.92-0.53 4.4-1.16 5.5-1.39 1.1-0.23 4.47-1.16 7.5-2.06 3.02-0.9 8.65-2.52 12.5-3.6 3.85-1.08 9.92-2.75 13.5-3.71 3.57-0.96 7.17-2.02 8-2.36 0.82-0.34 4.2-1.12 7.5-1.73 3.3-0.62 7.57-1.72 9.5-2.44 1.92-0.73 5.52-1.65 8-2.06 2.47-0.41 4.72-1.09 5-1.52 0.27-0.43 2.3-1.07 4.5-1.42 2.2-0.35 6.92-1.5 10.5-2.56 3.57-1.05 8.52-2.46 11-3.14 2.47-0.67 4.72-1.27 5-1.33 0.27-0.07 2.97-0.69 6-1.39 3.02-0.7 7.07-1.89 9-2.65 1.92-0.76 5.75-1.85 8.5-2.43 2.75-0.57 8.37-1.98 12.5-3.12 4.12-1.14 9.97-2.75 13-3.57 3.02-0.83 5.95-1.88 6.5-2.35 0.55-0.46 3.92-1.37 7.5-2.02 3.57-0.65 6.95-1.52 7.5-1.94 0.55-0.43 3.92-1.33 7.5-2.01 3.57-0.68 6.95-1.57 7.5-1.98 0.55-0.42 4.26-1.27 8.25-1.91 3.99-0.64 7.24-1.5 7.24-1.91-0.01-0.41 2.8-1.3 6.25-1.98 3.44-0.68 8.06-2.15 10.26-3.28 2.2-1.13 5.25-3.28 6.77-4.77 1.52-1.5 2.76-3.28 2.75-3.97-0.01-0.69 0.42-1.36 0.96-1.5 0.54-0.14 1.44-2.73 2.01-5.75 0.61-3.27 1.03-23.88 1.02-50.75-0.01-24.89-0.35-45.2-0.76-45.13-0.41 0.06-1.65 0.31-2.75 0.55-1.1 0.24-2.9 0.83-4 1.31zm-384.57 117.52c-0.05 32.02 0.27 46.91 1.06 49 0.63 1.65 2.34 4 3.82 5.21 1.48 1.22 3.14 2.22 3.69 2.23 0.55 0.01 4.15 1.61 8 3.56 3.85 1.95 7.11 3.42 7.24 3.27 0.13-0.15 0.25-16.25 0.26-35.77 0.02-19.52 0.03-45.02 0.02-56.67v-21.16c-4.65-2.06-6.01-3-6.01-3.41-0.01-0.42-0.8-0.76-1.76-0.76-0.96 0-4.23-1.33-7.25-2.96-3.03-1.63-6.01-2.98-6.62-3-0.68-0.02-1.37 2.84-1.75 7.21-0.34 3.99-0.65 27.95-0.7 53.25z"/>
		<path id="Path 1" class="s1" d="m154.37 389c0 5.77 0.17 8.02 0.37 5 0.2-3.02 0.2-7.75 0-10.5-0.2-2.75-0.37-0.27-0.37 5.5zm420.42 235.28l-3.71 2.22c5.75 2.61 12.59 5.15 18.92 7.32 6.33 2.17 17.58 6.06 25 8.65 7.42 2.59 14.85 5.31 16.5 6.06 1.65 0.74 6.49 2.5 10.75 3.91 7.07 2.34 8.03 2.44 11 1.15 1.79-0.78 4.6-1.87 6.25-2.42 1.67-0.56 2.22-1.05 1.25-1.09-0.96-0.04-2.76-0.48-4-0.96-1.24-0.48-2.52-0.82-2.85-0.75-0.32 0.07-1.22-0.39-2-1.03-0.77-0.64-3.09-1.43-5.15-1.75-2.06-0.32-3.75-1.04-3.75-1.59 0-0.55-0.67-1-1.5-1-0.83 0-4.31-1.08-7.75-2.39-3.44-1.32-12.33-4.52-19.75-7.11-7.42-2.59-16.42-5.81-20-7.14-3.58-1.34-7.29-2.86-8.25-3.39-0.96-0.54-2.99-0.96-4.5-0.94-1.51 0.02-4.42 1.03-6.46 2.25z"/>
		<path id="Path 2" class="s2" d="m239.47 219.5c0 34.65 0.13 48.6 0.28 31 0.15-17.6 0.15-45.95 0-63-0.15-17.05-0.28-2.65-0.28 32zm-91.02-26c0 19.8 0.13 28.13 0.3 18.5 0.16-9.63 0.16-25.82 0-36-0.16-10.18-0.3-2.3-0.3 17.5zm325.49-18.81c-0.53 1.55-0.96 5.51-0.97 8.81 0 3.77 0.34 5.63 0.93 5 0.52-0.55 1.09-2.65 1.27-4.67 0.18-2.02 0-4.05-0.41-4.5-0.41-0.46-0.28-1.28 0.28-1.83 0.56-0.55 0.76-2.04 0.44-3.31-0.57-2.25-0.6-2.24-1.54 0.5zm-403.94 54.04c1.92 0.21 5.3 0.21 7.5 0 2.2-0.22 0.62-0.39-3.5-0.39-4.13 0-5.93 0.17-4 0.39zm169.46 104.77c0 24.2 0.13 33.88 0.29 21.5 0.16-12.37 0.16-32.18 0-44-0.16-11.82-0.29-1.7-0.29 22.5zm-113.96 12.24c2.75 0.2 7.47 0.2 10.5 0 3.02-0.2 0.77-0.37-5-0.37-5.78 0-8.25 0.17-5.5 0.37zm28.29 15.51c0.15 2.89 0.42 6.38 0.6 7.75 0.17 1.38 0.38-0.99 0.46-5.25 0.08-4.26-0.19-7.75-0.6-7.75-0.41 0-0.62 2.36-0.46 5.25zm230.57 58.75c0 5.23 0.17 7.25 0.38 4.5 0.2-2.75 0.2-7.02 0-9.5-0.21-2.48-0.38-0.23-0.38 5zm-54.99 3.5c0.01 6.05 0.17 8.3 0.37 5 0.2-3.3 0.2-8.25 0-11-0.21-2.75-0.37-0.05-0.37 6zm-114.04 99c0 3.85 0.18 5.2 0.4 3 0.21-2.2 0.21-5.35-0.01-7-0.22-1.65-0.4 0.15-0.39 4zm75.03 11.5c0 5.23 0.17 7.25 0.38 4.5 0.2-2.75 0.2-7.02 0-9.5-0.21-2.48-0.38-0.23-0.38 5zm431.14 57.63c1.65 0.18 6.04 0.44 9.75 0.59 3.72 0.16 6.75-0.06 6.75-0.47 0-0.41-4.39-0.68-9.75-0.59-5.36 0.09-8.4 0.3-6.75 0.47zm-203.02 24.34c-4.39 4.38-7.75 8.1-7.48 8.26 0.27 0.16 4.07-3.42 8.43-7.97 4.36-4.54 7.72-8.26 7.47-8.26-0.24 0-4.04 3.59-8.42 7.97zm60.59-1.3c-0.07 0.46 0.9 1.35 2.15 1.99 1.26 0.64 4.3 2.08 6.78 3.2 2.48 1.12 6.98 2.28 10 2.57 4.96 0.47 5.13 0.43 1.75-0.45-2.06-0.54-3.75-1.43-3.75-1.98 0-0.55-1.46-1.27-3.25-1.6-1.79-0.33-4.15-1.17-5.25-1.86-1.1-0.7-3.42-1.59-5.15-1.98-1.73-0.4-3.21-0.35-3.28 0.11zm20.43 13.33c2.2 1.06 4.9 1.91 6 1.89q2.05-0.04 0.5-0.56c-0.83-0.28-2.96-1.14-4.75-1.92-1.79-0.78-3.81-1.39-4.5-1.38-0.69 0.02 0.55 0.91 2.75 1.97zm32.05 6c-0.3 0.55 0.57 1.23 1.95 1.5 1.37 0.27 2.5 0.84 2.49 1.25 0 0.41 2.58 1.3 5.75 1.96 3.17 0.67 7.11 1.91 8.76 2.76 1.65 0.85 4.74 1.88 6.87 2.29 2.13 0.41 4.04 1.08 4.25 1.49 0.21 0.41 1.28 0.75 2.38 0.75 1.1 0 1.89-0.5 1.75-1.12-0.14-0.61-2.5-1.78-5.25-2.6-2.75-0.82-5.9-1.87-7-2.34-1.1-0.47-3.91-1.33-6.25-1.9-2.34-0.57-4.48-1.49-4.75-2.04-0.27-0.55-1.85-1-3.5-1-1.65 0-3.23-0.45-3.5-1-0.27-0.55-1.15-1-1.95-1-0.8 0-1.7 0.45-2 1zm202.45-0.27c1.92 0.21 5.3 0.21 7.5 0 2.2-0.22 0.62-0.39-3.5-0.39-4.13 0-5.92 0.17-4 0.39zm-165.76 13.52c0.26 0.69 1.1 1.66 1.86 2.15 0.77 0.5 2.3 0.58 3.4 0.18l2-0.72c-3.1-2.24-4.84-2.89-5.87-2.88-1.07 0.01-1.66 0.55-1.39 1.27zm7.97 3c0.24 0.69 1.87 1.36 3.62 1.5 1.75 0.14 3.16 0.81 3.15 1.5-0.01 0.97 0.27 0.98 1.25 0.06 0.7-0.65 1.83-0.99 2.52-0.75 0.69 0.24 1.25-0.01 1.25-0.56 0-0.55-1.13-0.77-2.5-0.5-1.48 0.3-2.3 0.09-2-0.5 0.27-0.55-0.96-1.23-2.75-1.51-1.79-0.28-3.64-0.51-4.12-0.5-0.47 0-0.66 0.57-0.42 1.26zm13.79 4.75c-2.4 0.77-2.41 0.8-0.25 0.9 1.24 0.06 2.25 0.44 2.25 0.85 0 0.41 1.97 0.75 4.37 0.75 4.07 0 4.23-0.1 2.42-1.5-1.5-1.16-2.22-1.23-3.12-0.31-0.64 0.65-1.84 0.91-2.67 0.57-1.21-0.49-1.11-0.76 0.5-1.37 1.14-0.43 1.36-0.74 0.5-0.72-0.83 0.02-2.63 0.39-4 0.83zm-212.75 206.51c-0.14 3.16 0.17 5.49 0.75 5.49 0.55 0 1-2.48 1-5.5 0-3.02-0.34-5.5-0.75-5.49-0.41 0-0.86 2.48-1 5.5zm-0.25 21.99c0 3.75-0.4 5.49-1.25 5.47-0.69-0.01-0.92 0.32-0.52 0.75 0.4 0.43 1.43 0.11 2.29-0.72 1.01-0.97 1.55-3.19 1.52-6.25-0.02-2.61-0.49-4.75-1.04-4.75-0.55 0-1 2.48-1 5.5zm41 0.7c-0.91 0.78-1.34 2.98-1.23 6.25 0.1 2.78 0.37 4.82 0.61 4.55 0.24-0.27 0.56-2.3 0.71-4.5 0.15-2.2 0.61-4.79 1.02-5.75 0.42-0.96 0.65-1.75 0.52-1.75-0.13 0-0.86 0.54-1.63 1.2zm15.77 15.05c0.2 5.09 0.52 9.7 0.72 10.25 0.19 0.55 0.39-3.61 0.43-9.25 0.04-5.64-0.28-10.25-0.71-10.25-0.44 0-0.64 4.16-0.44 9.25z"/>
		<path id="Path 3" class="s3" d="m306.5 139.75c28.05 0.15 73.5 0.15 101 0 27.5-0.15 4.55-0.27-51-0.27-55.55 0-78.05 0.12-50 0.27zm-201.05 51.75c0 19.25 0.13 26.9 0.3 17 0.16-9.9 0.16-25.65 0-35-0.17-9.35-0.3-1.25-0.3 18zm65.55 1.8l0.5 36.2c0.37-55.03 0.15-71.32-0.26-71.7-0.41-0.39-0.52 15.59-0.24 35.5zm301.37-26.8c0 5.5 0.17 7.53 0.37 4.5 0.2-3.03 0.2-7.53-0.01-10-0.2-2.47-0.37 0-0.36 5.5zm-322.99 4c0 6.6 0.17 9.07 0.36 5.5 0.2-3.57 0.19-8.97 0-12-0.2-3.03-0.36-0.1-0.36 6.5zm323.09 107.5c0 38.23 0.13 53.75 0.28 34.5 0.15-19.25 0.15-50.52 0-69.5-0.15-18.97-0.28-3.23-0.28 35zm-355.67 66.18c0.93 0.37 6.65 0.65 12.7 0.61 6.05-0.03 10.1-0.21 9-0.38-1.1-0.18-6.82-0.45-12.7-0.62-5.89-0.16-9.94 0.02-9 0.39zm355.6 18.82c0 7.98 0.15 11.35 0.34 7.5 0.19-3.85 0.19-10.38 0-14.5-0.19-4.13-0.34-0.98-0.34 7zm-327.82 45.08c-1.86 0.99-1.91 2.38-1.51 42.22l0.41 41.2c0.59-78.25 0.77-82.11 2.32-83.22 0.93-0.67 1.48-1.22 1.2-1.22-0.27 0-1.36 0.46-2.42 1.02zm199.42 49.86c1.04 0.61 1.6 2.95 1.82 7.72 0.17 3.76 0.52 7.07 0.78 7.34 0.25 0.27 0.45-2.65 0.44-6.5 0-4.3-0.49-7.49-1.27-8.27-0.7-0.69-1.72-1.24-2.27-1.22-0.55 0.03-0.32 0.44 0.5 0.93zm-66.5 6.68c3.85 3.91 7.23 6.94 7.5 6.73 0.28-0.22-1.52-2.44-4-4.95-2.47-2.51-5.85-5.54-7.5-6.73-1.65-1.19 0.15 1.04 4 4.95zm68.87 18.88c0 5.5 0.17 7.52 0.37 4.5 0.2-3.02 0.2-7.52-0.01-10-0.2-2.48-0.37 0-0.36 5.5zm22.06 22c0 13.75 0.14 19.6 0.32 13 0.17-6.6 0.17-17.85 0-25-0.17-7.15-0.32-1.75-0.32 12zm93.32-22.8c8.16 0.3 8.24 0.32 7.19 2.55-1.02 2.19-1.01 2.2 0.52 0.25 0.87-1.1 1.57-2.34 1.56-2.75-0.01-0.41-3.96-0.66-8.77-0.55l-8.75 0.21zm-172.4 13.79c0 4.95 0.17 7.2 0.38 5 0.21-2.2 0.21-6.25 0.01-9-0.21-2.75-0.38-0.95-0.39 4zm57.08 22.5c0 14.03 0.15 19.88 0.32 13 0.17-6.87 0.17-18.35 0-25.5-0.17-7.15-0.32-1.52-0.32 12.5zm-79 5c0 12.38 0.14 17.33 0.32 11 0.17-6.32 0.17-16.45 0-22.5-0.18-6.05-0.32-0.87-0.32 11.5zm-124.27-8.25c-0.09 5.09 0.18 9.25 0.59 9.26 0.41 0 0.62-2.82 0.47-6.25-0.15-3.44-0.42-7.61-0.59-9.26-0.17-1.65-0.38 1.17-0.47 6.25zm580.84 76.99c2.48 0.21 6.08 0.2 8-0.01 1.92-0.21-0.1-0.39-4.5-0.38-4.4 0-5.97 0.18-3.5 0.39zm-199.03 18.01l-6.47 6.75c10.48-10.07 13.51-13.11 13.51-13.25-0.01-0.13-0.14-0.25-0.29-0.25-0.15 0-3.19 3.04-6.75 6.75zm218.03 25.13c0.83 0.45 3.98 0.5 7 0.11l5.5-0.7c-11.12-0.18-13.38 0.11-12.5 0.59zm25 1.19c4.13 0.4 9.53 0.42 12 0.04 3.1-0.48 0.78-0.71-7.5-0.74-11.13-0.03-11.45 0.02-4.5 0.7zm210.07 65.93c-0.09 1.38 0.42 3.02 1.14 3.64 0.71 0.63 4.21 1.47 7.79 1.86 3.64 0.41 6.13 0.35 5.65-0.13-0.47-0.48-3.61-1.09-6.99-1.37-5.87-0.47-6.17-0.63-6.78-3.5-0.59-2.75-0.66-2.79-0.81-0.5zm-537.74 40.5c0 3.85 0.18 5.2 0.4 3 0.21-2.2 0.21-5.35-0.01-7-0.22-1.65-0.4 0.15-0.39 4zm581.14 60.5c0 34.38 0.13 48.33 0.28 31 0.15-17.32 0.15-45.45 0-62.5-0.15-17.05-0.28-2.87-0.28 31.5zm-448.62 113.75c-0.09 0.42-0.26 1.2-0.39 1.75-0.12 0.55-0.28 3.14-0.34 5.75-0.1 4.06-0.37 4.67-1.87 4.16-1.45-0.49-1.49-0.42-0.25 0.41 0.83 0.56 2.1 0.71 2.84 0.35 0.96-0.48 1.25-2.45 1.04-6.92-0.17-3.43-0.44-6.25-0.59-6.25-0.16 0-0.36 0.34-0.44 0.75z"/>
		<path id="Path 4" class="s4" d="m254.79 138.82c-0.94 0.37 44.83 0.68 101.71 0.68 56.88 0 102.65-0.31 101.71-0.68-0.94-0.37-46.71-0.68-101.71-0.68-55 0-100.77 0.31-101.71 0.68zm-171.35 57.68c0 17.05 0.14 24.25 0.31 16 0.16-8.25 0.17-22.2 0-31-0.17-8.8-0.3-2.05-0.31 15zm65.99 9c0 13.2 0.14 18.38 0.32 11.5 0.17-6.87 0.17-17.68 0-24-0.18-6.32-0.32-0.7-0.32 12.5zm-79.93 49.39c3.63 0.55 4.06 0.94 4.62 4.11l0.62 3.5c0.22-6.28-0.23-7.66-1.24-8-0.82-0.27-2.96-0.44-4.75-0.36-3.06 0.14-3.01 0.18 0.75 0.75zm62.28 101.83l21.22 0.28 0.57 32.5-0.07-33-42.94-0.06zm178.72 41.03c25.85 0.15 68.37 0.15 94.5 0 26.12-0.15 4.97-0.27-47-0.27-51.98 0-73.35 0.12-47.5 0.27zm-190.21 68.75c-0.08 31.9 0.16 58.77 0.53 59.72 0.37 0.94 0.56-19.31 0.42-45-0.14-25.7-0.38-52.57-0.53-59.72-0.15-7.15-0.34 13.1-0.42 45zm222.71-56.75c6.87 0.17 18.57 0.17 26 0 7.42-0.17 1.8-0.31-12.5-0.31-14.3-0.01-20.38 0.13-13.5 0.31zm-12.62 13.25c0 6.87 0.16 9.57 0.36 6 0.19-3.58 0.19-9.2 0-12.5-0.2-3.3-0.36-0.38-0.36 6.5zm-137.57 60.21c-0.33 0.71-0.57 10.06-0.53 20.79l0.06 19.5c0.92-31.78 1.16-41.13 1.13-41.29-0.03-0.16-0.32 0.29-0.66 1zm97.02 8.64c0.17 3.11 0.48 6.1 0.67 6.65 0.19 0.55 0.42-1.79 0.52-5.19 0.1-3.41-0.2-6.4-0.67-6.65-0.47-0.25-0.7 2.09-0.52 5.19zm-0.41 32.15c0 10.72 0.14 15.22 0.32 10 0.18-5.23 0.18-14 0-19.5-0.18-5.5-0.32-1.23-0.32 9.5zm55.96 13c0 6.87 0.16 9.57 0.36 6 0.19-3.58 0.19-9.2 0-12.5-0.2-3.3-0.36-0.38-0.36 6.5zm571.69 133.75c-0.05 6.41-0.45 9.4-1.32 9.75-0.69 0.27-0.58 0.35 0.25 0.17 1.07-0.23 1.75-2.46 2.36-7.75 0.56-4.87 0.5-8.11-0.18-9.42-0.8-1.53-1.06 0.19-1.11 7.25zm-553.07 36.33l-6.5 0.57c12.79 0.27 16.68 0.01 16.9-0.4 0.23-0.41-0.56-0.75-1.75-0.75-1.18 0-5.08 0.26-8.65 0.58zm657.5 96.92c0 35.09 0.33 63.29 0.73 62.65 0.41-0.63 0.79-29.14 0.86-63.34 0.06-34.21-0.27-62.4-0.74-62.66-0.47-0.25-0.85 28.25-0.85 63.35zm-581.04-2.5c0 28.6 0.13 40.07 0.29 25.5 0.15-14.58 0.15-37.98 0-52-0.16-14.03-0.29-2.1-0.29 26.5z"/>
		<path id="Path 5" class="s5" d="m238.47 157.25c-0.27 0.69-0.37 50.53-0.23 110.75l0.26 109.5c0.78-171.66 0.88-221.5 0.73-221.5-0.16 0-0.5 0.56-0.76 1.25zm-156.04 47.25c0 13.2 0.14 18.38 0.32 11.5 0.17-6.88 0.17-17.68 0-24-0.18-6.32-0.32-0.7-0.32 12.5zm-15.79 23.25c-0.25 0.41 1.87 0.62 4.7 0.46 2.84-0.15 6.28-0.42 7.66-0.6 1.37-0.17-0.74-0.38-4.7-0.46-3.96-0.08-7.41 0.19-7.66 0.6zm119.52 28c0.09 0.41-0.1 1.43-0.41 2.25-0.32 0.82-0.84 2.51-1.16 3.75-0.32 1.24-0.14 2.25 0.41 2.25 0.55 0 1-1.35 1-3 0-1.67 0.44-2.78 1-2.5 0.55 0.27 0.89-0.02 0.75-0.66-0.14-0.64 0.87-1.5 2.25-1.9 2.33-0.69 2.28-0.75-0.75-0.84-1.79-0.06-3.18 0.24-3.09 0.65zm-54.66 90.25l-10 0.61c15.47 0.31 19.69-0.02 19.96-0.61 0.26-0.55 0.37-0.91 0.25-0.81-0.11 0.11-4.71 0.47-10.21 0.81zm-11.5 9.75c6.32 0.17 16.9 0.17 23.5 0 6.6-0.18 1.43-0.32-11.5-0.32-12.93 0-18.33 0.14-12 0.32zm196 43c8.52 0.17 22.02 0.17 30 0 7.98-0.17 1-0.31-15.5-0.31-16.5 0-23.02 0.14-14.5 0.31zm84-0.02c2.48 0.21 6.07 0.21 8 0 1.93-0.22-0.1-0.39-4.5-0.39-4.4 0.01-5.98 0.18-3.5 0.39zm21 0c1.93 0.21 5.3 0.21 7.5 0 2.2-0.22 0.62-0.39-3.5-0.39-4.13 0-5.93 0.17-4 0.39zm19.5 0.01c2.75 0.2 7.48 0.2 10.5 0 3.02-0.2 0.77-0.37-5-0.37-5.77 0-8.25 0.17-5.5 0.37zm146 221.33c1.45 0.67 0.9 0.77-2 0.38-2.2-0.3-4.99-0.19-6.19 0.25-1.43 0.52 0.38 0.8 5.27 0.8 6.28 0 7.18-0.2 5.69-1.27-0.97-0.69-2.44-1.22-3.27-1.18-1.03 0.06-0.88 0.38 0.5 1.02zm42.63 11.93c-0.05 0.83 0.23 2.02 0.64 2.67 0.4 0.64 2.08 1.44 3.73 1.79l3 0.63c-5.49-2.61-5.7-2.96-4.25-3.47 0.96-0.34 2.31-0.33 3 0.03 0.69 0.35 0.59 0.03-0.21-0.73-1.17-1.1-1.82-1.12-3.25-0.14-1.49 1.02-1.85 0.93-2.17-0.53q-0.39-1.79-0.49-0.25zm201.64 0.63c-0.32 0.48 2.19 0.72 5.57 0.53 3.39-0.19 7.96 0.15 10.16 0.76 3.22 0.88 3.75 0.85 2.69-0.16-0.76-0.73-4.76-1.41-9.57-1.63-4.55-0.2-8.53 0.02-8.85 0.5zm95.4 35.62l0.17 4.25c0.64-7.24 0.85-7.46 3.41-6.98 2.29 0.42 2.41 0.35 0.75-0.43-1.1-0.52-2.56-0.98-3.25-1.02-0.84-0.05-1.19 1.33-1.08 4.18zm-168.18 29c-0.01 0.69 2.58 3.73 5.75 6.75l5.76 5.5c-8.12-8.52-10.48-11.34-10.49-11.75-0.01-0.41 1-0.91 2.24-1.11 1.85-0.3 1.76-0.39-0.5-0.5-1.6-0.08-2.75 0.38-2.76 1.11zm-394.99 11.48c2.48 0.21 6.08 0.21 8 0 1.93-0.22-0.1-0.39-4.5-0.39-4.4 0.01-5.98 0.18-3.5 0.39z"/>
		<path id="Path 6" class="s6" d="m473.34 164.5c0.01 4.4 0.18 5.97 0.39 3.5 0.21-2.47 0.21-6.07 0-8-0.22-1.93-0.39 0.1-0.39 4.5zm-366.91 17.5c0 13.47 0.14 18.88 0.32 12 0.17-6.88 0.17-17.9 0-24.5-0.18-6.6-0.32-0.97-0.32 12.5zm-24.05-12c0 6.32 0.16 8.8 0.36 5.5 0.2-3.3 0.2-8.47 0-11.5-0.2-3.03-0.36-0.32-0.36 6zm390.56 107c0 37.68 0.24 68.27 0.52 68 0.29-0.27 0.51-30.88 0.49-68-0.01-37.13-0.24-67.72-0.51-68-0.27-0.28-0.5 30.32-0.5 68zm-353.94-48.25c5.78 0.17 14.78 0.17 20-0.01 5.23-0.17 0.5-0.32-10.5-0.32-11 0-15.27 0.15-9.5 0.33zm354.17 135c0.1 7.01 0.32 10.95 0.49 8.75 0.17-2.2 0.43-7.94 0.57-12.75 0.15-4.82-0.07-8.75-0.48-8.75-0.41 0-0.67 5.74-0.58 12.75zm-186.17 34.99c2.48 0.2 6.75 0.2 9.5 0 2.75-0.21 0.73-0.38-4.5-0.38-5.23 0-7.48 0.17-5 0.38zm62 10c3.02 0.2 7.52 0.2 10-0.01 2.48-0.2 0-0.37-5.5-0.36-5.5 0-7.52 0.17-4.5 0.37zm36.39 12.26c0 6.87 0.16 9.57 0.35 6 0.2-3.57 0.2-9.2 0-12.5-0.19-3.3-0.35-0.38-0.35 6.5zm-15.93 81c0 24.48 0.13 34.6 0.29 22.5 0.16-12.1 0.16-32.13 0-44.5-0.16-12.38-0.29-2.48-0.29 22zm89.04-20.26c2.75 0.2 6.8 0.2 9-0.01 2.2-0.21-0.05-0.38-5-0.38-4.95 0.01-6.75 0.18-4 0.39zm-113.17 17.76c0 3.85 0.18 5.2 0.4 3 0.21-2.2 0.21-5.35-0.01-7-0.22-1.65-0.4 0.15-0.39 4zm-78.89 21c0 14.3 0.14 19.92 0.31 12.5 0.17-7.42 0.17-19.13 0-26-0.17-6.88-0.31-0.8-0.31 13.5zm23.9-2.5c0 4.12 0.17 5.92 0.39 4 0.21-1.92 0.21-5.3 0-7.5-0.22-2.2-0.39-0.63-0.39 3.5zm-126.84 45.73c2.2 0.21 6.03 0.21 8.5 0 2.48-0.21 0.68-0.38-4-0.38-4.67 0-6.7 0.17-4.5 0.38zm326.83 316.77c0 3.85 0.18 5.2 0.4 3 0.21-2.2 0.21-5.35-0.01-7-0.22-1.65-0.4 0.15-0.39 4z"/>
		<path id="Path 7" class="s0" d="m655.4 886c0 8.52 0.16 11.9 0.34 7.5 0.19-4.4 0.19-11.38 0-15.5-0.18-4.13-0.34-0.52-0.34 8z"/>
		<path id="Path 8" class="s2" d="m318 164.75c21.18 0.15 56.05 0.15 77.5 0 21.45-0.15 4.13-0.27-38.5-0.27-42.63 0-60.18 0.12-39 0.27zm-213 90c0 0.41 6.64 0.63 14.75 0.49 8.11-0.14 18.13-0.39 22.25-0.55 4.13-0.16-2.51-0.38-14.75-0.49-12.24-0.11-22.25 0.14-22.25 0.55zm371.19 519c-0.1 9.49 0.15 17.43 0.56 17.66 0.41 0.22 0.63-4.84 0.49-11.25-0.15-6.41-0.4-14.36-0.56-17.66-0.16-3.3-0.38 1.76-0.49 11.25z"/>
		<path id="Path 9" class="s3" d="m264.47 236c0 31.07 0.12 43.68 0.28 28 0.15-15.68 0.15-41.1 0-56.5-0.16-15.4-0.28-2.57-0.28 28.5zm184 4.5c0 29.7 0.12 41.63 0.28 26.5 0.16-15.13 0.15-39.43 0-54-0.16-14.57-0.28-2.2-0.28 27.5zm-314.97 21.24c3.3 0.2 8.93 0.2 12.5 0 3.57-0.19 0.88-0.35-6-0.35-6.88 0-9.8 0.16-6.5 0.35zm555 427.18c1.1 0.43 3.58 0.58 5.5 0.33 1.92-0.25 3.69-0.64 3.92-0.85 0.23-0.22-2.25-0.37-5.5-0.33q-5.92 0.07-3.92 0.85zm-120.08 120.58c0 10.45 0.15 14.5 0.33 9 0.18-5.5 0.18-14.05-0.01-19-0.18-4.95-0.32-0.45-0.32 10zm85.8 120.5c-0.11 5.77-0.42 12.08-0.7 14l-0.51 3.5c1.64-5.42 1.96-11.73 1.76-17.5l-0.35-10.5z"/>
		<path id="Path 10" fill-rule="evenodd" class="s4" d="m357 163.14c42.07 0 77.27 0.31 78.21 0.68 0.94 0.37-34.25 0.68-78.21 0.68-43.96 0-79.15-0.31-78.21-0.68 0.94-0.37 36.14-0.68 78.21-0.68zm641 604.12c1.31 0.35 1.5 6.48 1.53 94.24l-0.29-46.5c-0.23-35.23-0.59-46.7-1.52-47.33q-1.3-0.86 0.28-0.41zm-371.5 67.49l5 2.99 0.03 112.76-0.55-112zm28.25 41.25c0.18 4.67 0.18 12.55 0 17.5-0.18 4.95-0.33 1.12-0.33-8.5 0-9.63 0.15-13.68 0.33-9z"/>
		<path id="Path 11" fill-rule="evenodd" class="s5" d="m152.5 255.46l-46.5 0.54-0.12 2.75c-0.08 2.03-0.23 2.23-0.57 0.75-0.24-1.1-0.2-2.56 0.1-3.25 0.41-0.96 5.97-1.2 47.09-0.79zm148.5 55.9c5.23 0 7.25 0.17 4.5 0.38-2.75 0.2-7.02 0.2-9.5 0-2.48-0.21-0.23-0.38 5-0.38zm27 0c5.23 0 7.25 0.17 4.5 0.38-2.75 0.2-7.02 0.2-9.5 0-2.48-0.21-0.23-0.38 5-0.38zm53.5 0.06c10.45 0 14.95 0.14 10 0.32-4.95 0.19-13.5 0.19-19 0.01-5.5-0.18-1.45-0.33 9-0.33zm36.5-0.06c5.23 0 7.25 0.17 4.5 0.38-2.75 0.2-7.02 0.2-9.5 0-2.48-0.21-0.23-0.38 5-0.38zm59.69 447.14c0.16 3.85 0.41 12.92 0.55 20.16 0.14 7.23-0.08 12.97-0.49 12.75-0.41-0.23-0.66-9.3-0.55-20.16 0.11-10.86 0.33-16.6 0.49-12.75zm520.56 10.3c0.41 0.38 0.64 8.58 0.25 35.7l-0.5-18.2c-0.28-10.01-0.16-17.89 0.25-17.5zm0.49 45.7c0.19 4.4 0.19 11.83 0 16.5-0.18 4.67-0.33 1.08-0.33-8 0-9.08 0.15-12.9 0.33-8.5z"/>
		<path id="Path 12" class="s6" d="m265.47 236.5c0 31.35 0.12 43.95 0.28 28 0.15-15.95 0.15-41.6 0-57-0.16-15.4-0.28-2.35-0.28 29zm-146.97 24.25c6.6 0.17 16.95 0.17 23 0 6.05-0.18 0.65-0.32-12-0.32-12.65 0-17.6 0.14-11 0.32zm486.96 618.75c0 23.1 0.13 32.33 0.29 20.5 0.16-11.83 0.16-30.73 0-42-0.16-11.27-0.29-1.6-0.29 21.5zm24.89-8c0 4.95 0.17 7.2 0.38 5 0.21-2.2 0.21-6.25 0.01-9-0.21-2.75-0.38-0.95-0.39 4zm0.01 39.5c0 5.23 0.17 7.25 0.38 4.5 0.2-2.75 0.2-7.02 0-9.5-0.21-2.48-0.38-0.23-0.38 5z"/>
		<path id="Path 13" fill-rule="evenodd" class="s1" d="m421 184l7.5 6.85v93.65l-2.5 2.58c-1.38 1.42-4.07 3.35-6 4.28-3.18 1.55-8.86 1.7-63 1.61-32.73-0.05-59.95-0.47-60.5-0.94-0.55-0.46-1.9-1-3-1.18-1.1-0.19-2.73-1.03-3.61-1.85-0.89-0.82-2.13-2.51-2.75-3.75-0.8-1.58-1.14-15.78-1.14-47.75 0-32.86 0.33-46.13 1.17-47.75 0.65-1.24 1.66-2.74 2.25-3.33 0.6-0.59 1.76-1.34 2.58-1.67 0.82-0.33 30.19-0.63 129-0.75zm-109.5 54.57c0 12.25 0.38 22.64 0.85 23.1 0.47 0.46 3.84 1.01 7.5 1.22 3.66 0.22 7.89 0.11 9.4-0.25l2.75-0.64c0-43.72-0.21-47-1.5-47-0.82 0-1.67-0.56-1.87-1.25-0.29-1-0.79-1-2.5 0-1.17 0.69-3.93 1.25-6.13 1.25-2.2 0-4-0.45-4-1 0-0.55-0.4-1-0.89-1-0.49 0-1.5 0.74-2.25 1.65-1.06 1.29-1.36 6.61-1.36 23.92zm76.5-23.38l-4.5 0.31-0.5 46.5c8.14 0.9 12.3 1.01 14.5 0.83l4-0.33c0.39-8.91 0.95-11.5 1.5-11.5 0.63 0 1.01-6.44 1.03-17.25 0.03-15.26-0.17-17.45-1.75-18.97-0.98-0.95-3.15-1.74-4.83-1.75-1.68-0.02-3.48 0.39-4 0.91-0.52 0.51-2.97 1.07-5.45 1.25zm151 470.95c0.27-0.08 8.6 2.57 18.5 5.88 9.9 3.32 19.35 6.51 21 7.1 1.65 0.58 4.8 1.54 7 2.11 2.2 0.58 4.83 1.78 5.85 2.66 1.51 1.31 1.76 2.56 1.33 6.61-0.29 2.75-0.92 5.23-1.39 5.5-0.47 0.28-2.41 2.98-4.31 6-1.9 3.03-3.81 5.95-4.24 6.5-0.44 0.55-2.21 3.25-3.95 6-1.74 2.75-4.72 7.48-6.63 10.5-1.91 3.03-5.38 8.42-7.71 12-2.33 3.58-5.01 8.08-5.96 10-0.94 1.92-2 5.68-2.35 8.34-0.62 4.65-0.75 4.81-3.39 4.25-1.51-0.33-8.38-3.29-15.25-6.59-6.88-3.3-12.73-6-13-6-0.27 0-7.02-3.15-15-7-13.24-6.39-14.51-7.24-14.66-9.75-0.09-1.51-0.02-5 0.16-7.75 0.28-4.28 1.14-6.08 5.96-12.5 3.1-4.12 7.74-10.42 10.31-14 2.56-3.58 5.03-6.95 5.48-7.5 0.44-0.55 2.37-3.24 4.28-5.98 1.91-2.73 3.92-5.61 4.47-6.4 0.55-0.78 2.6-3.12 4.55-5.2 1.96-2.07 4.66-3.97 6-4.21 1.35-0.24 2.68-0.5 2.95-0.57zm-40.65 84.14c1.87 0.58 3.45 1.43 3.52 1.89 0.07 0.46 0.58 0.83 1.13 0.83 0.55 0 2.24 0.52 3.75 1.17 1.51 0.64 2.98 1.24 3.25 1.33 0.27 0.09 1.85 0.73 3.5 1.41 1.65 0.69 6.71 3.01 11.25 5.17 4.54 2.16 8.59 3.93 9 3.94 0.41 0 4.46 1.8 9 4 4.54 2.19 8.7 3.98 9.25 3.98 0.57 0 1 3 1 7 0 3.85-0.34 7-0.75 7-0.41 0.01-2.33-0.83-4.25-1.85-1.92-1.02-5.19-2.37-7.25-3-2.06-0.63-3.75-1.6-3.75-2.15 0-0.55-0.79-1-1.75-0.99-0.96 0.01-4.79-1.57-8.5-3.5-3.71-1.93-6.98-3.51-7.25-3.51-0.27 0-2.08-0.67-4-1.5-1.92-0.83-3.95-1.5-4.5-1.5-0.55 0-1.11-0.34-1.25-0.76-0.14-0.41-3.4-2.2-14.25-7.19l-0.7-6.1c-0.38-3.36-0.5-6.25-0.27-6.42 0.23-0.17 1.95 0.17 3.82 0.75zm438.15 44.9l3-0.12c1.74-0.07 3.67 0.62 4.6 1.66 0.88 0.98 1.89 2.57 2.25 3.53 0.36 0.96 0.42 2.42 0.15 3.25-0.27 0.83-0.84 1.49-1.25 1.48-0.41-0.01-0.64-1.14-0.5-2.5 0.14-1.36-0.31-3.19-1-4.05-0.69-0.87-2.6-1.95-4.25-2.41zm-2.53 9.07c1.54 2.09 2.87 2.75 5.53 2.75 1.92 0 3.5 0.34 3.5 0.75 0 0.41-1.52 0.75-3.39 0.75-2.01 0-4.26-0.82-5.53-2-1.18-1.1-2.15-2.68-2.15-3.5 0-0.92 0.78-0.44 2.04 1.25zm-36.47 9.92c1.8-0.12 1.93 0.28 1.32 4.1-0.48 2.99-0.28 4.67 0.7 5.73 1.23 1.33 1.56 1.33 2.95 0 0.87-0.83 1.77-1.28 2.01-1 0.24 0.27 0.12 2.2-0.27 4.27-0.59 3.14-1.26 3.94-3.96 4.75-2.82 0.85-3.45 1.68-4.72 6.23-0.8 2.89-1.7 6.71-2 8.5-0.41 2.5-0.13 3.4 1.22 3.89 0.96 0.35 3.44 0.13 5.5-0.5 2.06-0.63 4.38-2.15 5.15-3.39 0.78-1.24 1.72-4.28 2.09-6.75 0.38-2.48 1.55-7.54 2.6-11.25q1.91-6.74 3.41-6.75c0.83 0 1.5-0.45 1.5-1 0-0.55 0.45-0.78 1-0.5 0.55 0.27 1.79 0.09 2.75-0.42 0.96-0.5 5.24-1.63 9.5-2.5 4.26-0.87 8.09-1.69 8.5-1.83 0.41-0.14 0.95-0.03 1.19 0.25 0.24 0.27-0.21 5.76-1 12.19-0.79 6.42-1.21 11.96-0.94 12.29 0.27 0.34 3.65-0.32 7.5-1.46 3.85-1.13 7.34-2.06 7.75-2.04 0.41 0.01 0.3 1.14-0.25 2.52-0.55 1.37-1 3.62-1 5 0 2.03-0.6 2.6-3.25 3.07-1.79 0.32-4.15 0.81-5.25 1.1-1.65 0.43-1.74 0.67-0.5 1.33 1.06 0.58 0.62 0.83-1.5 0.86-1.65 0.02-6.44 0.18-10.64 0.34-5.58 0.22-8.15 0.77-9.5 2.04-1.02 0.95-3.56 2.08-5.63 2.5-2.07 0.42-3.76 0.98-3.75 1.26 0.01 0.27-1.22 0.56-2.73 0.63-1.51 0.07-4.77 0.67-7.25 1.33-2.48 0.65-4.95 1.48-5.5 1.84-0.55 0.35-1.45 0.73-2 0.84-0.55 0.12-2.35 0.52-4 0.89-2.12 0.49-3.51 0.22-4.75-0.92-1.62-1.49-1.95-1.41-4.5 1.17-2.07 2.1-4.47 3.1-9.75 4.08-6.84 1.27-7.05 1.25-9.28-1.03-1.25-1.28-2.29-2.11-2.32-1.83-0.03 0.27-0.26 1.62-0.52 3-0.26 1.37-0.57 2.61-0.68 2.74-0.11 0.13-2.9 0.95-12.2 3.4l-2.8-3.32c-1.53-1.83-3-4.11-3.25-5.07-0.25-0.96-0.79-1.76-1.2-1.77-0.41-0.01-1.54 1.56-2.5 3.5-0.96 1.93-1.75 4.87-1.75 6.52 0 1.84-0.67 3.35-1.75 3.9-0.96 0.5-4.67 1.45-8.25 2.1-3.58 0.65-7.74 1.82-9.25 2.59-1.51 0.78-3.87 1.41-5.25 1.41-1.37 0-3.2-0.79-4.05-1.75-1.46-1.65-1.71-1.56-4.25 1.47-2.21 2.63-3.97 3.48-9.7 4.68-3.85 0.8-9.48 2.16-12.5 3.02-3.02 0.85-6.74 1.56-8.25 1.57-1.51 0-3.42-0.22-4.25-0.49-1.33-0.45-1.33-1.09 0-5.75 0.82-2.89 1.83-8.29 2.25-12.01 0.67-6.06 0.57-6.76-1-6.75-0.96 0-2.65 0.46-3.75 1.01-1.43 0.71-2.16 2.35-2.55 5.75-0.3 2.61-0.92 5.42-1.36 6.25-0.45 0.82-1.43 4.81-2.2 8.86-0.83 4.4-2 7.68-2.89 8.14-0.83 0.42-3.52 1.11-6 1.54-4.44 0.75-4.49 0.73-3.67-1.64 0.45-1.32 1.46-5.55 2.24-9.4 0.78-3.85 1.87-8.91 2.42-11.25 0.56-2.34 1.01-5.15 1.01-6.25 0-1.11-0.67-2-1.5-2-0.83 0-2.62 0.45-4 1-2.01 0.8-2.68 2.03-3.43 6.25-0.52 2.89-1.16 6.6-1.44 8.25-0.27 1.65-1.33 6.37-4.19 18l-4.47 1.31c-2.46 0.72-5.26 1.73-6.22 2.25-1.43 0.77-1.75 0.52-1.73-1.31 0.01-1.24 0.64-5.18 1.39-8.75 0.76-3.58 1.2-6.84 0.98-7.25-0.21-0.41-0.05-0.75 0.36-0.74 0.41 0.01 1.1-2.35 1.52-5.25 0.42-2.89 1.32-7.38 2-9.96 0.68-2.59 1-4.94 0.73-5.22-0.27-0.29-4.1 0.08-8.5 0.82-4.4 0.74-9.12 1.94-10.5 2.67-2.4 1.27-2.47 1.22-1.72-1.13 0.42-1.34 1.02-4.47 1.87-11.44l6.18-1.81c3.39-0.99 8.42-2.47 11.17-3.28 2.75-0.81 7.25-1.87 10-2.36 2.78-0.49 5.44-0.5 6-0.03 0.55 0.47 4.82 1 17.99 1.48l0.53 3c0.51 2.86 0.75 2.99 5.01 2.73 2.46-0.14 5.82-0.48 7.47-0.73 1.65-0.26 3.67-0.05 4.5 0.46 1.3 0.81 1.33 1.83 0.22 7.74-0.71 3.74-1.38 7.59-1.5 8.55-0.12 0.96-0.56 1.75-0.97 1.75-0.41 0-0.75 1.35-0.75 3 0 2.77 0.25 2.98 3.24 2.75 2.32-0.18 3.58-0.96 4.45-2.75 0.66-1.38 1.9-5.43 2.73-9 0.84-3.58 2.1-8.63 2.8-11.24 0.95-3.5 1.93-4.99 3.78-5.69 1.38-0.53 5.2-1.48 8.5-2.13 3.3-0.64 6.45-1.44 7-1.77 0.55-0.34 1.45-0.69 2-0.79 0.55-0.09 2.8-0.52 5-0.96 3.71-0.73 3.94-0.65 3.17 1.14-0.46 1.07-1.47 5.2-2.25 9.19-0.78 3.99-1.42 8.82-1.42 10.75 0 3.29 0.16 3.46 2.75 2.91 1.51-0.32 3.08-1.11 3.49-1.75 0.4-0.64 1-2.74 1.32-4.66 0.33-1.93 1.04-4.85 1.58-6.5 0.55-1.65 1.66-6.38 2.47-10.5 0.82-4.13 1.46-8.29 1.44-9.25-0.03-0.96 0.4-1.75 0.95-1.75 0.55 0 1.23-2.03 1.5-4.5 0.27-2.48 0.84-4.52 1.25-4.55 0.41-0.02 2.65-0.36 4.98-0.75 2.33-0.38 4.23-0.48 4.23-0.2 0 0.27-0.67 4.77-1.48 10-0.82 5.22-1.71 10.96-1.98 12.75-0.28 1.79-0.16 3.23 0.25 3.22 0.41-0.02 2.99-3.21 5.73-7.09 2.75-3.87 5.67-7.2 6.5-7.38 0.84-0.18 3.21-0.59 5.27-0.91 3.38-0.53 3.7-0.4 3.25 1.41-0.27 1.1-0.95 2-1.5 2-0.55 0-1.21 0.79-1.47 1.75-0.26 0.96-2.3 4.22-4.52 7.25-2.23 3.02-4.04 6.51-4.03 7.75 0.01 1.24 1.03 3.4 2.27 4.8 2.2 2.5 2.34 2.52 6 1 2.56-1.06 3.75-2.18 3.75-3.55 0-1.1 0.45-2.9 1-4 0.55-1.1 1.5-5.49 2.11-9.75 0.61-4.26 1.67-8.65 2.34-9.75 0.67-1.1 2.53-2.31 4.13-2.68 1.61-0.38 3.71-0.94 4.67-1.25 1.38-0.45 1.75 0.01 1.74 2.18-0.01 1.51-0.65 4.55-1.43 6.75-0.78 2.2-1.56 6.92-2.06 17l3-0.22c1.75-0.12 3.74-1.17 4.78-2.5 0.98-1.25 2.23-4.53 2.78-7.28 0.54-2.75 1.09-6.35 1.21-8 0.18-2.36-0.15-2.95-1.52-2.75-1.27 0.18-1.75-0.44-1.75-2.25 0-1.38 0.79-3.31 1.75-4.31 0.96-0.99 2.32-2 3.02-2.25 0.7-0.24 1.52-2.24 1.83-4.44 0.31-2.2 1.09-5.01 1.73-6.25 0.64-1.23 2.3-2.4 3.67-2.6 1.38-0.19 3.4-0.41 4.5-0.48zm22.1 23.08c-0.51 5.72-0.37 6.67 0.9 6.25 0.83-0.28 1.5-1.4 1.5-2.5 0-1.1 0.38-2.11 0.85-2.25 0.46-0.14 1.05-2.39 1.3-5 0.29-2.97 0.07-4.75-0.59-4.74-0.58 0.01-1.58 0.35-2.21 0.75-0.63 0.41-1.41 3.78-1.75 7.49zm-117.35 22.73c-1.32-0.01-1.94 1.16-2.51 4.75-0.41 2.62-0.75 6.01-0.75 7.52 0.01 2.44 0.18 2.58 1.51 1.25 0.83-0.83 1.5-2.4 1.5-3.5 0-1.1 0.45-2 1-2 0.55 0 0.93-0.79 0.84-1.75-0.1-0.96 0.12-3.21 0.48-5 0.36-1.79 0.43-3.25 0.16-3.25-0.26 0-0.48 0.45-0.48 1 0 0.55-0.79 0.99-1.75 0.98zm75.88-41.27c0.5 0.74 0.48 2.03-0.06 3.04-0.51 0.96-1.18 2.54-1.5 3.5-0.41 1.27-1.82 1.82-9.66 2.25l0.66-4c0.36-2.2 0.72-4.1 0.79-4.23 0.08-0.13 2.11-0.59 4.52-1.04 3.21-0.6 4.61-0.47 5.25 0.48z"/>
		<path id="Path 14" class="s2" d="m292.5 183.67c-1.61 1.29-1.66 1.48-0.25 0.96 0.96-0.34 30.1-0.63 64.75-0.63 41.33 0 63-0.34 63-1 0-0.66-21.56-0.99-62.75-0.97-56.04 0.03-62.96 0.21-64.75 1.64zm132.46 4.08c1.95 2.06 3.71 3.3 3.92 2.75 0.21-0.55-1.03-2.24-2.75-3.75-1.72-1.51-3.49-2.75-3.92-2.75-0.44 0 0.8 1.69 2.75 3.75zm-140.35 3.5c-0.32 1.24-0.59 21.94-0.6 46-0.01 36.91 0.22 44.22 1.49 46.75 0.82 1.65 1.73 3 2 3 0.27 0-0.18-1.35-1-3-1.28-2.55-1.46-9.56-1.25-47.25 0.14-24.34 0.53-45.04 0.88-46 0.34-0.96 0.28-1.75-0.16-1.75-0.43 0-1.04 1.01-1.36 2.25zm144.39 41.75c0 22 0.34 40 0.75 40 0.41 0 0.91-18 1.1-40 0.25-28.57 0.03-40-0.75-40-0.78 0-1.1 11.64-1.1 40zm0.02 45.25c0.01 3.11 0.27 3.85 0.98 2.75 0.53-0.82 0.98-2.74 0.98-4.25 0.01-1.51-0.43-2.75-0.98-2.75-0.55 0-0.99 1.91-0.98 4.25zm160.23 423.83c1.82 0.61 2.96 1.85 3.38 3.67 0.35 1.51 0.34 4.33 0 6.25-0.59 3.26-0.54 3.36 0.83 1.5 0.81-1.1 1.5-3.35 1.53-5 0.04-1.86-0.8-3.85-2.21-5.23-1.26-1.22-3.18-2.2-4.28-2.17-1.51 0.04-1.33 0.28 0.75 0.98zm-82.96 18.52c-0.98 1.42-2.58 3.45-3.54 4.5-0.96 1.04-1.75 2.24-1.74 2.65 0 0.41-1.35 2.44-3 4.5-1.66 2.06-2.9 3.95-2.76 4.19 0.14 0.24 2.95-3.18 6.25-7.61 3.3-4.43 6.31-8.68 6.7-9.44 0.38-0.77 0.51-1.39 0.29-1.39-0.23 0-1.21 1.17-2.2 2.6zm430.82 100.15c-0.7 1.27-0.51 2.24 0.71 3.53 1.57 1.67 1.57 1.78-0.07 1.75-0.96-0.02-2.14-0.82-2.61-1.78-0.48-0.96-0.67-2.42-0.43-3.25 0.39-1.33 0.33-1.33-0.59 0-0.74 1.07-0.66 2.08 0.29 3.5 0.87 1.31 2.5 2.03 4.71 2.07 1.86 0.04 3.83 0.35 4.38 0.69 0.55 0.33 1.67 0.21 2.5-0.27 0.83-0.48 1.14-1.24 0.69-1.68-0.44-0.45-1.22-0.14-1.73 0.69q-0.93 1.49-0.94 0.25c-0.01-0.69-0.69-1.02-1.52-0.75-0.83 0.28-1.5 0.05-1.5-0.5 0-0.55 0.45-1 1-1 0.55 0 0.72-0.56 0.38-1.25-0.48-0.95-0.83-0.89-1.46 0.25-0.57 1.03-1.2 1.19-1.98 0.5-0.64-0.55-0.88-1.56-0.55-2.25 0.34-0.69 0.96-1 1.38-0.69 0.43 0.31 0.88 0.08 1-0.5 0.13-0.58-0.43-1.06-1.23-1.06-0.8 0-1.9 0.79-2.43 1.75zm-95.66 23.17c-0.52 0.5-1.85 1.12-2.95 1.37-1.1 0.25-0.54 0.29 1.25 0.08 2.97-0.34 3.19-0.18 2.57 1.88-0.49 1.61-0.35 2.04 0.5 1.5 0.65-0.41 1.18-1.87 1.18-3.25 0-1.37-0.36-2.5-0.8-2.5-0.44 0-1.23 0.41-1.75 0.92zm-98.74 23.8c-0.39 0.43 0.08 1.3 1.04 1.94 0.96 0.64 5.65 1.32 10.42 1.5 4.77 0.19 9.01 0 9.42-0.41 0.41-0.41-3.61-0.75-8.92-0.75-7.66 0-9.84-0.32-10.47-1.53-0.44-0.84-1.11-1.18-1.49-0.75zm177.09 5.78c-1.37 1.38-2.23 2.49-1.9 2.48 0.33-0.01 1.67-1.03 2.99-2.25 1.62-1.51 2.5-1.83 2.75-0.98 0.21 0.73 2.02 1.25 4.36 1.25 2.2 0 4-0.45 4-1 0-0.59-1.32-0.74-3.25-0.36-2 0.39-3.54 0.2-4-0.5-0.41-0.63-1.13-1.14-1.6-1.14-0.46 0-1.97 1.13-3.35 2.5zm-206.3 16.15c-2.2 0.78-4.67 1.15-5.5 0.82q-1.53-0.61-0.5 0.45c0.69 0.73 2.77 0.67 6.76-0.19 3.17-0.68 5.75-1.57 5.75-1.98-0.01-0.41-0.57-0.7-1.26-0.63-0.69 0.06-3.05 0.75-5.25 1.53zm8.5 30.55c-0.77 0.66-1.31 2.46-1.2 4 0.14 1.92 0.75 2.81 1.95 2.82 1.36 0.01 1.49-0.27 0.57-1.25-0.74-0.81-0.89-2.28-0.4-4.02 0.43-1.51 0.71-2.75 0.63-2.75-0.08 0-0.78 0.54-1.55 1.2z"/>
		<path id="Path 15" class="s4" d="m285.46 235c0 23.38 0.13 32.82 0.29 21 0.16-11.82 0.16-30.95 0-42.5-0.16-11.55-0.29-1.88-0.29 21.5zm208.15 506.25c-0.32 1.24-0.59 3.94-0.6 6 0 2.06 0.33 3.93 0.74 4.16 0.41 0.22 0.83-2.48 0.92-6 0.09-3.53 0.02-6.41-0.16-6.41-0.17 0-0.58 1.01-0.9 2.25zm-0.59 31.5c0 2.06 0.46 4.42 1.02 5.25 0.72 1.09 0.96 0.06 0.84-3.75-0.09-2.89-0.55-5.25-1.02-5.25-0.47 0-0.85 1.69-0.84 3.75zm439.98 63.28c-1.09 0.66-0.69 0.85 1.46 0.69 2.56-0.19 3.06 0.2 3.64 2.78 0.52 2.35 0.69 2.51 0.78 0.75 0.07-1.24 0.35-2.81 0.63-3.5 0.33-0.8-0.47-1.32-2.25-1.44-1.52-0.11-3.43 0.22-4.26 0.72z"/>
		<path id="Path 16" class="s5" d="m422.5 184.4c1.65 0.73 3.74 2.18 4.65 3.21 0.9 1.04 1.86 2.79 2.13 3.89 0.44 1.81 0.5 1.79 0.6-0.25 0.08-1.43-1.16-3.35-3.38-5.25-1.93-1.65-4.29-2.98-5.25-2.96-1.08 0.02-0.6 0.54 1.25 1.36zm470.5 648.61c-2.8 0.6-2.26 0.72 2.74 0.62 3.43-0.07 6.25-0.47 6.25-0.88 0.01-0.41-1.23-0.69-2.74-0.62-1.51 0.07-4.33 0.47-6.25 0.88zm-56.96 11.35c-5 1.05-5.5 1.4-6 4.27-0.3 1.72-0.2 2.96 0.21 2.75 0.41-0.21 0.75-1.5 0.75-2.88 0-2.27 0.47-2.55 5-3 2.75-0.27 5.21-0.95 5.46-1.5 0.26-0.55 0.37-0.95 0.25-0.89-0.11 0.06-2.67 0.63-5.67 1.25zm40.82 2.18c-0.76 0.87-3.13 1.6-5.36 1.65l-4 0.11c8.93 1.19 9 1.26 9 4.95 0 2.06 0.34 3.75 0.75 3.75 0.41 0 0.75-1.58 0.75-3.5 0-1.92-0.45-3.73-1-4-0.59-0.3-0.34-1.31 0.62-2.5 0.9-1.1 1.4-2 1.12-2-0.29 0-1.13 0.7-1.88 1.54zm-18.42 7.4c-0.52 0.66-0.2 0.86 0.87 0.55 1.34-0.39 1.8 0.35 2.19 3.51 0.27 2.2 0.17 4.56-0.24 5.25-0.43 0.73-0.33 0.99 0.25 0.62 0.54-0.35 1.22-1.99 1.49-3.64 0.27-1.66 0.16-2.84-0.25-2.62-0.41 0.21-0.86-0.59-1-1.78-0.14-1.2-0.76-2.34-1.37-2.55-0.62-0.21-1.49 0.08-1.94 0.66zm-44.44 10.78c-1.38 0.25-2.94 0.83-3.47 1.29-0.53 0.46 0.82 0.43 3-0.06 2.18-0.5 4.76-0.91 5.72-0.93 1.25-0.01 1.61 0.55 1.25 1.98-0.27 1.1-0.05 2 0.5 2 0.55 0 1-1.12 1-2.5 0-2.09-0.45-2.48-2.75-2.36-1.51 0.07-3.87 0.33-5.25 0.58zm-69.2 4.54c0.38 0.42 4.97 0.64 10.2 0.49l9.5-0.26c-15.82-0.77-20.09-0.65-19.7-0.23zm-23.8 2.95c-3.02 0.54-5.8 1.27-6.18 1.63-0.37 0.36 1.96 0.21 5.17-0.34 3.22-0.55 6.19-1.34 6.6-1.75 0.41-0.41 0.56-0.7 0.33-0.63-0.23 0.06-2.9 0.56-5.92 1.09zm129 0.99c-0.77 0.66-1.32 2.12-1.23 3.25 0.09 1.13 0.97 2.86 1.95 3.84 0.98 0.98 2.85 1.66 4.17 1.5 1.31-0.16 3.03-1.41 3.83-2.79l1.44-2.5c-2.84 3.56-4.56 4.58-5.66 4.56-1.1-0.01-2.57-0.6-3.27-1.29-0.69-0.7-1.26-2.17-1.26-3.27 0-1.1 0.54-2.56 1.21-3.25 0.67-0.69 0.99-1.25 0.72-1.25-0.27 0-1.13 0.54-1.9 1.2zm-32.44 9.05c-0.21 0.69-0.65 2.71-0.97 4.5-0.5 2.78-0.3 3.25 1.41 3.25 1.1 0 2.23-0.45 2.5-1 0.28-0.56-0.27-0.77-1.25-0.47-1.52 0.46-1.68 0.01-1.19-3.5 0.31-2.22 0.41-4.03 0.23-4.03-0.19 0-0.51 0.56-0.73 1.25zm61.84 2l-1.9 2.25c4.02-3.6 4.72-3.75 5.73-2.75 0.88 0.87 2.6 1.02 5.64 0.5 2.4-0.41 4.48-0.98 4.62-1.25 0.15-0.27-1.82-0.13-4.36 0.32-3.07 0.54-4.97 0.45-5.63-0.27-0.55-0.59-1.27-1.08-1.6-1.07-0.33 0.01-1.46 1.03-2.5 2.27zm-136.9 33.42c-0.46 0.36-0.76 1.26-0.67 2 0.1 0.77 1.32 1.29 2.92 1.23 1.51-0.05 3.88-0.48 5.25-0.95 1.64-0.56 0.78-0.63-2.5-0.22-4.4 0.55-4.93 0.42-4.38-1.05 0.34-0.93 0.53-1.68 0.42-1.68-0.11 0-0.58 0.3-1.04 0.67z"/>
		<path id="Path 17" class="s2" d="m310 226.5c0 6 0.37 9.32 1 9 0.56-0.28 1-4.5 1-9.5 0-5.33-0.41-9-1-9-0.6 0-1 3.83-1 9.5zm22.33 28c0 3.85 0.18 5.2 0.4 3 0.21-2.2 0.21-5.35-0.01-7-0.22-1.65-0.4 0.15-0.39 4zm-22.33 1c0 3.56 0.53 6.03 1.5 7 0.82 0.82 2.18 1.5 3 1.5 0.82 0 1.5-0.45 1.5-1 0-0.55-0.9-1-2-1-1.78 0-2-0.67-2-6 0-3.33-0.44-6-1-6-0.55 0-1 2.47-1 5.5zm93.18 1c-0.08 2.75-0.69 5.56-1.36 6.25-0.94 0.96-0.94 1.25-0.02 1.25 0.66 0 1.45-1.01 1.76-2.25 0.31-1.24 0.39-4.05 0.17-6.25-0.37-3.73-0.4-3.66-0.55 1z"/>
		<path id="Path 18" class="s4" d="m316 212.74c2.48 0.2 6.75 0.2 9.5 0 2.75-0.21 0.73-0.38-4.5-0.38-5.23 0-7.48 0.17-5 0.38zm66.31 1.71c-1.56 2.2-1.69 4.71-1.27 24.07 0.25 11.89 0.91 22.46 1.46 23.49 0.69 1.28 1-5.95 1-23.32v-25.19l10-1.19c-8.71-0.29-9.74 0.08-11.19 2.14zm-50.37 22.05c0 6.6 0.27 11.77 0.59 11.5 0.32-0.28 0.53-5.45 0.46-11.5-0.06-6.05-0.32-11.23-0.58-11.5-0.26-0.28-0.47 4.9-0.47 11.5z"/>
		<path id="Path 19" class="s5" d="m401.8 256.75l-0.3 5.75-14 1.15c10.81 0.36 13.39 0 14.15-0.86 0.63-0.71 1.3-3.65 1.5-6.54 0.19-2.89 0.03-5.25-0.35-5.25-0.39 0-0.84 2.59-1 5.75zm-77.8 6.25l-6.5 0.65c9.69 0.27 12.71-0.1 12.96-0.65 0.26-0.55 0.37-0.92 0.25-0.83-0.11 0.1-3.14 0.47-6.71 0.83z"/>
	</g>
</svg>