<svg version="1.2" xmlns="http://www.w3.org/2000/svg" viewBox="0 0 900 900" width="900" height="900">
	<style>
		.s0 { fill: #394451 } 
		.s1 { fill: #669fdf } 
	</style>
	<g id="Background">
		<path id="Path 0" fill-rule="evenodd" class="s0" d="m241.75 276.09c158.89-0.09 160.3-0.07 166 1.95 3.16 1.12 7.66 3.6 10 5.5 2.59 2.11 5.32 5.71 9.75 14.96l0.57 140-3.29-4.92c-1.8-2.7-5.53-6.92-13.28-13.83l-0.5-58.3c-0.49-57.47-0.53-58.35-2.62-61.13-1.17-1.55-3.34-3.72-4.82-4.82-2.68-1.98-4.47-2-159.88-2.24-153.02-0.24-157.29-0.19-161.18 1.67-2.2 1.05-4.9 3.19-6 4.74-1.96 2.77-2 4.44-2 158.83l11 0.13c6.05 0.07 66.24 0.18 256.5 0.37l0.63 5.75c0.35 3.16 1.07 6.88 1.59 8.25 0.53 1.38 1.11 3.18 1.29 4 0.18 0.83 2.86 10.27 5.96 21 3.09 10.73 6.53 22.42 7.65 26 1.12 3.58 2.22 7.29 2.46 8.25 0.39 1.62-0.94 1.75-17.33 1.78-9.76 0.01-72.88 0.01-140.25-0.02-72.05-0.02-123.94-0.42-126-0.97-1.93-0.51-5.75-2.44-8.5-4.3-2.75-1.86-6.49-5.59-8.31-8.31-1.81-2.71-3.72-6.51-4.24-8.43-0.57-2.11-0.84-45.08-0.45-212.5l2.3-5c1.26-2.75 3.96-6.73 6-8.83 2.03-2.11 5.49-4.77 7.67-5.91 2.18-1.15 5.11-2.42 6.5-2.83 1.39-0.42 74.64-0.8 162.78-0.84zm-133.88 204.73c-2.53 2.24-3.19 3.64-3.27 6.89-0.07 2.77 0.54 4.8 1.9 6.32 1.1 1.24 3.46 2.86 5.25 3.61 2.16 0.9 7.46 1.36 15.75 1.36 8.29 0 13.59-0.46 15.75-1.36 1.79-0.75 3.97-2.21 4.86-3.25 0.88-1.04 1.87-3.01 2.19-4.39 0.32-1.37 0.02-3.85-0.67-5.5-0.69-1.65-2.35-3.79-3.69-4.76-2.09-1.5-4.77-1.75-18.67-1.75l-16.24 0.01zm82.14 0.11c-2.07 2.12-2.87 3.96-2.93 6.75-0.05 2.18 0.67 4.87 1.67 6.26 0.97 1.34 3.22 3.03 5.01 3.75 2.1 0.85 7.84 1.31 16.25 1.31 8.4 0 14.15-0.46 16.25-1.31 1.78-0.72 4.04-2.41 5-3.75 0.97-1.34 1.76-4.12 1.75-6.19 0-2.82-0.74-4.48-3-6.75l-3-3h-34.16zm80.37 3.58c-0.69 1.65-0.99 4.13-0.67 5.5 0.32 1.38 1.31 3.35 2.19 4.39 0.89 1.04 3.08 2.5 4.86 3.25 2.18 0.91 7.54 1.36 16.25 1.36 9.34 0 13.99-0.42 16.5-1.5 2.1-0.9 4.14-2.8 5.11-4.75 1.02-2.07 1.38-4.43 1-6.5-0.35-1.87-1.88-4.31-3.61-5.75-2.93-2.44-3.39-2.5-19.25-2.51-13.92 0-16.6 0.25-18.69 1.75-1.34 0.97-3 3.11-3.69 4.76zm410.68-203.5h13.97l0.48 31.5 8 0.66c4.4 0.36 11.83 1.56 16.5 2.67 4.68 1.11 12.33 3.41 17 5.12 4.68 1.72 11.88 4.94 16 7.18 4.13 2.23 10.43 5.99 14 8.36 3.58 2.36 10.95 8.51 16.39 13.65 5.44 5.15 12.75 13.19 16.26 17.86 3.5 4.68 8.78 13.23 11.72 19 2.95 5.78 6.95 15.45 8.9 21.5 1.95 6.05 4.06 14.6 4.7 19 0.63 4.4 1.35 9.46 1.59 11.25 0.34 2.53 0.94 3.27 2.69 3.35 1.24 0.05 8.67 0.05 30.75-0.1v15h-33l-0.52 4.75c-0.29 2.61-1.19 8.46-2 13-0.81 4.54-2.81 12.41-4.45 17.5-1.63 5.09-5.06 13.3-7.61 18.25-2.55 4.95-6.95 12.36-9.78 16.46-2.82 4.1-9.19 11.68-14.14 16.86-4.95 5.17-12.15 11.8-16 14.74-3.85 2.94-10.6 7.4-15 9.9-4.4 2.51-11.15 5.88-15 7.48-3.85 1.61-11.05 4.09-16 5.53-4.95 1.43-11.92 3.07-15.5 3.63-3.57 0.56-7.73 1.1-9.25 1.21-1.51 0.1-3.65 0.3-4.75 0.44-1.9 0.24-2 1-2 31.25h-14v-31l-5.25-0.56c-2.88-0.31-9.07-1.19-13.75-1.95-4.67-0.77-12.1-2.58-16.5-4.03-4.4-1.44-12.95-5.03-19-7.98-6.05-2.95-15.5-8.7-21-12.78-5.5-4.08-13.82-11.43-18.5-16.32-4.67-4.9-11.04-12.72-14.14-17.39-3.1-4.67-7.49-12.2-9.75-16.74-2.26-4.54-5.43-12.19-7.04-17-1.61-4.81-3.59-12.12-4.4-16.25-0.81-4.12-1.74-10.09-2.67-19l-14.75-0.01c-8.11-0.01-15.76-0.24-17-0.5-2.04-0.44-2.25-1.07-2.27-12.99l6.26-0.75c3.45-0.42 11.1-0.76 27.76-0.75l0.51-3.75c0.28-2.06 1.2-7.8 2.06-12.75 0.86-4.95 3.05-13.5 4.87-19 1.82-5.5 5.01-13.37 7.09-17.5 2.07-4.12 6.29-11.31 9.37-15.97 3.08-4.65 10.1-13.03 15.6-18.61 5.5-5.58 13.38-12.63 17.5-15.68 4.13-3.04 11.33-7.58 16-10.1 4.68-2.52 12.33-5.97 17-7.68 4.68-1.71 12.33-4 17-5.1 4.68-1.1 12.1-2.3 24.5-3.36zm-28.05 51.4c-4.67 1.34-11.87 3.97-16 5.86-4.12 1.88-10.65 5.35-14.5 7.71-3.85 2.35-10.6 7.32-15 11.04-4.4 3.71-10.73 10.07-14.07 14.12-3.33 4.05-7.44 9.4-9.12 11.87-1.67 2.48-4.91 8.21-7.18 12.75-2.27 4.54-5.22 11.51-6.56 15.5-1.33 3.99-3.11 10.85-3.94 15.25-0.83 4.4-1.76 9.69-2.07 11.75l-0.56 3.75 24.5 0.04c2.67-13.59 4.41-20.46 5.58-24.04 1.18-3.57 3.4-8.97 4.94-12 1.54-3.02 5.03-8.65 7.75-12.5 2.73-3.85 7.65-9.7 10.94-13 3.29-3.3 9.31-8.32 13.39-11.16 4.07-2.84 10.55-6.58 14.4-8.32 3.85-1.74 10.6-4.21 15-5.49 4.4-1.28 10.59-2.59 13.75-2.93l5.75-0.6c0-19.37-0.11-24.96-0.25-24.9-0.14 0.05-4.3 0.72-9.25 1.48-4.95 0.77-12.82 2.49-17.5 3.82zm42.98 19.1c8.15 1.14 13.11 2.15 16.27 2.98 3.16 0.84 9.24 2.85 13.5 4.47 4.26 1.63 11.35 5.27 15.75 8.09 4.4 2.83 11.53 8.59 15.84 12.8 4.31 4.21 9.53 10.14 11.6 13.16 2.06 3.03 4.88 7.53 6.24 10 1.37 2.48 3.92 8.21 5.66 12.75 1.74 4.54 3.84 12.19 4.67 17 0.83 4.81 1.51 8.86 1.5 9 0 0.14 5.5 0.25 12.24 0.24l12.25-0.01c-1.14-10.45-1.98-15.95-2.6-18.98-0.62-3.02-2.26-8.65-3.64-12.5-1.38-3.85-4.08-10.15-6-14-1.93-3.85-5.99-10.82-9.03-15.5-3.08-4.74-9.55-12.48-14.63-17.5-5-4.95-12.92-11.53-17.6-14.63-4.67-3.09-11.65-7.2-15.5-9.13-3.85-1.92-11.27-4.86-16.5-6.52-5.22-1.66-13.1-3.54-17.5-4.18-4.4-0.63-9.09-1.29-10.42-1.46l-2.42-0.3zm-44.47 24.39c-5.5 2.68-12.68 7.06-15.95 9.74-3.27 2.68-8.58 8.02-11.8 11.87-3.21 3.85-7.58 10.37-9.7 14.5-2.12 4.12-4.75 10.42-5.85 14-1.09 3.57-2.26 8.64-2.6 11.25l-0.6 4.75h27v15c-19.76 0.18-25.84 0.18-26.25 0.12-0.41-0.07-0.76 0.89-0.77 2.13-0.01 1.24 1.11 6.19 2.5 11 1.39 4.81 3.93 11.56 5.65 15 1.73 3.44 4.52 8.27 6.2 10.75 1.69 2.47 5.35 6.91 8.12 9.87 2.78 2.95 7.75 7.29 11.05 9.63 3.3 2.34 8.47 5.5 11.5 7.02 3.02 1.52 8.65 3.84 12.5 5.14 3.85 1.31 9.35 2.71 12.23 3.11l5.23 0.73 0.54-26 15 0.23 0.5 25.27c4.26 0.03 9.44-1.1 14.25-2.48 4.81-1.39 11.79-4.05 15.5-5.91 3.71-1.86 9.45-5.41 12.75-7.89 3.3-2.47 8.06-6.69 10.59-9.36 2.52-2.67 6.64-8.01 9.15-11.86 2.51-3.85 5.91-10.38 7.56-14.5 1.65-4.13 3.49-10.2 4.1-13.5 0.61-3.3 1.11-6.56 1.11-7.25-0.01-0.94-3.38-1.25-13.51-1.25h-13.5v-15c25.69 0 27-0.17 27.01-1.75 0.01-0.96-0.9-5.35-2.02-9.75-1.11-4.4-3.63-11.38-5.59-15.5-1.96-4.13-5.49-10.2-7.86-13.5-2.36-3.3-6.72-8.27-9.67-11.05-2.95-2.78-7.62-6.58-10.37-8.45-2.75-1.87-8.6-5.09-13-7.14-4.4-2.06-10.93-4.44-14.5-5.29-3.58-0.85-7.74-1.55-9.25-1.56l-2.75-0.01v26h-16v-26c-4.26 0.12-8.43 0.8-12 1.59-3.58 0.79-11 3.62-16.5 6.3zm-86.72 86.36c0.26 2.89 1.75 10.42 3.33 16.75 2.03 8.16 4.6 14.98 8.86 23.5 3.29 6.6 8.34 15.15 11.22 19 2.87 3.85 8.16 9.93 11.76 13.52 3.6 3.59 9.92 9.06 14.05 12.15 4.12 3.09 11.32 7.67 16 10.19 4.67 2.52 12.32 5.88 17 7.47 4.67 1.59 11.87 3.6 16 4.47 4.12 0.86 9.64 1.82 12.25 2.13l4.75 0.57 0.02-24.5c-12.8-2.09-20.8-4.23-26.02-6.1-5.23-1.88-13.09-5.55-17.47-8.16-5.14-3.06-11.55-8.29-18.06-14.74-6.4-6.34-11.9-12.93-15.03-18-2.71-4.4-6.36-11.83-8.12-16.5-1.76-4.68-4.01-12.67-5.01-17.76l-1.81-9.27-24.18 0.03zm221.57-0.4c-0.3 2.56-1.19 7.35-1.99 10.65-0.79 3.3-2.87 9.6-4.61 14-1.75 4.4-5.74 11.82-8.87 16.5-3.13 4.67-9.22 11.91-13.54 16.07-4.31 4.17-10.76 9.54-14.34 11.95-3.57 2.4-9.65 5.82-13.5 7.59-3.85 1.78-10.37 4.16-14.5 5.3-4.12 1.14-10.09 2.41-13.26 2.83l-5.77 0.76 0.05 24c11.22-1.2 18.08-2.45 22.48-3.55 4.4-1.11 11.6-3.46 16-5.23 4.4-1.78 11.53-5.25 15.84-7.72 4.32-2.48 11.63-7.54 16.25-11.25 4.63-3.71 11.57-10.46 15.44-15 3.86-4.54 9.46-12.3 12.43-17.25 2.97-4.95 7.05-13.28 9.07-18.5 2.01-5.23 4.47-13.1 5.47-17.5 1-4.4 2.08-10.36 2.41-13.25l0.59-5.25-25.1 0.21zm-418.36-70.35c1.93 0.1 5.27 1.04 7.43 2.09 2.15 1.05 5.43 3.7 7.29 5.9 1.85 2.2 3.68 5.68 4.07 7.73 0.39 2.06 0.62 4.08 0.5 4.5-0.12 0.43-3.27 1.27-7 1.88-3.73 0.61-9.26 2.27-12.29 3.69-3.02 1.41-7.63 4.4-10.25 6.64-3.98 3.41-5 3.86-6.32 2.81-0.86-0.68-2.41-3.05-3.43-5.25-1.03-2.2-1.97-6.02-2.09-8.5-0.12-2.5 0.54-6.27 1.5-8.5 0.94-2.2 2.69-5.05 3.9-6.34 1.21-1.29 3.46-3.05 5-3.9 1.54-0.86 4.02-1.87 5.5-2.25 1.48-0.38 4.27-0.6 6.19-0.5zm20 37.8c5.67 0.18 8.7 0.85 12.38 2.72 2.68 1.36 6.25 4.05 7.92 5.97 1.68 1.93 4.3 6.2 5.82 9.5 1.53 3.3 5.91 16.8 9.75 30 3.84 13.2 7.51 26.03 9.33 33l5.15-1.85c3.93-1.41 7.05-1.75 13.15-1.42 5.45 0.29 9.28 1.09 12 2.49 2.2 1.14 6.03 3.85 13 9.99l4.5-2.03c3.31-1.5 6.62-2.04 12.5-2.05 6.45-0.01 9.07 0.47 13.5 2.5 3.03 1.39 7.27 4.06 9.42 5.95 3.83 3.35 4.1 3.42 11.5 3.09 5.79-0.26 8.89 0.15 13.08 1.7 3.03 1.12 7.7 3.97 10.39 6.33 2.69 2.37 5.92 6.1 7.19 8.3 1.28 2.2 5.55 13.45 9.51 25 3.96 11.55 7.8 23.25 8.55 26 0.74 2.75 1.8 8.6 2.35 13 0.56 4.4 1.06 10.48 1.11 13.5 0.06 3.03-0.4 12.03-1.02 20-0.62 7.98-2.07 23.28-3.22 34-1.69 15.79-1.88 20.65-1 25.5 0.6 3.3 2.46 10.5 4.13 16 1.68 5.5 3.04 10.57 3.03 11.25-0.01 0.69-1.33 2.6-2.94 4.25-1.87 1.92-3.94 3.01-5.75 3.02-1.55 0.01-3.61-0.55-4.56-1.25-0.99-0.72-3.25-6.39-5.29-13.27-1.96-6.6-3.9-12.67-4.31-13.5-0.41-0.82-0.87-4.65-1.01-8.5-0.15-3.85 0.45-13.07 1.33-20.5 0.88-7.42 2.22-21.6 2.97-31.5 0.75-9.9 1.24-23.17 1.09-29.5-0.15-6.32-0.65-12.17-1.11-13-0.46-0.82-0.97-2.73-1.14-4.25-0.16-1.51-1.91-7.36-3.89-13-1.98-5.63-5.44-15.65-7.7-22.25q-4.11-12-7.16-15.41c-1.67-1.87-4.51-4.01-6.3-4.75-1.78-0.73-4.6-1.34-6.25-1.34-2.76 0-2.95 0.22-2.36 2.75 0.35 1.52 2.37 8.49 4.5 15.5 2.12 7.02 3.86 12.98 3.86 13.25 0 0.28-3.69 0.39-16.43 0l-4.85-16.5c-2.67-9.07-5.77-17.62-6.89-19-1.13-1.37-3.46-3.5-5.19-4.72-1.72-1.23-4.6-2.47-6.39-2.75-1.78-0.29-4.93-0.08-7 0.47-2.06 0.55-4.31 1.34-5.01 1.75-0.97 0.58-0.21 4.37 3.24 16.25 2.47 8.53 5.17 17.64 7.52 25h-17l-1.46-4.75c-0.8-2.61-3.53-11.95-6.06-20.75-2.78-9.65-5.57-17.29-7.04-19.25-1.34-1.78-3.67-4.01-5.19-4.95-1.51-0.94-4.55-1.89-6.75-2.11-2.33-0.24-5.56 0.27-7.75 1.2-2.06 0.89-4 2.18-4.32 2.86-0.32 0.69 2.38 11.27 6 23.5 3.62 12.24 6.57 22.7 6.57 23.25 0 0.61-3.23 0.91-16.42 0.5l-2.29-7.5c-1.26-4.12-9.11-30.9-17.45-59.5-9.79-33.6-16-53.23-17.54-55.5-1.31-1.92-3.6-4.28-5.09-5.24-1.49-0.96-4.39-1.75-6.46-1.75-2.85 0-4.59 0.77-7.25 3.24-2.51 2.32-3.76 4.55-4.37 7.75-0.66 3.5-0.36 6.4 1.36 13 1.22 4.68 4.34 15.7 6.95 24.5 2.6 8.8 7.43 25.23 10.73 36.5 3.31 11.28 8.48 29.28 11.49 40 3.02 10.73 6.62 22.43 8.01 26 1.39 3.58 4.78 12.8 7.55 20.5 4.6 12.84 4.9 14.21 3.61 16.5-0.77 1.38-2.51 3.06-3.86 3.74-1.96 0.98-3.17 0.98-5.91 0-2.78-1-3.92-2.3-5.88-6.74-1.33-3.02-3.86-9.77-5.62-15-1.76-5.22-4.57-11.52-6.26-14-1.68-2.47-5.54-6.75-8.57-9.5-3.04-2.75-6.13-5.46-6.87-6.03-0.75-0.57-2.93-1.66-4.86-2.41-2.16-0.85-5.22-1.15-8-0.8-3.3 0.42-5.12 1.33-6.84 3.41-1.73 2.09-2.16 3.49-1.64 5.33 0.38 1.38 3.17 5.65 6.2 9.5 3.03 3.85 6.9 9.7 8.6 13 1.69 3.3 3.92 8.25 4.94 11 1.03 2.75 4.22 11.75 7.1 20 2.88 8.25 7 18.15 9.15 22 2.15 3.85 5.94 9.48 8.41 12.5 2.48 3.03 5.87 7.07 7.54 8.98 1.68 1.91 8.89 9.56 16.04 17 7.15 7.44 15.19 16.45 17.87 20.03 2.67 3.57 6 8.74 7.39 11.49 1.39 2.75 3.6 8.15 4.9 12 1.3 3.85 2.35 7.9 2.33 9-0.01 1.1-1.03 3.03-2.26 4.28-1.35 1.38-3.41 2.27-5.23 2.26-1.65-0.01-4.01-0.7-5.25-1.53-1.29-0.87-2.93-3.73-3.87-6.76-0.89-2.88-3.12-8.17-4.96-11.75-1.96-3.81-7.18-10.73-12.63-16.74-5.11-5.63-14.46-15.76-20.79-22.51-6.32-6.75-13.84-15.42-16.7-19.26-2.85-3.84-6.38-9.24-7.84-11.99-1.46-2.75-5.26-12.65-8.46-22-3.2-9.35-7.47-20.6-9.49-25-2.01-4.4-6.81-12.27-10.65-17.5-3.84-5.22-7.45-11.3-8.02-13.5-0.58-2.2-0.76-6.02-0.4-8.5 0.35-2.47 0.71-5.17 0.79-6 0.08-0.82 2.91-4.23 6.28-7.58 3.37-3.35 6.77-6.14 7.56-6.22 0.79-0.07 3.91-0.58 6.93-1.12 3.03-0.54 6.97-0.77 8.75-0.53 1.79 0.25 4.94 1.07 7 1.82 2.07 0.75 4.65 1.75 5.75 2.22 1.73 0.75 1.89 0.59 1.16-1.11-0.46-1.09-1.05-3.1-1.32-4.48-0.27-1.37-0.75-2.95-1.07-3.5-0.32-0.55-0.72-1.9-0.9-3-0.18-1.1-2.37-8.75-4.87-17-2.5-8.25-4.78-16.12-5.06-17.5-0.29-1.37-2.32-8.57-4.52-16-2.2-7.42-5.08-17.1-6.4-21.5-1.32-4.4-3.15-10.7-4.07-14-1.17-4.19-1.56-8.56-1.29-14.5 0.27-5.73 1.03-9.8 2.35-12.5 1.07-2.2 3.98-5.93 6.47-8.3 2.49-2.37 6.32-4.94 8.52-5.72 2.42-0.86 6.97-1.32 11.5-1.17z"/>
		<path id="Path 1" fill-rule="evenodd" class="s1" d="m243.5 275.99c126.95 0.4 162.49 0.78 164.25 1.76 1.24 0.69 2.59 1.23 3 1.21 0.41-0.02-0.6-0.81-2.25-1.75-2.8-1.59-14.01-1.71-165-1.72l-162-0.02zm436.5 20.02v16l-9.01 0.5h9.51l0.5-31.5h14l0.5 31.5h9.51l-9.01-0.5v-32h-16zm-596.9-1.51c-1.87 0.77-3.33 1.66-3.25 1.96 0.08 0.3 1.16-0.02 2.4-0.7 1.76-0.98 36.29-1.36 159.25-1.76l157-0.51c-288.44-0.38-312.51-0.19-315.4 1.01zm319.9 1.75c1.92 1.26 4.29 3.86 5.25 5.78 1.22 2.43 1.73 2.87 1.7 1.48-0.02-1.1-1.71-3.67-3.74-5.71-2.04-2.04-4.38-3.74-5.21-3.78-0.83-0.04 0.08 0.96 2 2.23zm25 73.76c-0.28 38.22-0.39 69.72-0.25 70 0.14 0.27 0.46 0.27 0.73 0 0.26-0.28 0.37-31.78 0.25-70l-0.23-69.5zm-372.62-55.5c0 6.6 0.17 9.07 0.36 5.5 0.2-3.58 0.19-8.98 0-12-0.2-3.03-0.36-0.1-0.36 6.5zm19.11 67.25l0.01 76.75 18 0.11-17.5-0.61-0.52-153.01zm335.75-18.49c-0.22 54.23-0.13 57.78 1.51 58.34 1.41 0.48 1.52 0.33 0.54-0.75-0.92-1.01-1.29-15.43-1.51-58.34l-0.3-57zm-307.24-38.33l-2.84 2.92c-0.22 98.46-0.18 99.72 1.81 102.41 1.12 1.51 3.71 3.21 5.78 3.79 2.54 0.71 36.77 0.95 105.48 0.75l101.73-0.29 6.22-6c0.05-90.52-0.21-100.43-1.31-102.22-0.75-1.22-2.38-2.69-3.62-3.25-1.5-0.69-36.98-1.03-106.32-1.03h-104.08zm115.86 14.73c0.75-0.91 2.1-1.67 3-1.68 0.9 0 2.39 0.56 3.32 1.25 0.92 0.7 5.72 11.85 10.67 24.77 4.95 12.93 9.37 23.61 9.82 23.74 0.46 0.13 1.73-1.59 2.83-3.82 1.1-2.23 2.9-4.26 4-4.52 1.1-0.26 10.99-0.34 41.95 0.1l1.03 2.7c0.84 2.22 0.67 3.07-0.98 4.78-1.88 1.96-3.04 2.08-37 2l-4.5 7.6c-2.48 4.17-5.29 8-6.25 8.51-0.96 0.5-2.65 0.69-3.75 0.41-1.1-0.27-2.42-1.29-2.92-2.25-0.51-0.96-3.85-9.62-7.43-19.25-3.59-9.62-7.24-19.3-8.13-21.5-0.88-2.2-1.78-3.77-1.99-3.5-0.21 0.28-3.06 7.93-6.33 17-3.28 9.08-7.53 21-9.46 26.5-2.91 8.3-3.95 10.17-6.12 11-2.01 0.77-2.96 0.65-4.06-0.5-0.79-0.82-5.52-9.71-10.5-19.75-4.98-10.04-9.4-18.25-9.81-18.25-0.41 0-2.48 4.39-4.59 9.75-2.11 5.36-5.04 12.23-6.5 15.25-2.35 4.86-3.01 5.5-5.66 5.5-2.69 0-3.52-0.85-13-16.59l-10.5 0.05c-7.77 0.04-11.09-0.34-12.75-1.45-1.24-0.83-2.26-2.52-2.27-3.76-0.01-1.24 0.53-2.81 1.2-3.5 0.86-0.88 5.39-1.25 15.52-1.25 12.33 0 14.52 0.24 15.93 1.75 0.9 0.96 2.25 2.99 3 4.5 0.75 1.51 1.71 2.75 2.12 2.74 0.41 0 3.45-6.56 6.75-14.58 4.01-9.74 6.74-15.05 8.25-15.99 1.62-1.02 2.81-1.14 4.25-0.42 1.21 0.61 5.53 8.27 11 19.5 4.95 10.18 9.34 18.33 9.75 18.13 0.41-0.21 1.04-1.45 1.4-2.75 0.35-1.31 3.67-10.93 7.37-21.38 3.69-10.45 7.45-21.29 8.35-24.09 0.89-2.8 2.24-5.83 2.99-6.75zm138.64-10.57c-2.2 1.1-5.04 2.99-6.3 4.21-1.27 1.21-3.17 4-4.24 6.2-1.06 2.2-1.93 6.03-1.93 8.5 0.01 2.48 0.83 6.3 1.83 8.5 1.01 2.2 3.7 5.69 5.98 7.75 2.33 2.1 6.03 4.23 8.41 4.84 2.34 0.6 6.05 0.83 8.25 0.5 2.2-0.32 6.02-1.84 8.5-3.38 3.24-2.01 5.27-4.31 7.26-8.25 1.52-3 2.75-7.03 2.73-8.96-0.01-1.92-0.58-5.24-1.26-7.36-0.68-2.13-2.58-5.47-4.23-7.43-1.65-1.96-4.8-4.37-7-5.36-2.2-0.99-6.25-1.8-9-1.79-2.98 0.01-6.62 0.83-9 2.03zm-302.05 36.41c0 20.9 0.13 29.68 0.3 19.5 0.16-10.17 0.16-27.27 0-38-0.16-10.72-0.3-2.4-0.3 18.5zm728.65-14.49c6.38 6.32 13.06 13.29 14.84 15.49 2.8 3.47 2.92 3.54 0.91 0.5-1.28-1.92-5.71-7.04-9.84-11.37-4.13-4.33-9.76-9.72-12.51-11.99-2.75-2.27 0.22 1.05 6.6 7.37zm-197.62 4.24c-4.79 5.09-9.61 10.6-10.72 12.25-1.1 1.65-0.05 0.75 2.33-2 2.39-2.75 7.47-8.26 11.29-12.25 3.81-3.99 6.68-7.25 6.37-7.25-0.31 0-4.49 4.16-9.27 9.25zm225.15 32c1.48 2.89 3.72 7.73 4.98 10.75 1.27 3.03 2.31 4.83 2.32 4 0.01-0.82-1.99-5.66-4.46-10.75-2.46-5.09-4.71-9.25-5-9.25-0.29 0 0.68 2.36 2.16 5.25zm-756.17 70.75c0 28.33 0.13 39.8 0.29 25.5 0.15-14.3 0.15-37.47 0-51.5-0.16-14.02-0.29-2.32-0.29 26zm332.54-28.99c4.12 0.38 8.4 1 9.5 1.36 1.1 0.36 0.65 0-1-0.81-1.8-0.88-5.6-1.43-9.5-1.36l-6.5 0.1zm126 20.5c0 7.14 0.1 7.49 2.25 7.38 1.59-0.08 1.74-0.23 0.5-0.5-1.45-0.32-1.75-1.5-1.75-6.88v-6.5l8.5-0.65-9.5-0.35zm346.34 0c0 4.4 0.18 5.97 0.39 3.5 0.21-2.48 0.21-6.08-0.01-8-0.21-1.93-0.38 0.1-0.38 4.5zm-502 10c0 4.4 0.18 5.97 0.39 3.5 0.21-2.48 0.21-6.08-0.01-8-0.21-1.93-0.38 0.1-0.38 4.5zm-139.09-0.76l122.75 0.26c0.66 5.23 0.71 5.18 0.85 2.25l0.15-3.25-246.5 0.49zm340.72 45.5c0.02 0.42 1.38 3.45 3.03 6.75 1.65 3.3 3.22 6 3.5 6 0.27 0-0.9-2.81-2.62-6.25-1.72-3.43-3.3-6.47-3.53-6.75-0.22-0.27-0.39-0.16-0.38 0.25zm-108.97 2.67c5.31 0.48 10 1.54 12.5 2.82 2.2 1.13 6.02 3.86 8.5 6.06 4.2 3.74 4.66 3.91 7 2.64 1.37-0.75 2.05-1.37 1.5-1.38-0.55-0.02-1.68 0.38-2.5 0.88-1.1 0.66-2.71-0.17-6-3.12-2.48-2.21-6.3-4.95-8.5-6.09-2.95-1.53-6.23-2.14-12.5-2.32l-8.5-0.25zm-89.5 25.93c0.36 0.84-4.28 1.21-17.25 1.38l-17.75 0.22c27.01 0.47 35.3 0.19 35.9-0.32 0.79-0.66 0.74-1.13-0.15-1.68-0.77-0.47-1.06-0.31-0.75 0.4zm-265 1.9c8.25 0.17 21.97 0.17 30.5 0 8.52-0.17 1.77-0.3-15-0.3-16.78 0-23.75 0.13-15.5 0.3zm62.5 0c9.07 0.16 24.37 0.16 34 0 9.62-0.16 2.2-0.3-16.5-0.3-18.7 0-26.58 0.13-17.5 0.3zm56-0.02c2.47 0.21 6.07 0.21 8 0 1.92-0.22-0.1-0.39-4.5-0.39-4.4 0.01-5.98 0.18-3.5 0.39zm16 0.01c2.47 0.2 6.75 0.2 9.5 0 2.75-0.21 0.72-0.38-4.5-0.38-5.23 0-7.48 0.17-5 0.38zm35.5 0.01c10.45 0.16 27.77 0.16 38.5 0 10.72-0.16 2.17-0.29-19-0.29-21.18 0-29.95 0.13-19.5 0.29zm322 11.25c4.4 4.41 8.22 8.02 8.5 8.02 0.27 0-2.97-3.61-7.21-8.01-4.23-4.41-8.06-8.01-8.5-8.02-0.43 0 2.81 3.6 7.21 8.01zm197.48 0.75l-8.48 8.75c13.57-13.17 17.51-17.11 17.51-17.25-0.01-0.14-0.13-0.25-0.28-0.25-0.15 0-4.09 3.94-8.75 8.75zm-291.5 26c0.5 2.18 0.27 2.26-7.73 2.45l-8.25 0.2c12.04 0.54 15.92 0.33 16.4-0.1 0.49-0.45 0.48-1.67-0.04-2.8-0.82-1.82-0.86-1.79-0.38 0.25zm41.52 1.25c0 0.61-3.34 0.9-8.5 0.75-4.68-0.14-8.51 0.09-8.5 0.5 0 0.41 4.05 0.75 9 0.75 7.33 0 9-0.28 9-1.5 0-0.82-0.23-1.5-0.5-1.5-0.28 0-0.5 0.45-0.5 1zm-101 1.25c0 0.41 3.49 0.68 7.75 0.6 4.26-0.08 6.62-0.29 5.25-0.46-1.38-0.18-4.86-0.45-7.75-0.6-2.89-0.16-5.25 0.05-5.25 0.46zm245.22 27.5l-0.22 16.25h16l-0.45-32.5-0.55 31.5h-14l-0.56-31.5zm-313-1.75c1.99 2.48 4.77 6.53 6.18 9 1.42 2.48 2.6 4.05 2.63 3.5 0.02-0.55-1.73-3.7-3.9-7-2.17-3.3-4.98-6.9-6.24-8-1.26-1.1-0.66 0.03 1.33 2.5zm38.86 23.25c-0.05 0.41 1.05 3.23 2.42 6.25 1.38 3.03 3.4 5.95 4.5 6.5 1.1 0.55 2.56 0.97 3.25 0.92 0.69-0.04 0.01-0.49-1.5-1-2.04-0.68-3.5-2.53-5.67-7.17-1.61-3.44-2.96-5.91-3-5.5zm20.92 79.25c6.33 6.33 11.73 11.51 12 11.51 0.28 0-4.55-5.18-10.72-11.5-6.17-6.33-11.57-11.51-12-11.51-0.43-0.01 4.4 5.17 10.72 11.5zm-9.5 14.5c4.4 4.41 8.23 8.02 8.5 8.02 0.28 0-2.97-3.61-7.2-8.01-4.24-4.41-8.06-8.01-8.5-8.02-0.44 0 2.8 3.6 7.2 8.01zm251-389.96c-1.89 0.51-0.59 0.6 3.5 0.25 3.58-0.31 6.69-0.72 6.92-0.92 0.23-0.2-1.35-0.32-3.5-0.25-2.16 0.06-5.27 0.48-6.92 0.92zm11.72 11.21l-0.22 12.75-6.5 0.68c5.04 0.25 6.74-0.24 7.02-0.93 0.29-0.69 0.39-6.65 0.22-13.25l-0.31-12zm15.24 0.49l0.05 12.74c8.52 1.2 11.45 1.37 12 1.16 0.55-0.22-1.81-0.79-5.24-1.27l-6.24-0.87-0.61-24.5zm-97.99 25.51c-2.59 2.89-6.08 7.05-7.76 9.25-1.68 2.2-2.36 3.33-1.51 2.5 0.84-0.82 4.52-4.99 8.17-9.25 3.65-4.26 6.45-7.75 6.22-7.75-0.22 0-2.53 2.36-5.12 5.25zm79.78 2.4l2.75 0.35v26h16v-26c5.24-0.66 5.19-0.71 2.25-0.85l-3.25-0.15v26h-14v-26c-6.18 0.29-6.23 0.34-3.75 0.65zm68.25 2.51c1.65 1.25 7.73 7 13.5 12.79 5.78 5.78 9.52 9.17 8.33 7.53-1.2-1.64-5.7-6.4-10-10.58-4.31-4.18-9.4-8.59-11.33-9.8l-3.5-2.21zm-96.94 5.91c-3.26 1.63-5.85 3.18-5.75 3.45 0.11 0.27 3-0.92 6.44-2.64 3.44-1.71 6.44-3.29 6.67-3.5 0.23-0.21 0-0.36-0.5-0.33-0.51 0.03-3.59 1.38-6.86 3.02zm78 0.71c3.88 2.05 8.83 4.99 11 6.55l3.94 2.82c-5.42-4.79-10.04-7.75-13.75-9.66-3.71-1.92-7.09-3.47-7.5-3.46-0.41 0.01 2.43 1.7 6.31 3.75zm-150.55 19.22c-1.65 3.3-2.9 6.21-2.76 6.46 0.14 0.26 1.67-2.44 3.39-6 1.73-3.55 2.98-6.46 2.77-6.46-0.21 0-1.74 2.7-3.4 6zm23 10c-1.65 3.3-2.9 6.21-2.76 6.46 0.14 0.26 1.67-2.44 3.39-6 1.73-3.55 2.98-6.46 2.77-6.46-0.21 0-1.74 2.7-3.4 6zm145.19 43.75l0.2 7.75 0.6-14.5 15.5-0.59-16.5-0.41zm-171.22 46.5c0.01 0.42 1.37 3.45 3.02 6.75 1.65 3.3 3.23 6 3.5 6 0.28 0-0.9-2.81-2.61-6.25-1.72-3.43-3.31-6.47-3.53-6.75-0.23-0.27-0.4-0.16-0.38 0.25zm107.52 9.42c-0.45 0.37-0.75 6.22-0.66 13l0.16 12.33c-5.23 0.67-5.18 0.72-2.25 0.85l3.25 0.15v-26l8.5-0.65c-6.33-0.27-8.54-0.05-9 0.32zm14.72 13.08l-0.22 13.25c6.19-0.28 6.24-0.33 3.75-0.65l-2.75-0.35-0.56-25.5zm62.26-0.5l-7.98 8.25c12.8-12.4 16.51-16.11 16.51-16.25-0.01-0.13-0.13-0.25-0.28-0.25-0.15 0-3.87 3.72-8.25 8.25zm-141.98-2.4c2.75 2.93 7.25 7.16 10 9.41 2.75 2.25 4.1 3.2 3 2.11-1.1-1.09-5.6-5.33-10-9.41-5.61-5.2-6.5-5.83-3-2.11zm61.34 30.79l3.16 0.36 0.5 26.01v-26.51c-6.66-0.22-6.67-0.21-3.66 0.14zm18.67 0.67c-0.24 0.72-0.33 6.68-0.19 13.25l0.25 11.94 0.43-25.5 7.5-0.66c-6.12-0.27-7.72 0.16-7.99 0.97zm-21.04-126.39c-3.28 1.61-7.8 4.87-10.04 7.25-2.3 2.46-5.05 6.93-6.35 10.33-1.82 4.79-2.19 7.32-1.8 12.5 0.27 3.58 1.36 8.53 2.42 11 1.06 2.48 3.7 6.45 5.86 8.84 2.17 2.38 6.64 5.65 9.94 7.27 5.05 2.47 7.2 2.93 13.5 2.9 5.67-0.02 8.72-0.59 12.5-2.33 2.75-1.27 6.97-4.08 9.37-6.24 2.41-2.17 5.56-6.19 7-8.94 2.25-4.31 2.61-6.23 2.61-14 0.01-7.39-0.39-9.75-2.24-13.25-1.23-2.33-3.93-6.08-5.99-8.33-2.06-2.25-6.45-5.4-9.75-7.02-5.04-2.47-7.2-2.93-13.53-2.92-6.26 0.02-8.52 0.51-13.5 2.94z"/>
	</g>
</svg>