<svg version="1.2" xmlns="http://www.w3.org/2000/svg" viewBox="0 0 2040 2040" width="2040" height="2040">
	<style>
		.s0 { opacity: .92;fill: #3c92d7 } 
		.s1 { opacity: .99;fill: #2b3b4e } 
	</style>
	<g id="Background">
		<path id="Path 0" class="s0" d="m490.13 852.5c-0.62 1.38-1.13 6.89-1.13 12.25 0.01 9.01-0.18 9.96-2.5 12.5-2.13 2.34-2.5 3.71-2.5 9.25 0 3.58-0.45 6.73-1 7-0.55 0.27-0.67 1.29-0.27 2.25 0.52 1.24 0.37 1.53-0.5 1-0.72-0.44-1.44-0.13-1.73 0.75-0.27 0.83-0.05 1.73 0.5 2 0.55 0.27 0.77 1.96 0.49 3.75-0.28 1.79-1.18 4.26-2 5.5-1.08 1.63-1.49 5.13-1.49 12.75 0 6.33-0.4 10.5-1 10.5-0.58 0-0.85 2.02-0.65 4.75 0.2 2.61 0.01 5.65-0.42 6.75-0.42 1.1-1.09 2.9-1.48 4-0.39 1.1-0.99 3.35-1.33 5-0.34 1.65-0.62 27.64-0.62 57.75 0 30.11 0.17 56.21 0.39 58 0.21 1.79 0.76 3.7 1.22 4.25 0.47 0.55 1.08 2.46 1.37 4.25 0.29 1.85 0.09 3.25-0.48 3.25-0.55 0-1 0.45-1 1 0 0.55 0.56 0.89 1.25 0.75 0.89-0.18 1.18 1.13 1 4.5-0.14 2.61 0.09 4.75 0.5 4.75 0.41 0 0.9 2.81 1.09 6.25 0.18 3.44 0.41 9.32 0.5 13.07 0.13 5.37 0.53 7.02 1.91 7.75 0.96 0.51 1.75 1.38 1.75 1.93 0 0.55-0.79 1.01-1.75 1.03-1.54 0.03-1.5 0.24 0.34 1.75 1.15 0.95 2.38 2.62 2.74 3.72 0.55 1.66 1.54 2 5.91 2 4.14 0 5.79-0.5 7.76-2.35 1.38-1.29 5.43-3.71 9-5.38 3.57-1.68 7.4-3.01 8.5-2.96 1.1 0.04 3.46-0.8 5.25-1.87 1.79-1.07 3.7-1.72 4.25-1.44 0.55 0.28 1-0.17 1-1 0-0.83 0.56-1.55 1.25-1.61 0.69-0.05 2.49-0.05 4 0 1.8 0.07 3.53-0.78 5-2.47 1.24-1.41 2.81-2.31 3.5-2 0.69 0.32 1.48-0.09 1.75-0.92 0.31-0.93 1.17-1.27 2.25-0.89 1.03 0.35 3.39-0.45 5.75-1.95 2.2-1.41 5.35-2.81 7-3.13 1.65-0.31 3.45-1.01 4-1.54 0.55-0.54 1.33-0.64 1.74-0.23 0.41 0.41 0.97-0.05 1.25-1.01 0.29-1.01 1.14-1.54 2.01-1.25 0.83 0.28 1.5 0.05 1.5-0.5 0-0.55 0.67-0.78 1.5-0.5 0.83 0.28 1.5 0.05 1.5-0.5 0-0.55 1.01-0.89 2.25-0.75 1.36 0.15 2.94-0.63 4-2 1.34-1.72 2.74-2.24 6-2.21 2.63 0.03 4.82-0.56 5.75-1.53 0.83-0.88 2.29-1.35 3.25-1.05 1.13 0.35 1.75 0.01 1.75-0.96 0-0.87 1.57-1.96 3.75-2.6 2.06-0.61 4.76-0.83 6-0.5 1.24 0.33 2.24 0.26 2.22-0.15-0.02-0.41 2.23-1.99 5-3.5 2.77-1.51 5.37-2.54 5.78-2.29 0.41 0.25 2.44-0.65 4.5-2 2.06-1.35 3.86-2.43 4-2.39 0.14 0.04 1.6-0.42 3.25-1.02 1.65-0.6 4.13-1.59 5.5-2.19 1.38-0.61 3.63-1.69 5-2.41 1.38-0.72 4.41-1.45 6.75-1.63 2.34-0.18 4.25-0.66 4.25-1.07 0-0.41 0.71-1.42 1.57-2.25 0.87-0.83 2.55-1.49 3.75-1.49 1.2 0.01 5.44-1.56 9.43-3.5 3.99-1.93 7.81-3.52 8.5-3.54 0.69-0.02 2.83-1 4.75-2.19 1.92-1.19 5.08-2.56 7-3.05 1.92-0.48 4.29-0.85 5.25-0.81 0.96 0.05 1.75-0.59 1.75-1.42 0-1.17 0.44-1.28 2-0.5q2 1 2 0c0-0.55 1.35-1.67 3-2.5 1.65-0.83 3.45-1.28 4-1 0.55 0.28 2.13-0.74 3.51-2.25 1.38-1.51 2.84-2.43 3.25-2.05 0.41 0.39 1.87 0.25 3.24-0.3 1.38-0.56 3.85-1.18 5.5-1.38 1.65-0.2 3.45-1 4-1.79 0.55-0.79 2.13-1.78 3.5-2.2 1.38-0.43 3.13-1.28 3.91-1.9 0.77-0.62 2.35-1.21 3.5-1.31 1.15-0.09 3.22-0.4 4.59-0.68 1.38-0.28 3.63-0.65 5-0.82 1.38-0.18 3.17-1.09 4-2.03 0.83-0.94 1.95-1.71 2.5-1.7 0.55 0 1.67-0.72 2.5-1.6 0.83-0.88 2.06-1.35 2.75-1.05 0.69 0.31 1.36 0.09 1.5-0.48 0.14-0.57 1.38-1.16 2.75-1.32 1.38-0.15 3.51-0.81 4.75-1.46 1.24-0.65 2.92-1.18 3.75-1.18 0.83 0 1.27-0.45 1-1-0.27-0.55 0.85-1.45 2.5-2 1.65-0.55 3.45-0.77 4-0.5 0.55 0.27 1-0.17 1-1 0-0.83 0.34-1.3 0.75-1.05 0.41 0.24 2.1-0.22 3.75-1.04 1.65-0.82 3.56-1.25 4.25-0.95 0.69 0.3 1.26-0.02 1.28-0.71 0.02-0.69 1.14-2.04 2.5-3 1.36-0.96 3.7-1.64 5.19-1.5q2.73 0.25 5.75-2.52c1.67-1.52 3.59-2.53 4.28-2.25 0.69 0.29 2.04-0.19 3-1.05 0.96-0.87 2.31-1.32 3-1 0.69 0.31 1.81-0.13 2.5-0.97 0.69-0.85 2.04-1.53 3-1.5 0.96 0.02 1.52-0.41 1.25-0.96-0.27-0.55 0.51-1.23 1.75-1.51 1.24-0.27 3.6-1.7 5.25-3.16 2.76-2.45 3.03-3.28 3.34-10.25 0.19-4.17 0.1-8.93-0.2-10.58-0.4-2.16-1.48-3.42-3.85-4.49-1.81-0.82-3.63-1.38-4.04-1.25-0.41 0.13-2.44-0.96-4.5-2.43-2.06-1.47-5.55-2.88-7.75-3.14-2.2-0.25-4.79-0.85-5.75-1.33-0.96-0.47-1.75-1.53-1.75-2.36 0-0.83-0.79-1.48-1.75-1.47-0.96 0.02-2.87-0.14-4.25-0.37-1.37-0.22-3.74-0.46-5.25-0.53-1.51-0.07-3.42-0.8-4.25-1.63-0.83-0.83-4.76-2.39-8.75-3.49-3.99-1.09-8.09-2.78-9.11-3.75-1.02-0.97-3.5-1.82-5.5-1.9-2-0.08-6.34-1.6-9.64-3.36-4.02-2.16-6.74-3.02-8.25-2.61-1.27 0.35-3.33-0.04-4.75-0.89-1.37-0.83-2.95-1.27-3.5-1-0.55 0.27-0.77-0.06-0.5-0.75 0.31-0.76-0.38-1.3-1.75-1.37-1.24-0.06-4.95-0.67-8.25-1.35-3.3-0.68-7.12-2.02-8.5-2.98-1.37-0.96-3.85-2.24-5.5-2.84-1.65-0.6-3.34-0.89-3.75-0.65-0.41 0.24-3.34-0.98-6.5-2.72-3.55-1.95-6.99-3.1-9-3-2.29 0.11-3.62-0.43-4.5-1.85-0.82-1.33-2.79-2.23-5.75-2.64-2.48-0.34-5.4-1.1-6.5-1.68-1.1-0.58-2.81-1.76-3.79-2.61-0.99-0.86-3.92-1.71-6.5-1.9-2.59-0.18-4.94-0.72-5.21-1.18-0.27-0.47-2.19-1.56-4.25-2.42-2.06-0.86-4.87-1.56-6.25-1.56-1.37 0-3.74-0.54-5.25-1.21-1.51-0.67-3.87-2.03-5.25-3.03-1.58-1.16-4.16-1.81-7-1.78-3.55 0.04-5.45-0.64-8.97-3.21-2.46-1.8-4.6-3.16-4.75-3.02-0.16 0.14-1.74 0.27-3.53 0.28-2.13 0.03-4.29-0.88-6.25-2.61-1.8-1.59-4.2-2.65-6-2.66-1.65-0.01-3.45-0.33-4-0.71-0.55-0.39-2.01-0.78-3.25-0.87-1.24-0.1-3.37-0.85-4.75-1.68-1.37-0.83-2.5-1.95-2.5-2.5 0-0.58-1.17-0.73-2.75-0.37-1.61 0.37-3.06 0.16-3.5-0.5-0.41-0.62-1.87-0.9-3.25-0.63-1.37 0.27-2.5 0.05-2.5-0.5 0-0.55-1.24-1.48-2.75-2.06-1.51-0.59-5.23-1.3-8.25-1.6-3.06-0.3-6.29-1.27-7.28-2.19-0.98-0.91-1.75-2.32-1.71-3.15 0.06-1.14-0.24-1.23-1.22-0.39-0.82 0.71-3.29 0.88-6.79 0.47-3.42-0.4-6.64-1.51-8.5-2.93-1.77-1.36-5.16-2.58-8.27-2.98-3.66-0.46-5.12-1.05-4.75-1.92 0.28-0.69-0.04-1.18-0.73-1.09-0.69 0.09-2.6-0.39-4.25-1.05-1.65-0.67-4.58-1.26-6.5-1.32-1.93-0.05-5.75-1.37-8.5-2.92-2.75-1.56-6.41-2.84-8.12-2.85-2.38-0.02-3.4 0.58-4.25 2.48z"/>
		<path id="Path 1" fill-rule="evenodd" class="s1" d="m1164.73 158.98c0.97-0.01 4.58 1.34 8.02 3 3.44 1.66 6.47 3.47 6.75 4.02 0.28 0.55 2.19 1.91 4.25 3.02 2.06 1.11 5.78 3.58 8.25 5.49 2.47 1.92 6.23 4.72 8.35 6.24 2.12 1.51 5.05 3.43 6.52 4.25 1.47 0.82 4.68 3.14 7.15 5.15 2.46 2 7.67 5.83 11.56 8.5 3.89 2.67 9.82 6.88 13.18 9.35 3.35 2.48 7.37 5.28 8.92 6.23 1.55 0.95 4.85 3.3 7.32 5.23 2.47 1.93 6.3 4.47 8.5 5.66 2.2 1.18 6.53 4.23 9.62 6.77 3.09 2.53 8.27 6.3 11.5 8.36 3.24 2.06 7.91 5.31 10.38 7.21 2.47 1.9 7.2 5.35 10.5 7.65 3.3 2.31 8.47 6.31 11.5 8.9 3.03 2.59 7.08 5.51 9 6.48 1.92 0.98 7.1 4.82 11.5 8.53 4.4 3.72 9.69 7.48 11.75 8.37 2.68 1.15 3.92 2.39 4.33 4.36 0.37 1.76 0.05 3.29-0.9 4.25-0.82 0.82-3.67 1.82-6.33 2.22-2.67 0.39-6.09 1.63-7.6 2.75-1.51 1.11-5.34 2.56-8.5 3.21-3.16 0.64-7.78 2.23-10.25 3.52-2.47 1.29-5.4 2.33-6.5 2.3-1.1-0.03-4.03 1.02-6.5 2.33-2.47 1.31-6.97 2.73-10 3.15-3.03 0.41-7.3 1.82-9.5 3.12-2.2 1.29-5.58 2.36-7.5 2.37-2.03 0.01-4.97 1.03-7 2.42-1.92 1.31-5.3 2.71-7.5 3.11-2.2 0.39-5.58 1.75-7.5 3.02-1.92 1.26-5.3 2.56-7.5 2.88-2.2 0.32-5.24 1.49-6.75 2.59-1.51 1.11-5 2.46-7.75 3.01-2.75 0.55-6.24 1.92-7.75 3.03-1.51 1.12-4.78 2.27-7.25 2.55-2.48 0.28-6.07 1.61-8 2.98-1.92 1.36-4.85 2.48-6.5 2.49-1.65 0-5.25 1.3-8 2.87-2.75 1.58-6.35 3.13-8 3.46-1.65 0.32-3.9 1.49-5 2.58-1.1 1.1-4.03 2.3-6.5 2.66-2.47 0.36-6.08 1.74-8 3.05-1.92 1.32-4.85 2.36-6.5 2.33-1.65-0.03-4.58 1.01-6.5 2.31-1.92 1.3-5.41 2.67-7.75 3.03-2.34 0.36-4.47 1.11-4.75 1.66-0.28 0.55-1.17 1-2 1-0.93 0-1.5-0.94-1.5-2.5 0-1.37 0.45-3.62 1-5 0.55-1.37 2.32-4.19 3.94-6.25 1.61-2.06 3.63-5.77 4.49-8.25 0.85-2.48 2.23-4.84 3.06-5.25 0.83-0.41 1.5-1.76 1.48-3-0.02-1.24 1.03-3.82 2.32-5.75 1.3-1.93 2.65-5.07 3-7 0.35-1.93 2-6.09 3.67-9.25 1.67-3.16 3.05-6.54 3.07-7.5 0.02-0.96-0.77-2.56-1.75-3.54-1.62-1.62-3.29-1.73-18.28-1.2-9.08 0.32-28.2 0.75-42.5 0.96-22.41 0.33-27.04 0.67-33.5 2.45-4.66 1.29-12.23 2.3-20 2.68-8.76 0.43-14.74 1.3-20 2.91-4.38 1.34-11.87 2.6-18 3.02-7.03 0.49-11.74 1.35-14.25 2.6-2.22 1.11-7.12 2.13-12 2.51-5.45 0.42-9.78 1.4-12.75 2.87-2.63 1.3-7.62 2.53-12 2.97-4.93 0.49-8.36 1.4-10 2.66-1.38 1.05-5.2 2.3-8.5 2.77-3.3 0.48-7.8 1.81-10 2.96-2.2 1.15-6.25 2.37-9 2.72-2.75 0.35-6.58 1.64-8.5 2.86-1.92 1.23-5.52 2.52-8 2.87-2.48 0.35-5.4 1.55-6.5 2.65-1.11 1.12-4.21 2.37-7 2.82-2.75 0.45-6.35 1.76-8 2.91-1.65 1.15-5.14 2.37-7.75 2.7-2.61 0.33-5.99 1.53-7.5 2.67-1.51 1.13-4.72 2.59-7.12 3.25-2.41 0.65-4.89 1.76-5.5 2.48-0.62 0.71-3.38 2.01-6.13 2.88-2.75 0.87-5.67 2.2-6.5 2.95-0.83 0.76-3.52 1.87-6 2.46-2.48 0.59-5.74 2.17-7.25 3.49-1.51 1.33-3.99 2.42-5.5 2.42-1.51-0.01-4.44 1.12-6.5 2.5-2.06 1.37-4.09 2.49-4.5 2.47-0.41-0.01-2.77 1.33-5.25 2.98-2.48 1.66-5.17 3.01-6 3-0.83-0.01-3.3 1.36-5.5 3.05-2.2 1.69-4.45 3.04-5 3.01-0.55-0.04-3.02 1.29-5.5 2.94-2.48 1.66-5.06 3.02-5.75 3.03-0.69 0.01-2.6 1.03-4.26 2.27-1.65 1.24-4.8 3.71-7 5.5-2.19 1.79-5 3.27-6.24 3.29-1.24 0.02-3.67 1.26-5.42 2.75-1.74 1.49-5.11 3.93-7.5 5.43-2.38 1.49-4.78 2.71-5.33 2.71-0.55 0-2.8 1.38-5 3.07-2.2 1.69-4.67 3.03-5.5 2.99-0.83-0.04-2.17 0.67-3 1.57-0.83 0.91-4.09 3.41-7.25 5.55-3.16 2.14-6.2 3.89-6.75 3.89-0.55 0-2.46 1.26-4.25 2.79-1.79 1.54-4.56 3.68-6.15 4.75-1.6 1.08-4.3 2.8-6 3.82-1.71 1.02-7.04 5.18-11.85 9.25-4.81 4.06-9.2 7.39-9.75 7.39-0.55 0-4.26 2.79-8.25 6.21-3.99 3.41-10.63 9.3-14.75 13.08-4.13 3.79-9.08 7.7-11 8.71-1.92 1-6.2 4.39-9.5 7.54-3.3 3.14-13.84 13.42-23.43 22.84-9.59 9.42-20.62 20.5-24.5 24.63-3.89 4.12-9.83 11.1-13.2 15.5-3.38 4.39-9.23 11.42-13 15.61-3.78 4.2-9.57 11.12-12.87 15.39-3.3 4.28-8.48 10.86-11.5 14.64-3.02 3.77-7.33 9.22-9.58 12.11-2.24 2.88-4.93 6.59-5.98 8.24-1.04 1.65-3.96 5.48-6.48 8.5-2.52 3.02-4.95 6.63-5.39 8-0.44 1.38-1.63 3.4-2.65 4.5-1.02 1.1-2.76 3.69-3.88 5.75-1.12 2.06-2.96 5.44-4.08 7.5-1.12 2.06-2.86 4.65-3.86 5.75-1.01 1.1-2.12 3.24-2.47 4.75-0.35 1.51-1.76 4.1-3.13 5.75-1.38 1.65-2.49 3.34-2.47 3.75 0.02 0.41-1.03 2.33-2.33 4.25-1.3 1.92-2.71 4.63-3.15 6-0.43 1.38-1.85 3.96-3.17 5.75-1.31 1.79-2.36 3.59-2.35 4 0.02 0.41-1.34 2.55-3.03 4.75-1.69 2.2-3.05 4.79-3.03 5.75 0.01 0.96-1.06 2.76-2.39 4-1.33 1.24-2.9 4.27-3.49 6.75-0.59 2.48-1.96 5.4-3.06 6.5-1.09 1.1-2.01 2.9-2.03 4-0.02 1.1-1.39 4.02-3.05 6.5-1.65 2.48-2.98 5.4-2.94 6.5 0.03 1.1-0.89 2.9-2.04 4-1.15 1.1-2.59 3.8-3.2 6-0.61 2.2-1.91 4.9-2.88 6-0.97 1.1-2.26 4.25-2.86 7-0.61 2.75-1.98 6.24-3.06 7.75-1.09 1.51-2.32 4.66-2.76 7-0.43 2.34-1.79 5.6-3.02 7.25-1.23 1.65-2.46 4.8-2.74 7-0.28 2.2-1.63 5.58-3 7.5-1.36 1.92-2.48 4.63-2.48 6 0 1.38-0.92 4.52-2.06 7-1.13 2.48-2.47 5.29-2.98 6.25-0.51 0.96-0.93 3.77-0.93 6.25 0 3.18-0.7 5.46-2.39 7.75-1.65 2.24-2.62 5.27-3.1 9.75-0.38 3.58-1.59 8.08-2.69 10-1.37 2.4-2.17 6.16-2.55 12-0.4 6.19-1.16 9.58-2.79 12.5-1.81 3.21-2.37 6.21-2.86 15.25-0.52 9.49-0.97 11.73-2.87 14.33-2.01 2.76-2.3 4.58-2.75 17.34-0.37 10.63-0.88 14.73-2 16.08-0.83 1-1.62 3.2-1.77 4.91-0.15 1.7-0.64 7.14-1.1 12.09-0.46 4.95-0.9 30.15-0.96 56-0.07 25.85 0.31 51.72 0.83 57.5 0.59 6.35 1.51 11.09 2.35 12 0.85 0.92 1.67 5.2 2.12 11 0.4 5.22 0.83 12.65 0.96 16.5 0.12 3.85 0.3 9.59 0.4 12.75 0.13 4.26 0.69 6.27 2.17 7.75 1.25 1.25 2.16 3.79 2.43 6.75 0.24 2.61 0.02 7.56-0.5 11-0.51 3.44-1.38 6.25-1.93 6.25-0.55 0-1.8 0.79-2.78 1.75-0.98 0.96-3.35 2.38-5.25 3.14-1.91 0.77-5.38 1.56-7.72 1.75-2.85 0.24-4.66 1-5.5 2.31-0.82 1.28-3.33 2.38-7.25 3.17-3.4 0.68-7.19 2.22-8.75 3.54-1.51 1.29-3.54 2.33-4.5 2.31-0.96-0.02-3.44 1.11-5.5 2.5-2.06 1.39-4.99 2.52-6.5 2.51-1.75-0.01-4.2 1.28-6.75 3.54-2.2 1.96-4.9 3.56-6 3.55-1.18-0.01-2.57-1.15-3.39-2.79-0.76-1.53-1.56-4.58-1.77-6.78-0.22-2.2-1.33-7.15-2.47-11-1.15-3.85-2.41-7.67-2.81-8.5-0.4-0.83-0.55-4.65-0.34-8.5 0.22-4.02-0.06-7.53-0.67-8.25-0.58-0.69-0.8-2.94-0.51-5 0.37-2.52 0.05-4.41-0.96-5.75-0.84-1.1-1.53-3.24-1.55-4.75-0.02-1.51-0.37-2.75-0.78-2.75-0.41-0.01-0.72-1.24-0.68-2.75 0.04-1.51-0.22-9.72-0.57-18.25-0.52-12.6-1.01-16.16-2.57-19-1.84-3.34-1.93-6.11-1.93-62 0-54.57 0.12-58.8 1.85-63 1.42-3.48 2.03-8.8 2.7-23.5 0.69-15.34 1.25-20.01 2.9-24.25 1.31-3.36 2.39-9.49 2.98-17 0.63-7.94 1.58-13.21 2.94-16.25 1.11-2.48 2.31-7.65 2.68-11.5 0.37-3.85 1.69-9.25 2.94-12 1.25-2.75 2.61-8.15 3.02-12 0.42-3.85 1.81-9.25 3.11-12 1.37-2.9 2.37-6.89 2.38-9.5 0.02-2.85 0.87-5.96 2.34-8.5 1.27-2.2 2.66-6.25 3.09-9 0.43-2.75 1.86-7.02 3.18-9.5 1.31-2.48 2.38-5.62 2.37-7-0.02-1.37 1.33-5.09 2.99-8.25 1.67-3.16 3.03-6.99 3.04-8.5 0-1.51 1.11-4.55 2.46-6.75 1.36-2.2 2.47-4.9 2.47-6 0.01-1.1 1.37-4.59 3.03-7.75 1.67-3.16 3.02-6.76 3-8-0.02-1.24 1.11-3.94 2.5-6 1.39-2.06 2.95-5.44 3.46-7.5 0.52-2.06 1.68-4.42 2.58-5.25 0.91-0.83 2.07-3.3 2.59-5.5 0.51-2.2 2.06-5.58 3.43-7.5 1.38-1.92 2.48-4.17 2.46-5-0.03-0.83 1-3.08 2.29-5 1.28-1.92 2.91-5.08 3.6-7 0.69-1.92 2.15-4.62 3.23-6 1.08-1.37 1.95-2.95 1.94-3.5-0.01-0.55 1.34-3.02 3-5.5 1.65-2.48 3-5.17 3.01-6 0-0.83 1.04-2.85 2.31-4.5 1.27-1.65 2.61-4.24 2.97-5.75 0.36-1.51 1.78-4.1 3.16-5.75 1.37-1.65 2.5-3.56 2.49-4.25 0-0.69 1.54-3.73 3.42-6.75 1.89-3.02 4.37-6.74 5.51-8.25 1.14-1.51 2.08-3.2 2.08-3.75 0-0.55 1.06-2.24 2.36-3.75 1.3-1.51 2.71-3.87 3.14-5.25 0.42-1.37 1.87-3.85 3.21-5.5 1.33-1.65 3.76-4.8 5.39-7 1.63-2.2 2.95-4.56 2.93-5.25-0.01-0.69 1.43-3.03 3.22-5.2 1.79-2.17 4.15-5.2 5.25-6.73 1.1-1.53 2.6-4.14 3.33-5.8 0.73-1.66 2.46-4.37 3.83-6.02 1.38-1.65 4.71-5.81 7.42-9.25 2.71-3.44 4.92-6.7 4.92-7.25 0-0.55 2.6-4.04 5.78-7.75 3.18-3.71 7.45-9.23 9.48-12.25 2.04-3.02 8.04-10.23 13.34-16 5.3-5.77 10.64-12.08 11.86-14 1.22-1.92 7.29-8.9 13.49-15.5 6.19-6.6 21.71-22.35 34.47-35 12.77-12.65 26.11-25.37 29.65-28.26 3.54-2.9 9.22-7.63 12.64-10.5 3.41-2.88 10.95-9.4 16.75-14.49 5.8-5.09 10.99-9.25 11.54-9.25 0.55 0 4.04-2.46 7.75-5.46 3.71-3.01 8.1-6.55 9.75-7.86 1.65-1.32 4.35-3.1 6-3.95 1.65-0.86 4.8-3.12 7-5.03 2.2-1.91 6.36-5.09 9.25-7.08 2.89-1.99 5.59-3.61 6-3.59 0.41 0.01 1.87-1.16 3.25-2.61 1.37-1.45 3.4-3.05 4.5-3.55 1.1-0.51 3.58-2.01 5.5-3.35 1.92-1.33 5.2-3.69 7.28-5.22 2.08-1.54 5.01-3.75 6.5-4.91 1.5-1.15 4.3-2.59 6.22-3.19 1.92-0.61 4.17-1.86 5-2.8 0.83-0.93 3.3-2.54 5.5-3.57 2.2-1.04 5.64-2.89 7.64-4.11 2-1.22 4.47-2.95 5.5-3.85 1.02-0.9 2.98-1.97 4.36-2.39 1.37-0.41 3.74-1.82 5.25-3.12 1.51-1.3 3.99-2.64 5.5-2.99 1.51-0.35 3.65-1.45 4.75-2.46 1.1-1 3.58-2.36 5.5-3.03 1.92-0.66 4.74-2.25 6.25-3.54 1.51-1.29 3.42-2.34 4.25-2.34 0.83 0 3.19-1.13 5.25-2.5 2.06-1.38 4.2-2.49 4.75-2.47 0.55 0.02 2.8-1.34 5-3.03 2.2-1.69 5.12-3.04 6.5-3 1.37 0.03 4.19-1.08 6.25-2.47 2.06-1.39 5.44-2.99 7.5-3.55 2.06-0.56 4.42-1.69 5.25-2.5 0.83-0.82 3.52-1.98 6-2.57 2.48-0.6 5.62-1.96 7-3.03 1.37-1.07 4.08-2.21 6-2.52 1.92-0.32 5.08-1.59 7-2.83 1.92-1.24 5.52-2.6 8-3.02 2.48-0.42 5.62-1.63 7-2.69 1.37-1.06 4.3-2.38 6.5-2.93 2.2-0.56 5.35-1.95 7-3.1 1.65-1.15 5.48-2.43 8.5-2.83 3.02-0.4 7.08-1.65 9-2.77 1.92-1.12 5.75-2.35 8.5-2.74 2.75-0.39 6.8-1.77 9-3.06 2.2-1.29 5.46-2.36 7.25-2.37 1.79-0.01 5.84-1.08 9-2.37 3.16-1.29 8.23-2.7 11.25-3.12 3.02-0.42 7.3-1.79 9.5-3.04 2.69-1.53 6.29-2.44 11-2.77 3.85-0.28 9.02-1.4 11.5-2.5 2.66-1.18 8.9-2.45 15.25-3.11 5.91-0.61 12.89-1.97 15.5-3.03 3.19-1.28 8.7-2.16 16.75-2.65 7.8-0.48 13.92-1.43 17.5-2.71 4.73-1.7 9.43-2.09 33.5-2.78 15.4-0.44 34.75-1.3 43-1.91 8.25-0.61 15.67-1.32 16.5-1.58 0.83-0.27 12.17-0.59 25.21-0.72 21.11-0.2 23.91-0.42 25.5-1.99 1.66-1.64 1.7-2.46 0.48-11.5-0.72-5.36-1.68-16.94-2.12-25.74-0.58-11.38-1.32-17.3-2.58-20.5-0.98-2.47-1.96-7.2-2.19-10.5-0.23-3.3-0.18-6.56 0.12-7.25 0.29-0.69 1.33-1.26 2.31-1.27zm439.27 279.21c16.22-0.06 36.7 0.29 45.5 0.77 12.4 0.67 17.01 1.32 20.5 2.86 2.47 1.09 7.88 2.3 12 2.69 4.13 0.39 9.97 1.73 13 2.98 3.03 1.25 7.97 2.56 11 2.91 3.03 0.35 7.08 1.47 9 2.48 1.92 1.02 5.97 2.39 9 3.04 3.03 0.66 6.85 2.02 8.5 3.03 1.65 1.01 4.58 2.16 6.5 2.55 1.92 0.4 5.53 1.77 8 3.06 2.47 1.28 11.13 5.62 19.24 9.64 8.1 4.01 16.43 8.21 18.5 9.32 2.07 1.11 6.18 3.58 9.13 5.5 2.96 1.91 7.31 4.61 9.67 5.98 2.36 1.38 8.89 6.1 14.51 10.5 5.63 4.4 14.1 11.23 18.84 15.17 4.73 3.94 13.58 12.04 19.66 18 6.08 5.96 13.39 13.42 16.25 16.58 2.86 3.16 7.99 9.46 11.4 14 3.41 4.54 8.25 10.74 10.75 13.77 2.5 3.04 6.13 8.13 8.05 11.32 1.92 3.18 4.75 7.45 6.28 9.47 1.54 2.03 2.77 4.14 2.76 4.69-0.02 0.55 1.31 3.03 2.96 5.5 1.65 2.48 2.99 5.29 3 6.25 0 0.96 1.05 2.99 2.33 4.5 1.29 1.51 3.02 4.1 3.85 5.75 0.84 1.65 2.21 4.35 3.06 6 0.85 1.65 2.94 5.92 4.65 9.5 1.71 3.58 3.1 7.17 3.09 8 0 0.83 1.13 3.08 2.52 5 1.39 1.92 2.52 4.4 2.51 5.5-0.01 1.1 1.07 4.03 2.39 6.5 1.32 2.48 2.89 7.09 3.5 10.25 0.6 3.16 1.95 7.44 3 9.5 1.04 2.06 2.24 6 2.66 8.75 0.41 2.75 1.57 6.8 2.57 9 0.99 2.2 2.29 7.83 2.89 12.5 0.59 4.67 2.03 11.42 3.19 15 1.99 6.16 2.12 9.04 2.52 55.5 0.29 33.66 0.09 49.63-0.65 51-0.58 1.1-1.77 4.03-2.64 6.5-0.86 2.48-1.83 8.55-2.14 13.5-0.42 6.43-1.22 10.29-2.82 13.5-1.23 2.48-2.53 6.75-2.88 9.5-0.36 2.75-1.56 6.8-2.67 9-1.12 2.2-2.47 6.25-3.01 9-0.53 2.75-2.01 6.58-3.28 8.5-1.27 1.92-2.62 5.3-2.99 7.5-0.37 2.2-1.32 4.67-2.11 5.5-0.79 0.83-2.17 3.53-3.06 6-0.9 2.48-2.51 5.63-3.59 7-1.08 1.38-1.94 3.29-1.92 4.25 0.01 0.96-1.09 3.1-2.47 4.75-1.37 1.65-2.49 3.56-2.47 4.25 0.02 0.69-1.11 2.94-2.5 5-1.39 2.06-2.53 3.98-2.53 4.25 0 0.28-1.78 3.31-3.96 6.75-2.18 3.44-4.54 6.92-5.24 7.75-0.7 0.83-2.29 3.64-3.54 6.25-1.24 2.61-3.4 5.99-4.79 7.5-1.4 1.51-2.52 3.31-2.5 4 0.01 0.69-1.21 2.66-2.72 4.38-1.51 1.72-3.87 4.37-5.25 5.88-1.37 1.51-5.12 5.61-8.33 9.12-3.21 3.5-6.46 7.04-7.22 7.87-0.77 0.83-1.4 1.95-1.42 2.5-0.01 0.55-1.25 1.9-2.75 3-1.5 1.1-4.87 4.03-7.48 6.5-2.6 2.47-4.75 4.84-4.77 5.25-0.02 0.41-0.93 1.65-2.03 2.75-1.1 1.1-2.34 1.99-2.75 1.98-0.41-0.02-2.16 1.45-3.88 3.25-1.73 1.8-5.27 5.07-7.88 7.27-2.61 2.2-6.83 5.9-9.37 8.22-2.54 2.32-5.18 4.23-5.87 4.25-0.69 0.01-3.39 1.66-6 3.65-2.61 1.99-5.09 4.47-5.5 5.5-0.41 1.03-1.42 1.88-2.25 1.88-0.83 0-1.95 0.9-2.5 2-0.55 1.1-1.67 2-2.5 2-0.83 0-3.3 0.9-5.5 2-2.2 1.1-4.11 2.34-4.25 2.75-0.14 0.41-1.83 1.56-3.75 2.55-1.92 0.98-5.53 2.93-8 4.33-2.47 1.39-5.35 3.29-6.38 4.2-1.03 0.92-2.83 2.21-4 2.88-1.17 0.67-2.79 1.53-3.62 1.93-0.83 0.39-3.19 1.76-5.25 3.04-2.06 1.27-4.42 2.32-5.25 2.32-0.83 0-1.5 0.34-1.49 0.75 0 0.41-1.46 1.53-3.25 2.47-1.79 0.95-4.5 2.19-6.01 2.75-1.51 0.57-2.75 1.48-2.75 2.03 0 0.55-1.24 1.24-2.75 1.53-1.51 0.3-4.01 1.09-5.54 1.75-1.53 0.67-2.77 1.78-2.75 2.47 0.02 0.77-1.31 1.25-3.46 1.25-2.03 0-6.33 1.46-10.25 3.47-3.71 1.91-7.76 3.49-9 3.5-1.24 0.02-2.59 0.71-3 1.54-0.41 0.83-3 2.03-5.75 2.67-2.75 0.63-5.48 1.64-6.06 2.24-0.58 0.59-4.41 2.15-8.5 3.45-4.09 1.31-9.02 3.06-10.94 3.9-1.92 0.84-4.29 1.91-5.25 2.38-0.96 0.47-2.09 0.65-2.5 0.4-0.41-0.25-3 0.58-5.75 1.84-2.75 1.26-7.14 2.59-9.75 2.95-2.61 0.36-5.31 1.28-6 2.03-0.69 0.76-3.72 2.08-6.75 2.93-3.03 0.86-7.41 1.82-9.75 2.13-2.34 0.31-4.47 1.02-4.75 1.57-0.28 0.55-3.76 1.67-7.75 2.5-3.99 0.82-9.05 2.4-11.25 3.51-2.2 1.1-5.01 2-6.25 2-1.24-0.01-3.94 0.71-6 1.58-2.06 0.88-5.78 2.2-8.25 2.95-2.47 0.74-7.2 1.59-10.5 1.88-3.3 0.29-8.25 1.39-11 2.45-2.75 1.05-9.28 2.47-14.5 3.15-5.22 0.68-10.85 1.83-12.5 2.57-1.65 0.73-7.95 2.04-14 2.9-6.05 0.85-12.8 2.19-15 2.97-2.2 0.77-7.15 1.72-11 2.11-3.85 0.38-7.9 0.69-9 0.68-1.1-0.01-5.15 0.58-9 1.31-3.85 0.73-7.67 1.59-8.5 1.9-0.83 0.31-8.47 1.23-17 2.04-8.53 0.81-15.95 1.87-16.5 2.37-0.55 0.5-4.15 1.38-8 1.96-3.85 0.59-13.75 1.36-22 1.72-8.25 0.36-17.92 1.25-21.5 1.99-3.58 0.74-6.72 1.16-7 0.95-0.28-0.21-6.13 0.26-13 1.05-6.88 0.79-15.46 1.45-19.08 1.45-3.62 0.01-6.92 0.35-7.34 0.76-0.41 0.41-4.2 0.75-8.41 0.76-5.46 0.01-8.39 0.49-10.17 1.67-1.38 0.91-5.14 2.03-8.37 2.49-3.22 0.46-6.03 1.17-6.25 1.58-0.21 0.41-3.64 1.73-7.63 2.93-3.99 1.2-8.74 3.12-10.57 4.25-1.82 1.14-6.77 4.88-11 8.32-4.22 3.44-8.24 6.26-8.93 6.25-0.69 0-3.34 1.91-5.9 4.25-2.55 2.34-5.93 5.04-7.5 6-1.57 0.96-2.85 2.2-2.85 2.75 0 0.55-0.67 1-1.5 1-0.83 0-2.51 1.12-3.75 2.48-1.24 1.37-2.92 2.5-3.75 2.51-0.83 0.01-4.88 2.94-9 6.51-4.13 3.57-7.95 6.51-8.5 6.53-0.55 0.03-3.25 1.7-6 3.72-2.75 2.01-7.25 5.58-10 7.92-2.75 2.35-5.45 4.27-6 4.27-0.55 0.01-4.26 2.5-8.25 5.54-3.99 3.03-7.7 5.52-8.25 5.52-0.55 0-1 0.45-1 1 0 0.55-0.67 1-1.5 1-0.83 0-3.19 1.12-5.25 2.5-2.06 1.37-5.55 2.79-7.75 3.14-2.2 0.35-4.45 0.98-5 1.4-0.55 0.42-3.7 0.86-7 0.98-3.3 0.12-6.22 0.11-6.5-0.01-0.28-0.13-1.85-0.38-3.5-0.56-1.65-0.18-7.39-0.81-12.75-1.39-7.53-0.82-9.75-1.4-9.75-2.56 0-0.83-0.79-1.51-1.75-1.52-0.96-0.02-3.95-1.71-6.65-3.75-2.69-2.05-5.61-4.18-6.5-4.73-0.88-0.55-1.94-1.56-2.35-2.25-0.41-0.69-1.2-1.25-1.75-1.25-0.55 0-2.69-1.38-4.75-3.07-2.92-2.4-4.3-2.92-6.25-2.37-1.38 0.39-2.72 1.13-3 1.64-0.28 0.52-2.08 1.1-4 1.3-1.92 0.2-5.53 1.28-8 2.4-2.47 1.13-7.42 3.65-11 5.62-3.58 1.96-8.08 4.82-10 6.34-1.92 1.53-4.17 3.1-5 3.5-0.83 0.39-2.4 1.27-3.5 1.94-1.1 0.67-3.35 2.1-5 3.18-1.65 1.07-4.01 2.98-5.25 4.24-1.24 1.25-2.7 2.28-3.25 2.28-0.55 0-1 0.45-1 1 0 0.55-0.45 0.78-1 0.5-0.55-0.28-4.38 2.09-8.51 5.25-4.13 3.16-7.51 6.09-7.5 6.5 0.01 0.41-0.66 0.75-1.49 0.75-0.83 0-1.5 0.45-1.5 1 0 0.55-1.35 1.22-3 1.5-1.65 0.28-2.99 0.84-2.99 1.25 0.01 0.41-1.45 1.63-3.25 2.7-1.79 1.07-3.84 2.42-4.54 3-0.71 0.58-1.92 1.61-2.68 2.3-0.77 0.69-1.99 1.25-2.72 1.26-0.73 0.01-3.57 1.8-6.32 3.99-2.75 2.19-5.45 3.98-6 3.97-0.55 0-2.62 1.47-4.6 3.26-1.97 1.8-6.02 4.56-9 6.13-2.97 1.58-6.19 3.72-7.15 4.75-0.96 1.04-2.09 1.87-2.5 1.86-0.41-0.02-2.55 1.34-4.75 3.03-2.2 1.69-4.34 3.05-4.75 3.03-0.41-0.01-2.02 0.98-3.57 2.22-1.55 1.24-4.34 3.38-6.2 4.75-1.85 1.38-4.75 3.64-6.43 5.03-1.68 1.4-6.35 4.77-10.39 7.5-4.04 2.73-8.37 5.64-9.62 6.47-1.24 0.83-3.79 2.97-5.65 4.77-1.87 1.8-4.18 3.26-5.14 3.25-0.96-0.01-1.75 0.65-1.75 1.48 0 0.83-0.79 1.51-1.75 1.53-0.96 0.01-4.11 1.81-7 4-2.89 2.18-5.59 3.99-6 4.01-0.41 0.03-3 1.92-5.75 4.21-2.75 2.29-5.79 4.97-6.75 5.95-0.96 0.99-2.54 1.79-3.5 1.77-0.96-0.01-2.88 1.13-4.25 2.53-1.38 1.4-2.95 2.56-3.5 2.57-0.55 0.01-3.25 1.91-6 4.22-2.75 2.32-5.11 4.55-5.25 4.96-0.14 0.41-0.81 0.76-1.5 0.77-0.69 0-3.5 1.6-6.25 3.55-2.75 1.94-6.46 4.41-8.25 5.48-1.79 1.07-3.25 2.4-3.25 2.95 0 0.55-1.24 1.66-2.75 2.48-1.51 0.81-3.54 1.71-4.5 2-0.96 0.28-1.75 0.97-1.75 1.52 0 0.55-0.45 1-1 1-0.55 0-2.8 1.35-5 3-2.2 1.65-4.23 3-4.5 3-0.27 0-1.96 1.35-3.75 3-1.79 1.64-3.81 2.99-4.5 3-0.69 0-3.73 2.03-6.75 4.5-3.02 2.47-5.73 4.5-6 4.5-0.27 0-2.86 1.62-5.75 3.59-2.89 1.98-5.48 3.92-5.75 4.31-0.27 0.39-2.08 1.34-4 2.1-1.92 0.76-6.2 3.75-9.5 6.65-3.3 2.91-6.45 5.3-7 5.32-0.55 0.02-2.58 1.38-4.5 3.03-1.92 1.65-3.84 3-4.25 3-0.41 0-2.55 1.8-4.75 4-2.2 2.2-3.99 4.34-3.99 4.75 0.01 0.41-1.34 1.54-3 2.5-1.65 0.96-3.01 2.2-3.01 2.75 0 0.55-1.46 2.38-3.25 4.08-1.79 1.69-5.17 4.95-7.52 7.25-2.34 2.29-4.26 4.51-4.25 4.92 0.01 0.41-1.89 2.68-4.23 5.05-2.34 2.36-4.92 5.63-5.75 7.25-0.83 1.62-1.98 3.4-2.58 3.95-0.59 0.55-2.5 2.91-4.25 5.25-1.74 2.34-3.17 4.47-3.17 4.75 0 0.28-1.24 1.92-2.75 3.65-1.51 1.73-6.26 7.02-10.55 11.75-4.29 4.73-11.33 11.75-15.65 15.6-4.32 3.85-9.14 8.11-10.7 9.47-1.57 1.36-3.98 3.09-5.35 3.85-1.38 0.76-4.98 3.53-8 6.14-3.02 2.62-7.08 5.3-9 5.97-1.92 0.66-5.98 3.36-9 6-3.02 2.63-6.96 5.53-8.75 6.43-1.79 0.9-3.48 2.31-3.75 3.14-0.27 0.83-1.17 1.5-2 1.5-0.83 0-2.66 1.01-4.07 2.25-1.42 1.24-3.83 2.92-5.37 3.75-1.54 0.83-4.66 2.51-6.93 3.75-2.27 1.24-4.47 2.84-4.88 3.56-0.41 0.72-2.33 1.91-4.25 2.65-1.92 0.74-3.95 1.87-4.5 2.52-0.55 0.64-4.6 3.58-9 6.54-4.4 2.95-9.13 6.44-10.5 7.74-1.38 1.3-5.2 3.73-8.5 5.4-3.3 1.67-6.45 3.65-7 4.4-0.55 0.75-1.45 1.36-2 1.37-0.55 0-3.02 1.59-5.5 3.53-2.48 1.94-5.29 3.52-6.25 3.53-0.96 0.01-1.98 0.46-2.25 1.01-0.27 0.55-3.31 3.03-6.75 5.51-3.44 2.49-6.81 4.51-7.5 4.5-0.69 0-1.81 0.82-2.5 1.84-0.69 1.02-2.6 2.54-4.25 3.38-1.65 0.84-3.67 2.28-4.5 3.2-0.83 0.92-3.08 2.18-5 2.8-1.93 0.62-6.65 3.76-10.5 6.98-3.85 3.22-7.34 5.84-7.75 5.82-0.41-0.02-2.77 1.32-5.25 2.97-2.48 1.65-4.67 3.34-4.87 3.75-0.2 0.41-3.69 2.76-7.75 5.21-4.06 2.45-8.33 5.38-9.49 6.5-1.16 1.12-4 3.17-6.31 4.54-2.31 1.38-5.52 3.74-7.14 5.25-1.62 1.51-3.28 2.75-3.69 2.76-0.41 0.01-3 1.8-5.75 3.99-2.75 2.19-5.34 3.98-5.75 3.99-0.41 0.01-2.66 1.33-5 2.93-2.34 1.61-6.16 4.76-8.5 7-2.34 2.25-5.04 4.06-6 4.05-0.96-0.02-3.1 0.96-4.75 2.19-1.65 1.23-4.57 3.62-6.5 5.32-1.93 1.69-5.72 4.2-8.44 5.55-2.71 1.36-5.09 3.14-5.28 3.97-0.19 0.83-2.58 2.96-5.31 4.75-2.73 1.79-5.65 3.25-6.47 3.25-0.82 0-2.85 1.13-4.5 2.5-1.65 1.38-3.34 2.49-3.75 2.47-0.41-0.02-1.99 1.33-3.5 3-1.51 1.67-3.43 3.03-4.25 3.03-0.82 0-2.63 0.67-4 1.5-1.38 0.83-2.49 2.06-2.47 2.75 0.01 0.69-1.22 1.91-2.75 2.71-1.53 0.81-4.02 2.27-5.53 3.25-1.51 0.99-3.31 1.8-4 1.8-0.69 0.01-3.27 1.85-5.75 4.09-2.48 2.23-6.65 5.49-9.28 7.23-2.63 1.74-4.77 3.84-4.76 4.67 0.01 1.33-0.09 1.33-0.88 0-0.73-1.25-1.27-1.05-3.23 1.21-1.29 1.49-2.69 2.73-3.1 2.75-0.41 0.02-3.11 1.17-6 2.56-2.89 1.39-7.27 3.85-9.75 5.48-2.48 1.63-5.63 3.49-7 4.14-1.38 0.65-3.18 1.09-4 0.98-0.82-0.11-2.4 0.71-3.5 1.83-1.29 1.31-3.95 2.26-7.5 2.68-3.02 0.36-7.41 1.72-9.75 3.01-3.88 2.16-5.59 2.38-19.75 2.61-8.53 0.14-15.61-0.05-15.75-0.42-0.14-0.37-3.85-1.18-8.25-1.8-4.4-0.62-8.45-1.5-9-1.96-0.55-0.46-2.57-1.18-4.5-1.59-1.93-0.41-5.07-1.82-7-3.12-1.93-1.3-3.95-2.37-4.5-2.36-0.55 0.01-2.69-1.12-4.75-2.5-2.06-1.37-4.65-2.5-5.75-2.5-1.1 0-2.22-0.67-2.5-1.5-0.28-0.83-1.18-1.5-2-1.5-0.82 0-1.5-0.45-1.5-1 0-0.55-1.01-1.21-2.25-1.47-1.24-0.25-6.36-4.64-11.38-9.75-5.02-5.1-11.23-11.53-13.82-14.28-2.58-2.75-4.77-5.74-4.87-6.64-0.1-0.91-1.44-3.16-2.97-5-1.54-1.85-4.01-5.23-5.5-7.51-1.49-2.28-4.93-7.46-7.65-11.5-2.72-4.04-5.44-7.8-6.05-8.35-0.61-0.55-1.76-2.58-2.55-4.5-0.8-1.92-2.38-4.62-3.51-6-1.13-1.37-3.94-5.76-6.25-9.75-2.31-3.99-4.54-7.24-4.95-7.24-0.41 0.01-1.38-1.68-2.16-3.75-0.77-2.07-3.69-7.03-6.5-11.03-2.8-4-5.54-8.06-6.09-9.01-0.55-0.96-2.08-3.54-3.41-5.73-1.32-2.2-4.35-6.91-6.74-10.49-2.38-3.58-4.94-7.4-5.69-8.5-0.74-1.1-3.11-4.61-5.26-7.8-2.14-3.2-4.8-7.5-5.9-9.57-1.1-2.06-2.59-4.4-3.3-5.19-0.72-0.79-3.42-5.09-6-9.56-2.59-4.46-5.43-8.96-6.33-10-0.9-1.03-1.96-3-2.37-4.38-0.4-1.37-1.56-3.4-2.57-4.5-1.01-1.1-3.44-5.71-5.39-10.25-1.95-4.54-3.53-8.81-3.52-9.5 0.01-0.69-1.11-2.83-2.47-4.75-1.37-1.92-2.74-5.3-3.04-7.5-0.3-2.2-1.55-5.58-2.78-7.5-2.11-3.31-2.25-4.73-2.58-26.5-0.35-22.76-0.32-23.05 2.11-28 1.36-2.75 2.74-6.58 3.07-8.5 0.33-1.92 1.46-4.62 2.51-6 1.06-1.37 2.58-4.08 3.39-6 0.81-1.92 5.87-8.45 11.26-14.5 5.38-6.05 14.33-15.19 19.89-20.31 5.57-5.13 11.24-9.78 12.62-10.35 1.37-0.57 3.74-2 5.26-3.18 1.51-1.19 4.51-3.51 6.66-5.16 2.15-1.65 6.23-4.35 9.06-6 2.83-1.65 6.81-4.25 8.84-5.78 2.02-1.54 4.02-2.77 4.43-2.75 0.41 0.01 4.35-2.44 8.75-5.47 4.4-3.03 8.56-5.49 9.25-5.49 0.69 0.01 2.82-1.32 4.75-2.96 1.93-1.63 3.84-2.99 4.25-3.01 0.41-0.02 2.21-1.15 4-2.51 1.79-1.36 3.81-2.49 4.5-2.5 0.69-0.02 2.71-1.32 4.5-2.9 1.79-1.57 4.15-3.14 5.25-3.49 1.1-0.35 4.47-2.43 7.5-4.64 3.03-2.21 7.07-4.74 9-5.63 1.93-0.88 4.74-2.68 6.25-3.99 1.51-1.31 3.31-2.38 4-2.38 0.69-0.01 4.18-2.02 7.75-4.48 3.57-2.45 8.3-5.38 10.5-6.5 2.2-1.12 6.03-3.37 8.5-5 2.47-1.62 6.3-3.92 8.5-5.1 2.2-1.18 4.9-2.98 6-4 1.1-1.01 3.57-2.7 5.5-3.74 1.93-1.04 5.75-3.16 8.5-4.71 2.75-1.54 6.57-3.65 8.5-4.68 1.93-1.02 4.4-2.67 5.5-3.67 1.1-0.99 4.02-2.92 6.5-4.27 2.48-1.36 5.62-3.12 7-3.91 1.37-0.79 3.73-2.45 5.25-3.69 1.51-1.24 3.54-2.23 4.5-2.22 0.96 0.02 3.55-1.34 5.75-3.03 2.2-1.69 4.45-3.06 5-3.06 0.55 0.01 4.26-2.23 8.25-4.96 3.99-2.74 8.71-5.65 10.5-6.47 1.79-0.81 5.95-3.49 9.25-5.95 3.3-2.45 6.68-4.49 7.5-4.54 0.82-0.04 4.76-1.87 8.75-4.05 3.99-2.18 7.44-4.41 7.67-4.94 0.23-0.54 2.37-1.79 4.75-2.8 2.38-1 4.56-2.35 4.84-3 0.28-0.64 2.75-2.12 5.5-3.27 2.74-1.16 7.92-4.24 11.49-6.86 3.57-2.62 8.52-5.68 11-6.79 2.48-1.11 5.74-2.31 7.25-2.67 1.51-0.35 3.99-1.7 5.5-3 1.51-1.29 4.32-2.63 6.25-2.96 1.93-0.34 4.4-1.53 5.5-2.65 1.1-1.12 3.12-2.29 4.5-2.61 1.37-0.31 4.64-1.89 7.25-3.5 2.61-1.6 5.31-2.93 6-2.94 0.69-0.02 3.27-0.97 5.75-2.12 2.48-1.16 5.29-2.49 6.25-2.98 0.96-0.48 3.44-0.87 5.5-0.86 2.06 0.02 5.55-0.72 7.75-1.63 2.49-1.03 9.02-1.99 17.25-2.52 12.15-0.8 13.66-1.12 18.25-3.87 2.75-1.65 6.46-3.02 8.25-3.05 1.94-0.04 5.88-1.65 9.75-3.98 3.58-2.16 8.3-4.77 10.5-5.8 2.2-1.03 4.67-2.64 5.5-3.57 0.83-0.94 3.08-2.19 5-2.8 1.92-0.6 4.74-2.15 6.25-3.44 1.51-1.3 3.99-2.64 5.5-2.99 1.51-0.35 3.65-1.42 4.75-2.39 1.1-0.96 3.12-2.11 4.5-2.54 1.37-0.44 5.31-2.74 8.75-5.12 3.44-2.37 7.94-5.02 10-5.88 2.06-0.85 4.65-2.37 5.75-3.36 1.1-0.99 4.92-3.48 8.5-5.52 3.58-2.04 8.3-4.98 10.5-6.53 2.2-1.56 7.15-4.4 11-6.32 3.85-1.92 7.67-4.24 8.5-5.15 0.83-0.91 2.06-1.63 2.75-1.6 0.69 0.02 1.25-0.41 1.25-0.96 0-0.55 0.56-1.01 1.25-1.03 0.69-0.01 3.73-1.8 6.75-3.97 3.02-2.17 6.85-4.61 8.5-5.43 1.65-0.82 3.9-2.42 5-3.56 1.1-1.14 2.67-2.08 3.5-2.08 0.83 0 3.19-1.57 5.25-3.47 2.06-1.9 4.42-3.46 5.25-3.46 0.83 0 2.74-0.92 4.25-2.03 1.51-1.12 3.2-2.01 3.75-1.98 0.55 0.03 2.12-1.09 3.5-2.49 1.37-1.4 2.95-2.55 3.5-2.55 0.55 0 1.67-0.61 2.5-1.36 0.83-0.75 3.98-2.67 7-4.27 3.02-1.6 7.3-4.13 9.5-5.62 2.2-1.49 4.45-2.69 5-2.66 0.55 0.03 1.67-0.67 2.5-1.55 0.83-0.88 3.41-2.48 5.75-3.55 2.34-1.07 4.48-2.61 4.75-3.44 0.27-0.83 1.74-1.72 3.25-1.98 1.51-0.27 3.65-1.41 4.75-2.54 1.1-1.12 2.79-2.03 3.75-2.01 0.96 0.02 2.09-0.54 2.5-1.24 0.41-0.7 2.1-2.15 3.75-3.22 1.65-1.07 3.45-1.84 4-1.71 0.55 0.13 2.12-0.91 3.5-2.31 1.37-1.4 3.17-2.52 4-2.48 0.83 0.03 2.4-0.91 3.5-2.08 1.1-1.18 3.69-2.99 5.75-4.04 2.06-1.04 3.75-2.34 3.75-2.89 0-0.55 1.12-1.22 2.5-1.5 1.37-0.28 3.96-1.83 5.75-3.46 1.79-1.63 3.81-2.98 4.5-3 0.69-0.02 1.25-0.49 1.25-1.04 0-0.55 0.79-1.22 1.75-1.48 0.96-0.27 4-1.85 6.75-3.51 2.75-1.67 6.35-3.64 8-4.39 1.65-0.76 4.31-2.89 5.91-4.75 1.59-1.85 3.84-3.91 5-4.56 1.15-0.65 3.44-1.89 5.09-2.74 1.65-0.85 5.02-3.14 7.5-5.08 2.48-1.95 6.2-4.32 8.28-5.27 2.08-0.95 3.77-2.06 3.75-2.47-0.02-0.41 1.21-1.44 2.72-2.28 1.51-0.84 4.1-2.41 5.75-3.49 1.65-1.07 3.9-2.34 5-2.83 1.1-0.48 3.58-2.33 5.5-4.11 1.92-1.78 5.41-4.09 7.75-5.14 2.34-1.04 4.25-2.35 4.25-2.9 0-0.55 0.45-0.78 1-0.5 0.55 0.28 3.36-1.3 6.25-3.51 2.89-2.2 5.59-4 6-4 0.41 0.01 2.1-1.11 3.75-2.49 1.65-1.37 3.56-2.49 4.25-2.47 0.69 0.01 2.37-1.13 3.75-2.53 1.37-1.4 3.06-2.54 3.75-2.53 0.69 0.02 1.25-0.42 1.25-0.97 0-0.55 2.36-2.09 5.25-3.42 2.89-1.33 5.75-3.02 6.37-3.75 0.62-0.73 2.64-2 4.49-2.83 1.85-0.83 4.5-2.53 5.88-3.79 1.38-1.26 3.3-2.5 4.26-2.75 0.96-0.25 1.75-1.13 1.75-1.96 0-0.93 0.94-1.5 2.5-1.5 1.49 0 3.1-0.91 3.98-2.25 0.83-1.26 1.25-3.35 0.95-4.75-0.29-1.37-1.37-4.3-2.39-6.5-1.02-2.2-2.55-5.8-3.4-8-0.84-2.2-1.8-6.7-2.13-10-0.32-3.3-0.76-8.02-0.98-10.5-0.3-3.4 0.12-5.23 1.71-7.5 1.16-1.65 3.82-4.69 5.93-6.75 2.11-2.06 3.83-4.2 3.83-4.75 0-0.55 0.45-1 1-1 0.55 0 4.63-3.26 9.06-7.25 4.44-3.99 8.94-7.59 10-8 1.07-0.41 1.94-1.09 1.93-1.5 0-0.41 1.35-1.31 3-2 1.66-0.69 3.35-2.15 3.76-3.25 0.41-1.1 2.4-3.02 4.41-4.25 2.02-1.24 8.39-6.75 14.17-12.25 5.79-5.5 12.35-11.69 14.59-13.75 2.25-2.06 4.42-3.74 4.83-3.72 0.41 0.01 2.1-1.56 3.75-3.51 1.65-1.94 3.56-3.52 4.25-3.52 0.69 0 4.07-2.81 7.52-6.25 3.44-3.44 7.94-7.71 10-9.5 2.05-1.79 4.18-3.25 4.73-3.25 0.55 0 7.56-6.86 15.58-15.25 8.01-8.39 15.37-16.83 16.35-18.75 0.98-1.92 2.52-3.84 3.43-4.25 0.9-0.41 2.3-2.21 3.11-4 0.82-1.79 2.32-4.15 3.34-5.25 1.02-1.1 2.22-3.12 2.67-4.5 0.44-1.37 3.15-7.45 6.02-13.5 2.86-6.05 5.53-12.35 5.93-14 0.4-1.65 1.36-3.67 2.14-4.5 0.77-0.83 2-3.75 2.72-6.5 0.72-2.75 2.31-6.35 3.54-8 1.23-1.65 2.21-3.67 2.17-4.5-0.03-0.83 1.08-3.19 2.47-5.25 1.39-2.06 2.53-4.2 2.53-4.75 0-0.55 1.46-2.49 3.25-4.31 1.79-1.82 4.83-5.89 6.75-9.03 1.92-3.15 3.95-6.5 4.51-7.45 0.56-0.94 2.69-3.51 4.75-5.71 2.05-2.2 3.73-4.34 3.74-4.75 0-0.41 2.59-3.86 5.75-7.66 3.16-3.79 7.45-9.31 9.54-12.25 2.08-2.94 14.7-16.36 28.04-29.84 13.35-13.47 25.03-24.84 25.97-25.25 0.93-0.41 1.92-1.65 2.2-2.75 0.28-1.1 1.06-2.02 1.75-2.04 0.69-0.02 1.92-0.86 2.75-1.86 0.83-1 3.3-3.04 5.5-4.52 2.2-1.48 8.84-7.16 14.75-12.63 5.91-5.47 10.97-10.85 11.25-11.95 0.28-1.1 1.17-2 2-2 0.83 0 1.84-0.6 2.25-1.34 0.41-0.74 1.99-2.09 3.5-3 1.51-0.91 2.75-2.33 2.75-3.16 0-0.83 0.56-1.49 1.25-1.48 0.69 0.01 3.05-1.49 5.25-3.35 2.2-1.86 5.35-4.09 7-4.97 1.65-0.87 4.35-2.85 6.01-4.39 1.65-1.55 5.7-4.96 9-7.58 3.29-2.63 7.99-6.45 10.43-8.5 2.44-2.05 5.14-4.52 6-5.49 0.86-0.97 1.9-1.75 2.31-1.75 0.41 0.01 4.35-3.14 8.75-6.99 4.4-3.85 9.69-7.85 11.75-8.88 2.06-1.03 4.65-3.06 5.75-4.51 1.1-1.44 2.34-2.62 2.75-2.61 0.41 0 2.66-1.56 5-3.47 2.34-1.91 4.59-3.48 5-3.5 0.41-0.02 2.66-1.39 5-3.06 2.34-1.67 6.28-4.6 8.75-6.51 2.47-1.91 6.3-4.36 8.5-5.45 2.2-1.08 5.13-2.82 6.5-3.86 1.38-1.04 5.09-3.52 8.25-5.52 3.16-2 5.97-4.08 6.25-4.63 0.28-0.55 2.79-2.24 5.59-3.75 2.8-1.51 6.51-3.55 8.25-4.52 1.74-0.98 4.06-2.61 5.16-3.64 1.1-1.02 3.13-2.2 4.5-2.61 1.38-0.42 3.74-1.82 5.25-3.12 1.51-1.3 3.65-2.36 4.75-2.36 1.1 0 3.24-1.07 4.75-2.38 1.51-1.31 4.33-3.13 6.25-4.05 1.92-0.91 5.75-2.97 8.5-4.57 2.75-1.61 7.03-3.9 9.5-5.1 2.47-1.19 5.63-2.93 7-3.85 1.38-0.93 4.3-2.19 6.5-2.8 2.2-0.61 4.67-1.84 5.5-2.75 0.83-0.9 3.3-2.1 5.5-2.68 2.2-0.58 5.13-1.9 6.5-2.95 1.38-1.05 3.85-2.18 5.5-2.51 1.65-0.33 4.8-1.64 7-2.91 2.2-1.26 5.8-2.62 8-3.01 2.2-0.4 5.24-1.55 6.75-2.58 1.51-1.02 5.11-2.26 8-2.74 2.89-0.49 7.28-1.89 9.75-3.12 2.67-1.32 7.56-2.53 12-2.97 4.14-0.4 9.29-1.63 11.5-2.74 2.5-1.26 7.09-2.25 12.25-2.65 4.54-0.35 10.61-1.57 13.5-2.71 3.95-1.56 8.85-2.26 19.75-2.85 7.97-0.43 27.78-0.83 44-0.89zm-51.5 71.36c-3.3 0.93-8.03 2.07-10.5 2.52-2.47 0.44-6.75 0.85-9.5 0.9-3.22 0.06-6.24 0.85-8.5 2.23-2 1.22-6.4 2.5-10.25 2.97-3.86 0.48-8.03 1.69-9.75 2.83-1.65 1.1-5.36 2.42-8.25 2.93-2.89 0.52-6.38 1.8-7.75 2.86-1.37 1.06-4.08 2.26-6 2.67-1.92 0.4-5.3 1.77-7.5 3.04-2.2 1.27-5.58 2.57-7.5 2.9-1.92 0.33-4.17 1.31-5 2.17-0.83 0.87-3.75 2.24-6.5 3.06-2.75 0.82-6.13 2.38-7.5 3.47-1.37 1.08-3.17 1.94-4 1.91-0.83-0.04-3.53 1.29-6 2.94-2.47 1.66-5.17 3.01-6 3-0.83-0.01-2.62 0.85-4 1.92-1.37 1.07-4.53 2.88-7 4.03-2.47 1.15-6.53 3.67-9 5.61-2.47 1.93-6.08 4.24-8 5.12-1.92 0.89-4.7 2.57-6.17 3.74-1.47 1.17-4.57 3.26-6.9 4.63-2.33 1.38-5.91 3.85-7.97 5.5-2.05 1.65-5.23 3.9-7.07 5-1.84 1.1-5.24 3.13-7.55 4.5-2.31 1.38-7.49 4.71-11.52 7.42-4.03 2.7-8.22 5.76-9.32 6.8-1.1 1.05-3.89 3.33-6.19 5.09-2.3 1.75-5.81 4.32-7.79 5.69-1.98 1.38-6.84 5.09-10.81 8.26-3.96 3.17-7.88 5.77-8.71 5.78-0.83 0.01-4.65 2.78-8.5 6.17-3.85 3.39-7.67 6.87-8.5 7.75-0.83 0.88-3.97 3.26-7 5.3-3.03 2.03-6.06 3.71-6.75 3.72-0.69 0.01-1.75 1.03-2.37 2.27-0.62 1.24-2.53 3.76-4.25 5.6-1.72 1.84-4.14 3.75-5.38 4.25-1.24 0.49-2.25 1.57-2.25 2.4 0 0.83-1.35 2.17-3 3-1.65 0.83-14.03 12.64-27.5 26.25-13.48 13.61-25.4 26.1-26.48 27.75-1.08 1.65-2.54 3.86-3.24 4.91-0.7 1.05-3.43 4.65-6.05 8-2.63 3.35-5.37 7.44-6.1 9.09-0.74 1.65-1.63 3.67-1.99 4.5-0.37 0.83-1.52 2.85-2.58 4.5-1.05 1.65-1.93 4.13-1.96 5.5-0.03 1.38-1.24 5.2-2.69 8.5-2.05 4.64-2.49 6.8-1.93 9.5 0.39 1.92 1.64 5.3 2.76 7.5 1.13 2.2 4.12 6.42 6.65 9.37 2.54 2.96 7.42 7.57 10.86 10.25 3.44 2.69 6.7 4.88 7.25 4.88 0.55 0 1.77 0.79 2.72 1.75 0.95 0.96 3.53 2.69 5.75 3.84 2.22 1.15 6.17 3.29 8.78 4.75 2.61 1.46 5.65 3.56 6.75 4.66 1.1 1.1 3.36 2.34 5.02 2.75 1.67 0.41 3.02 1.09 3 1.5-0.01 0.41 1.67 1.48 3.73 2.37 2.06 0.89 4.88 2.48 6.25 3.54 1.38 1.05 3.17 1.88 4 1.84 0.83-0.03 3.19 1.08 5.25 2.47 2.06 1.39 4.54 2.53 5.5 2.53 0.96-0.01 4.22 1.34 7.25 2.98 3.03 1.64 7.97 4.16 11 5.59 3.03 1.43 6.29 3.01 7.25 3.52 0.96 0.5 2.31 0.89 3 0.88 0.69-0.02 2.38 0.8 3.75 1.84 1.38 1.03 4.64 2.39 7.25 3.03 2.61 0.64 6.21 2.01 8 3.05 1.79 1.04 5.05 2.21 7.25 2.61 2.2 0.4 6.25 1.75 9 3.02 2.75 1.26 6.58 2.5 8.5 2.75 1.92 0.26 5.41 1.65 7.75 3.1 2.34 1.45 5.04 2.64 6 2.66 0.96 0.02 2.65 0.81 3.75 1.75 1.1 0.95 2.56 2.96 3.25 4.47 0.69 1.51 1.24 3.99 1.22 5.5-0.02 1.51-1.14 5-2.49 7.75-1.35 2.75-2.45 6.13-2.44 7.5 0.01 1.38-1.48 4.53-3.33 7-1.84 2.48-3.99 4.77-4.78 5.09-0.78 0.33-8.07 0.56-16.18 0.5-8.17-0.05-14.86 0.32-15 0.83-0.14 0.52-1.76 0.4-3.75-0.27-1.92-0.65-6.87-1.17-11-1.16-4.69 0.01-10.13-0.76-14.5-2.04-3.85-1.13-8.58-2.25-10.5-2.48-1.92-0.23-5.75-0.69-8.5-1.02-2.75-0.32-6.35-1.19-8-1.92-1.65-0.73-5.14-1.83-7.75-2.43-2.61-0.61-5.87-1.1-7.25-1.1-1.37 0-5.09-1.07-8.25-2.37-3.16-1.31-8.45-2.89-11.75-3.53-3.57-0.69-6.71-1.95-7.75-3.13-0.96-1.08-2.42-1.97-3.25-1.97-0.83 0-5.66-2.05-10.75-4.55-5.09-2.5-9.48-4.87-9.75-5.25-0.28-0.39-2.08-1.56-4-2.6-1.93-1.05-4.85-2.59-6.5-3.44-1.65-0.84-5.25-3.23-8-5.31-2.75-2.07-5.79-4.46-6.75-5.31-0.96-0.85-2.2-1.54-2.75-1.54-0.55 0-1-0.45-1-1 0-0.55-2.51-3.36-5.57-6.25-3.06-2.89-8.01-7.61-11-10.5-2.99-2.89-5.43-5.7-5.43-6.25 0-0.55-0.45-1-1-1-0.55 0-0.99-0.56-0.97-1.25 0.01-0.69-1-2.29-2.25-3.56-1.26-1.27-3.18-2.16-4.28-1.98-1.19 0.19-2.75 1.93-3.85 4.3-1.02 2.2-2.6 4.84-3.5 5.87-0.91 1.03-2.2 2.83-2.87 4-0.67 1.17-2.89 5.5-4.93 9.62-2.04 4.13-4.07 7.95-4.52 8.5-0.44 0.55-1.93 2.46-3.31 4.25-1.39 1.79-2.54 3.59-2.56 4-0.02 0.41-1.98 3.45-4.36 6.75-2.38 3.3-12.38 14.51-22.22 24.91-9.83 10.4-20.25 21.65-23.15 25-2.9 3.35-5.27 6.43-5.25 6.84 0.01 0.41-0.65 0.75-1.48 0.75-0.83 0-1.49 0.34-1.47 0.75 0.01 0.41-1.11 1.31-2.5 2-1.39 0.69-2.98 2.38-3.53 3.75-0.55 1.38-1.79 2.73-2.75 3.01-0.96 0.28-2.31 1.63-3 3-0.69 1.37-2.46 3.05-3.93 3.74-1.47 0.69-3.42 2.6-4.33 4.25-0.9 1.65-2.73 3.56-4.07 4.25-1.33 0.68-4.11 2.93-6.19 5-2.07 2.06-3.75 4.2-3.73 4.75 0.01 0.55-1.44 1.85-3.24 2.89-1.79 1.04-5.74 4.41-8.76 7.5-3.02 3.09-7.64 7.3-10.25 9.36-3.78 2.98-4.75 4.36-4.75 6.75 0 2.29 1.78 5.08 7.49 11.75 4.11 4.81 8.14 10.1 8.93 11.75 0.8 1.65 4.44 6.15 8.08 10 3.65 3.85 9.06 10.38 12.03 14.5 2.96 4.13 7.09 9.37 9.18 11.65 2.08 2.28 5.14 5.84 6.79 7.91 1.65 2.07 3.71 4.93 4.59 6.35 0.87 1.43 2.39 3.26 3.38 4.09 0.98 0.83 2.18 2.4 2.66 3.5 0.48 1.1 2.34 3.88 4.12 6.17 1.79 2.3 5.49 7.25 8.23 11 2.74 3.76 7.36 9.98 10.27 13.83 2.91 3.85 5.29 7.34 5.27 7.75-0.01 0.41 2.45 3.9 5.48 7.75 3.03 3.85 5.49 7.34 5.47 7.75-0.02 0.41 0.93 1.65 2.1 2.75 1.18 1.1 2.84 3.35 3.7 5 0.85 1.65 3.79 5.7 6.53 9 2.74 3.3 5.59 6.34 6.34 6.75 0.75 0.41 1.35 1.54 1.34 2.5-0.01 0.96 0.89 2.76 2 4 1.11 1.24 2.02 2.47 2.02 2.75 0 0.28 1.46 2.63 3.25 5.24 1.79 2.61 4.72 7.45 6.53 10.75 1.8 3.31 4.05 7.59 5 9.51 0.94 1.92 2.52 4.4 3.5 5.5 0.97 1.1 2.46 3.58 3.29 5.5 0.84 1.92 1.94 4.17 2.45 5 0.51 0.83 1.72 3.02 2.7 4.88 0.98 1.87 2.12 3.55 2.53 3.75 0.41 0.21 2.1-0.19 3.75-0.88 1.65-0.69 3-1.59 3-2 0-0.41 1.46-2.1 3.25-3.76 1.79-1.65 3.81-3 4.5-3 0.69 0.01 2.04-1.04 3-2.33 0.96-1.28 3.1-3.1 4.75-4.03 1.65-0.93 5.25-3 8-4.6 2.75-1.59 8.48-5.97 12.74-9.71 4.26-3.75 7.75-7.16 7.75-7.57 0.01-0.41 0.8-0.76 1.76-0.78 0.96-0.02 2.71-0.81 3.88-1.75 1.18-0.95 2.46-3.07 2.85-4.72 0.43-1.81 0.21-4.19-0.56-6-0.71-1.65-2.76-5.25-4.56-8-1.8-2.75-4.75-7.09-6.57-9.64-1.81-2.56-5.67-7.28-8.57-10.5-2.91-3.22-5.27-6.2-5.25-6.61 0.02-0.41-1.88-3.47-4.22-6.8-2.34-3.33-4.69-6.81-5.23-7.75-0.53-0.93-2.11-3.5-3.5-5.7-1.38-2.2-3.76-5.24-5.27-6.75-1.51-1.51-2.75-3.42-2.75-4.25 0-0.83-0.67-1.72-1.5-2-0.83-0.28-1.48-1.06-1.46-1.75 0.02-0.69-1.56-3.05-3.52-5.25-1.95-2.2-3.55-4.45-3.54-5 0-0.55-1.34-2.46-2.98-4.25-1.65-1.79-2.99-3.59-2.99-4 0.01-0.41-2.91-4.58-6.49-9.25-3.57-4.67-6.5-8.84-6.51-9.25-0.01-0.41-2.6-4.17-5.76-8.35-3.16-4.18-6.65-9.24-7.76-11.25-1.11-2.01-3.6-5.68-5.54-8.15-1.94-2.47-4.19-5.79-4.99-7.38-0.8-1.58-4.15-6.08-7.43-10-3.29-3.91-6.32-7.23-6.75-7.37-0.43-0.14-0.78-1.15-0.78-2.25 0-1.1-0.45-2-1-2-0.55 0-1.2-0.79-1.44-1.75-0.24-0.96-2.49-4.34-5-7.5-2.51-3.16-4.56-5.97-4.56-6.25 0-0.27-1.01-1.96-2.24-3.75-1.23-1.79-4.1-5.5-6.37-8.25-2.27-2.75-5.76-7.14-7.76-9.75-2.08-2.73-3.65-5.92-3.67-7.5-0.03-2.14 1.79-4.56 8.25-10.95 4.56-4.51 10.47-9.91 13.14-12 2.67-2.09 7.17-5.72 10-8.07 2.83-2.35 5.94-4.26 6.9-4.25 0.96 0.01 2.88 0.69 4.25 1.52 1.38 0.83 2.5 2.4 2.5 3.5 0 1.11 0.67 2 1.5 2 0.83 0 1.48 0.34 1.47 0.75-0.02 0.41 0.99 1.89 2.25 3.27 1.25 1.39 4.49 5.44 7.19 9 2.7 3.57 5.28 6.59 5.75 6.73 0.46 0.14 0.85 0.81 0.87 1.5 0.01 0.69 2.02 3.95 4.47 7.25 2.44 3.3 4.91 6.56 5.47 7.25 0.57 0.69 1.02 1.59 1.01 2-0.01 0.41 1.48 2.55 3.32 4.75 1.83 2.2 4.88 6.2 6.77 8.88 1.89 2.68 4.78 6.81 6.43 9.17 1.65 2.35 5.14 7.02 7.75 10.37 2.61 3.34 4.76 6.42 4.78 6.83 0.01 0.41 0.69 1.42 1.49 2.25 0.81 0.83 4.28 5.73 7.72 10.89 3.44 5.17 6.82 9.56 7.51 9.75 0.69 0.2 1.25 1.03 1.25 1.86 0 0.83 0.67 1.72 1.5 2 0.83 0.28 1.79 1.51 2.15 2.75 0.36 1.24 2.32 4.5 4.35 7.25 2.04 2.75 4.02 5.67 4.39 6.5 0.38 0.83 1.23 2.41 1.9 3.52 0.67 1.12 3.35 4.83 5.96 8.25 2.61 3.43 4.75 6.68 4.75 7.23 0 0.55 1.58 2.35 3.5 4 1.92 1.65 3.5 3.22 3.5 3.5 0 0.28 2.08 3.54 4.61 7.25 2.54 3.71 5.01 6.86 5.5 7 0.49 0.14 0.88 0.81 0.87 1.5-0.01 0.69 1.59 3.05 3.54 5.25 1.96 2.2 3.54 4.34 3.52 4.75-0.02 0.41 0.74 1.99 1.69 3.5 0.95 1.51 2.03 2.97 2.4 3.25 0.37 0.28 2.34 2.97 4.38 6 2.03 3.03 4.55 7.19 5.59 9.25 1.31 2.58 2.91 4.07 5.15 4.77 1.79 0.56 4.04 1.01 5 1 0.96-0.01 3.21-1.26 5-2.77 1.79-1.51 4.26-3.31 5.5-4 1.24-0.69 3.6-1.25 5.25-1.25 1.65 0 2.99-0.34 2.99-0.75-0.01-0.41 1.45-1.28 3.25-1.92 1.79-0.64 5.29-1.49 7.76-1.88 2.47-0.39 11.03-0.91 19-1.16 7.97-0.24 17.54-0.4 21.25-0.36 3.71 0.04 9.34 0.05 12.5 0.02 3.16-0.03 16.66-0.03 30 0 15.53 0.03 24.25-0.31 24.25-0.95 0-0.56 1.21-0.75 2.75-0.44 1.51 0.3 10.17 0.55 19.25 0.54 9.08 0 16.62-0.14 16.76-0.31 0.15-0.16-0.19-1.53-0.75-3.04-0.55-1.51-1.91-2.97-3.01-3.25-1.1-0.28-2-0.95-2-1.5 0-0.55-3.37-3.25-7.5-6-4.13-2.75-7.95-5-8.5-5-0.55 0-2.45-1.01-4.22-2.25-1.76-1.24-4-3.15-4.97-4.25-0.96-1.1-3.34-3.91-5.28-6.25-1.94-2.34-3.53-4.92-3.53-5.75 0-0.83-0.9-2.06-2-2.75-1.11-0.69-2.01-1.59-2-2 0-0.41-1.46-2.66-3.24-5-1.79-2.34-3.59-4.36-4-4.5-0.42-0.14-0.76-0.92-0.76-1.75 0-0.83-1.01-2.96-2.25-4.75-1.24-1.79-2.7-3.58-3.25-3.98-0.55-0.41-0.66-0.75-0.25-0.75 0.41-0.01-0.18-1.26-1.31-2.77-1.13-1.51-2.73-5-3.56-7.75-0.82-2.75-2.31-6.12-3.3-7.5-0.99-1.37-2.13-4.3-2.54-6.5-0.41-2.2-1.52-5.58-2.48-7.5-0.95-1.92-2.53-7.1-3.49-11.5-0.97-4.4-2.22-9.58-2.79-11.5-0.56-1.92-0.75-6.31-0.4-9.75 0.34-3.44 1.07-6.47 1.62-6.75 0.55-0.27 1.23-2.64 1.5-5.25 0.33-3.11 1.32-5.61 2.85-7.25 1.3-1.37 2.87-3.51 3.5-4.75 0.63-1.24 2.95-3.15 5.15-4.25 2.2-1.1 4.56-2.85 5.25-3.88 0.69-1.04 3.99-4.75 7.33-8.25 3.35-3.5 7.4-7.12 9-8.03 2.76-1.58 3.07-1.56 5.67 0.25 1.51 1.05 3.6 3.6 4.63 5.66 1.04 2.06 2.2 6.23 2.6 9.25 0.39 3.03 1.62 7.08 2.73 9 1.11 1.92 2.44 6.42 2.97 10 0.52 3.58 1.78 7.63 2.8 9 1.02 1.38 2.34 4.64 2.94 7.25 0.59 2.61 2.21 6.44 3.58 8.5 1.38 2.06 2.5 4.2 2.48 4.75-0.01 0.55 1.32 2.35 2.97 4 1.64 1.65 2.79 3.23 2.54 3.5-0.24 0.28 0.9 2.64 2.53 5.25 1.64 2.61 3.65 4.75 4.48 4.75 0.83 0 1.95 0.9 2.5 2 0.55 1.1 3.14 4.29 5.75 7.1 2.61 2.8 5.42 5.74 6.25 6.52 0.83 0.78 3.92 3.55 6.87 6.15 2.95 2.6 6.55 5.75 8 7 1.45 1.25 3.3 2.85 4.13 3.57 0.83 0.72 3.19 2.06 5.25 2.98 2.06 0.92 3.97 2.13 4.25 2.68 0.28 0.55 1.29 0.99 2.25 0.99 0.96-0.01 4.22 1.18 7.25 2.64 3.03 1.46 7.75 3.26 10.5 4 2.75 0.74 6.58 1.37 8.5 1.39 1.92 0.02 5.08 1.04 7 2.26 3.38 2.15 4.36 2.22 29.5 2.22 23.69 0 26.98-0.22 37-2.4 6.05-1.31 11.45-2.75 12-3.19 0.55-0.44 3.92-0.63 7.5-0.43 3.58 0.21 7.96 0.18 9.75-0.05 2.03-0.27 3.25-0.99 3.25-1.93 0-1.05 1.06-1.5 3.5-1.5 1.92 0 3.68-0.34 3.89-0.75 0.22-0.41 3.71-1.05 7.75-1.42 4.05-0.36 9.61-1.64 12.36-2.83 2.75-1.19 7.25-2.31 10-2.49 2.75-0.17 6.69-1.04 8.75-1.91 2.06-0.88 6.79-2.29 10.5-3.14 3.71-0.85 9.11-2.65 12-4 2.89-1.35 5.81-2.47 6.5-2.49 0.69-0.01 1.92-0.66 2.75-1.44 0.83-0.77 4.2-2.13 7.5-3 3.3-0.88 8.92-2.98 12.5-4.66 3.58-1.69 7.17-3.47 8-3.97 0.83-0.5 3.75-1.97 6.5-3.28 2.75-1.3 5.34-3.1 5.75-4 0.41-0.89 1.65-1.62 2.75-1.62 1.1 0 2.22-0.45 2.5-1 0.28-0.55 1.17-1 2-1 0.83 0 4.88-2.25 9-5 4.13-2.75 7.95-5 8.5-5 0.55 0 1.56-0.9 2.25-2 0.69-1.11 1.7-2.02 2.25-2.03 0.55-0.02 3.36-1.59 6.25-3.5 2.89-1.91 5.59-3.46 6-3.46 0.41 0.01 3.45-2.46 6.75-5.5 3.3-3.03 6.45-5.51 7-5.5 0.55 0 3.47-1.84 6.5-4.11 3.03-2.26 10.22-8.74 16-14.39 5.78-5.66 13.2-13.18 16.5-16.71 3.3-3.54 9.6-11.35 14-17.37 4.4-6.01 8.34-11.72 8.75-12.68 0.41-0.96 1.09-1.73 1.5-1.71 0.41 0.02 1.42-1.35 2.25-3.04 0.83-1.69 1.84-3.06 2.25-3.04 0.41 0.02 1.04-0.75 1.4-1.71 0.35-0.96 1.61-3.1 2.79-4.75 1.17-1.65 2.99-5.02 4.04-7.5 1.04-2.47 2.38-5.15 2.96-5.94 0.58-0.79 2.53-4.62 4.32-8.5 1.79-3.88 4.22-8.86 5.39-11.06 1.18-2.2 2.75-6.36 3.49-9.25 0.75-2.89 2.26-7.16 3.35-9.5 1.1-2.34 2.27-6.72 2.61-9.75 0.34-3.02 1.4-7.3 2.35-9.5 0.96-2.2 2.29-8.72 2.95-14.5 0.67-5.77 1.93-12.52 2.8-15 1.32-3.73 1.59-9.67 1.61-34.5 0.01-25.05-0.25-30.58-1.55-33.5-0.86-1.92-1.85-6.2-2.21-9.5-0.35-3.3-1.14-8.02-1.75-10.5-0.61-2.47-1.49-4.95-1.96-5.5-0.46-0.55-1.28-3.47-1.81-6.5-0.53-3.02-1.25-7.08-1.59-9-0.35-1.92-1.48-5.3-2.52-7.5-1.04-2.2-1.9-5.01-1.91-6.25 0-1.24-1.37-4.84-3.04-8-1.66-3.16-3.02-6.42-3.02-7.25-0.01-0.83-1.46-4.54-3.23-8.25-1.77-3.7-3.78-6.74-4.47-6.75-0.69 0-1.25-0.67-1.25-1.5 0-0.83-0.45-1.5-1-1.5-0.55 0-1-0.45-1-1 0-0.55-1.34-3.81-2.98-7.25-1.64-3.44-2.99-6.59-3-7-0.01-0.41-1.15-1.87-2.52-3.25-1.38-1.37-2.79-3.74-3.15-5.25-0.35-1.51-2.26-4.55-4.25-6.75-1.98-2.2-5.63-6.86-8.1-10.35-2.47-3.5-6.3-8.45-8.5-11-2.2-2.56-9.85-10.65-17-17.97-7.15-7.33-14.74-14.53-16.87-16-2.12-1.48-5.3-3.58-7.05-4.68-1.75-1.1-5.75-4.14-8.88-6.75-3.14-2.61-6.37-4.75-7.2-4.75-0.83 0-2.74-1.06-4.25-2.37-1.51-1.3-4.55-3.25-6.75-4.34-2.2-1.09-5.35-2.71-7-3.59-1.65-0.89-6.6-3.23-11-5.21-4.4-1.97-8.9-4.07-10-4.68-1.1-0.6-4.25-1.77-7-2.59-2.75-0.82-7.03-2.56-9.5-3.88-2.47-1.31-5.62-2.39-7-2.39-1.37 0.01-4.3-1.06-6.5-2.35-2.43-1.44-6.55-2.65-10.5-3.08-3.58-0.39-8.53-1.58-11-2.64-2.47-1.06-6.97-2.37-10-2.91-3.03-0.54-7.64-0.98-10.25-0.98-2.61 0.01-7-0.89-9.75-1.99-3.73-1.49-9.13-2.25-21.25-3-8.94-0.54-17.6-0.92-19.25-0.83-1.65 0.09-14.03 0.5-27.5 0.92-18.21 0.56-26.04 1.19-30.5 2.46zm-605 572.45c-1.1-0.04-3.8 1.31-6 3-2.2 1.69-4.56 3.05-5.25 3.03-0.69-0.01-2.71 1.3-4.5 2.93-1.79 1.63-3.7 2.96-4.25 2.95-0.55 0-1.67 0.74-2.5 1.64-0.83 0.91-3.08 2.37-5 3.26-1.92 0.89-4.17 2.25-5 3.03-0.83 0.78-2.4 1.88-3.5 2.45-1.1 0.56-3.91 2.53-6.25 4.37-2.34 1.83-4.59 3.43-5 3.53-0.41 0.1-2.04 0.89-3.63 1.75-1.58 0.86-4.05 2.52-5.5 3.69-1.44 1.18-4.42 3.06-6.62 4.18-2.2 1.13-4.67 2.77-5.5 3.66-0.83 0.89-1.95 1.59-2.5 1.54-0.55-0.04-2.12 0.86-3.5 1.99-1.37 1.13-2.81 2.05-3.18 2.03-0.37-0.02-1.29 0.53-2.04 1.22-0.75 0.69-2.08 1.7-2.96 2.25-0.87 0.55-4.23 2.76-7.45 4.9-3.23 2.15-7.64 5.07-9.79 6.5-2.16 1.43-4.86 3.14-6 3.81-1.15 0.67-2.75 1.56-3.58 1.99-0.83 0.42-2.49 1.79-3.7 3.04-1.22 1.24-2.68 2.26-3.25 2.26-0.58 0-3.41 1.09-6.3 2.42-2.89 1.33-5.92 3.18-6.75 4.12-0.83 0.94-3.23 2.66-5.34 3.83-2.11 1.17-5.05 2.8-6.54 3.63-1.48 0.83-4.14 2.74-5.91 4.25-1.77 1.51-4 2.73-4.96 2.71-0.96-0.03-2.42 0.71-3.25 1.64-0.83 0.93-3.24 2.87-5.36 4.3-2.13 1.43-5.79 3.72-8.15 5.1-2.36 1.37-5.57 3.36-7.14 4.42-1.57 1.05-5.23 3.53-8.13 5.5-2.9 1.97-5.27 3.92-5.25 4.33 0.02 0.41-0.64 0.75-1.47 0.75-0.83 0-5.61 2.81-10.64 6.25-5.02 3.44-10.31 7.04-11.75 8.01-1.43 0.96-4.52 2.65-6.86 3.75-2.34 1.09-4.36 2.36-4.5 2.82-0.14 0.45-3.41 2.81-7.27 5.25-3.87 2.43-7.92 4.99-9 5.68-1.09 0.7-3.33 2.16-4.98 3.25-1.65 1.09-3.79 1.98-4.75 1.99-0.96 0-1.75 0.67-1.75 1.5 0 0.83-0.56 1.5-1.25 1.51-0.69 0.01-3.27 1.55-5.75 3.44-2.48 1.88-5.29 4.13-6.25 4.99-0.96 0.86-2.2 1.56-2.75 1.56-0.55 0-4.04 2.02-7.75 4.49-3.71 2.46-7.2 4.47-7.75 4.45-0.55-0.02-1.67 0.71-2.5 1.6-0.83 0.9-4.87 3.64-9 6.1-4.12 2.46-10.2 6.44-13.5 8.86-3.3 2.42-6.34 4.42-6.75 4.45-0.41 0.03-2.74 1.51-5.18 3.3-2.44 1.79-6.76 4.6-9.6 6.25-2.84 1.65-6.36 3.95-7.82 5.11-1.46 1.17-3.77 2.49-5.15 2.95-1.37 0.46-3.62 1.79-5 2.96-1.37 1.17-4.52 2.93-7 3.9-2.48 0.98-7.65 3.83-11.5 6.35-3.85 2.51-8.58 5.57-10.5 6.8-1.92 1.23-4.62 2.56-6 2.96-1.37 0.4-3.62 1.51-5 2.46-1.37 0.94-3.85 2.05-5.5 2.46-1.65 0.41-4.12 1.73-5.5 2.94-1.37 1.21-4.3 2.49-6.5 2.85-2.2 0.36-5.24 1.58-6.75 2.71-1.51 1.13-4.44 2.33-6.5 2.68-2.06 0.35-5.1 1.45-6.75 2.46-1.65 1-6.94 2.52-11.75 3.37-4.81 0.85-10.21 2.39-12 3.42-1.79 1.04-5.5 2.18-8.25 2.54-2.75 0.37-5.45 1-6 1.42-0.55 0.41-3.25 1.48-6 2.37-2.75 0.89-7.25 1.9-10 2.24-2.75 0.34-5.68 1.25-6.5 2.01-0.82 0.76-3.98 2.29-7 3.4-3.02 1.11-6.18 2.74-7 3.62-0.82 0.89-2.06 1.59-2.75 1.56-0.69-0.02-3.39 1.16-6 2.62-2.61 1.47-5.87 3.23-7.25 3.92-1.37 0.68-3.18 1.97-4 2.86-0.82 0.89-2.85 1.88-4.5 2.19-1.65 0.32-4.12 1.61-5.5 2.86-1.37 1.26-3.62 2.62-5 3.03-1.37 0.42-3.74 1.82-5.25 3.12-1.51 1.3-3.31 2.34-4 2.32-0.69-0.03-1.93 0.72-2.75 1.66-0.82 0.94-3.41 2.53-5.75 3.54-2.34 1.01-4.25 2.29-4.25 2.84 0 0.55-1.69 1.64-3.75 2.41-2.06 0.78-4.65 2.25-5.75 3.28-1.1 1.03-3.57 2.68-5.5 3.67-1.93 0.99-5.52 2.93-8 4.31-2.48 1.38-4.73 2.86-5 3.27-0.27 0.42-2.52 1.95-5 3.4-2.48 1.45-5.62 3.18-7 3.84-1.37 0.66-3.62 2.18-5 3.39-1.37 1.2-4.52 3.29-7 4.64-2.48 1.35-6.48 3.77-8.89 5.38-2.41 1.6-6.01 3.74-8 4.76-1.99 1.02-4.51 2.65-5.61 3.62-1.1 0.97-3.18 2.39-4.62 3.15-1.44 0.76-4.36 2.34-6.5 3.51-2.13 1.17-4.56 2.9-5.38 3.84-0.82 0.95-5.04 3.82-9.36 6.38-4.32 2.56-8.59 5.45-9.5 6.43-0.9 0.98-2.09 1.78-2.64 1.77-0.55-0.01-3.02 1.3-5.5 2.91-2.48 1.61-5.62 3.79-7 4.84-1.37 1.06-4.3 2.9-6.5 4.09-2.2 1.2-6.03 3.5-8.5 5.11-2.47 1.61-6.07 3.64-8 4.52-1.93 0.88-4.4 2.41-5.5 3.42-1.1 1-3.57 2.62-5.5 3.6-1.93 0.97-5.75 3.43-8.5 5.45-2.75 2.03-6.88 4.77-9.18 6.1-2.29 1.32-7.47 4.4-11.5 6.84-4.02 2.44-8.22 5.17-9.32 6.07-1.1 0.9-5.37 3.6-9.5 6-4.12 2.4-8.4 5.13-9.5 6.06-1.1 0.94-3.12 2.06-4.5 2.49-1.37 0.43-4.97 2.73-8 5.12-3.03 2.39-8.87 6.75-13 9.7-4.12 2.94-10.65 8.77-14.5 12.94-3.85 4.17-8.33 10.2-9.96 13.39-1.63 3.19-3.26 6.02-3.62 6.3-0.36 0.28-1.84 2.86-3.29 5.75-1.53 3.05-2.63 6.93-2.63 9.25 0 2.2 0.85 5.69 1.88 7.75 1.03 2.06 2.2 5.33 2.59 7.25 0.4 1.92 1.76 5.08 3.02 7 1.27 1.92 2.64 4.62 3.05 6 0.41 1.37 1.81 4.08 3.11 6 1.3 1.92 2.34 4.17 2.32 5-0.02 0.83 1.34 3.3 3.03 5.5 1.69 2.2 3.06 4.45 3.05 5-0.01 0.55 1.17 2.8 2.63 5 1.45 2.2 3.92 5.91 5.48 8.25 1.56 2.34 2.84 4.47 2.84 4.75 0 0.28 1.55 2.86 3.44 5.75 1.9 2.89 4.58 6.6 5.96 8.25 1.38 1.65 2.55 3.67 2.6 4.5 0.05 0.83 1.3 2.92 2.79 4.66 1.49 1.74 3.84 4.82 5.21 6.86 1.38 2.03 3.95 5.33 5.71 7.33 1.77 2.01 3.22 4.32 3.23 5.15 0 0.83 1.16 2.62 2.56 4 1.4 1.37 2.54 2.84 2.53 3.25-0.02 0.41 0.98 1.92 2.22 3.35 1.24 1.43 2.93 3.34 3.75 4.25 0.83 0.91 2.83 3.45 4.45 5.65 1.62 2.2 3.67 4.67 4.55 5.5 0.89 0.83 3.89 4.2 6.69 7.5 2.79 3.3 7.71 7.78 10.94 9.95l5.87 3.95c18.72-1.17 22.45-1.83 23.5-2.88 0.82-0.83 3.3-2.13 5.5-2.89 2.2-0.76 4.45-2.32 5-3.46 0.55-1.14 2.34-2.32 4-2.62 1.65-0.31 6.15-3.09 10-6.18 3.85-3.1 8.57-6.3 10.5-7.12 1.93-0.82 6.99-4.36 11.25-7.87 4.26-3.51 8.09-6.37 8.5-6.37 0.41 0.01 2.32-1.32 4.25-2.96 1.93-1.63 3.73-2.97 4-2.98 0.27 0 2.98-1.48 6.01-3.29 3.03-1.8 9.02-5.98 13.31-9.28 4.3-3.3 9.02-6.62 10.5-7.39 1.47-0.76 4.48-2.82 6.68-4.59 2.2-1.76 5.13-3.49 6.5-3.83 1.38-0.35 4.86-2.9 7.75-5.66 2.89-2.77 5.7-5.03 6.25-5.03 0.55 0 2.24-1.06 3.75-2.36 1.51-1.3 3.65-2.63 4.75-2.94 1.1-0.32 5.15-3.1 9-6.18 3.85-3.08 7.68-5.59 8.5-5.59 0.82 0 2.27-0.54 3.21-1.21 0.94-0.67 1.73-1.78 1.75-2.47 0.02-0.69 1.5-1.84 3.29-2.56 1.79-0.72 3.93-2.18 4.75-3.25 0.82-1.07 2.85-2.61 4.5-3.44 1.65-0.82 3.23-1.72 3.5-2 0.27-0.28 1.79-1.18 3.38-2 1.58-0.83 3.27-2.51 3.75-3.75 0.5-1.29 1.72-2.25 2.87-2.25 1.1 0 2.79-1.05 3.75-2.33 0.96-1.27 2.99-2.62 4.5-3 1.51-0.37 3.43-1.8 4.25-3.17 0.82-1.38 2.29-2.49 3.25-2.47 0.96 0.02 3.77-1.55 6.25-3.49 2.48-1.94 5.06-3.52 5.75-3.53 0.69-0.01 1.81-0.84 2.5-1.85 0.69-1.01 2.38-2.11 3.75-2.44 1.38-0.32 3.74-1.75 5.25-3.16 1.51-1.41 3.43-2.56 4.25-2.56 0.82 0 1.84-0.56 2.25-1.25 0.41-0.69 2.77-2.34 5.25-3.67 2.48-1.33 6.98-4.3 10-6.6 3.02-2.29 8.65-6.11 12.5-8.49 3.85-2.38 8.13-5.36 9.5-6.64 1.38-1.27 2.95-2.32 3.5-2.33 0.55-0.01 3.25-1.63 6-3.6 2.75-1.97 5.56-4.44 6.25-5.5 0.69-1.06 2.15-1.92 3.25-1.92 1.1 0 2.56-0.9 3.25-2 0.69-1.11 1.92-2.02 2.75-2.04 0.83-0.01 3.3-1.35 5.5-2.97 2.2-1.62 5.01-3.41 6.25-3.97 1.24-0.56 2.24-1.36 2.23-1.77-0.01-0.41 1.56-1.54 3.5-2.5 1.94-0.96 6.26-3.89 9.6-6.5 3.34-2.61 7.28-5.37 8.75-6.13 1.47-0.77 5.59-3.95 9.17-7.07 3.58-3.13 10.27-8.58 14.89-12.12 4.61-3.54 8.77-7.22 9.25-8.18 0.47-0.96 0.86-2.99 0.87-4.5 0-1.69-2.29-6.22-5.95-11.75-3.27-4.95-6.79-10.13-7.83-11.5-1.03-1.38-4.05-5.65-6.7-9.5-2.65-3.85-6.89-9.65-9.42-12.89-2.54-3.23-6.78-8.41-9.44-11.5-2.66-3.08-5.7-6.62-6.75-7.86-1.06-1.24-1.94-2.59-1.95-3-0.02-0.41-2.43-3.67-5.34-7.25-2.92-3.58-6.69-8.53-8.38-11-1.68-2.47-6.09-8.1-9.79-12.5-3.7-4.4-9.07-11.15-11.92-15-2.86-3.85-6.96-8.73-9.12-10.84-3.58-3.51-3.92-4.31-3.92-9.1 0-2.89 0.52-5.88 1.16-6.66 0.64-0.77 3.34-2.03 6-2.79 2.66-0.77 5.51-1.95 6.34-2.62 0.83-0.68 3.08-1.93 5-2.78 1.92-0.85 4.85-1.76 6.5-2.03 1.65-0.27 5.25-1.27 8-2.23 2.75-0.96 5.79-2.13 6.75-2.6 0.96-0.47 2.54-0.86 3.5-0.88 0.96-0.02 2.65-0.69 3.75-1.49 1.1-0.81 4.48-1.74 7.5-2.08 3.5-0.39 7.05-0.12 9.78 0.75 2.35 0.74 4.27 1.69 4.25 2.1-0.02 0.41 1.84 2.66 4.13 5 2.28 2.34 7.55 8.53 11.7 13.75 4.15 5.22 10.66 13.1 14.46 17.5 3.81 4.4 7.99 9.69 9.3 11.75 1.31 2.06 3.84 5.24 5.63 7.06 1.79 1.82 6.17 6.94 9.75 11.37 3.58 4.43 9.97 12.73 14.21 18.44 4.25 5.71 9.54 12.41 11.76 14.88 2.23 2.47 4.29 5.4 4.57 6.5 0.29 1.1 2.54 3.24 4.99 4.75 2.46 1.51 5.6 2.75 6.97 2.75 1.38 0 3.85-0.9 5.5-2 1.65-1.1 3.45-3.13 4-4.5 0.69-1.73 1.77-2.5 3.5-2.5 1.4 0 4.11-1.43 6.17-3.25 2.02-1.79 4.38-3.95 5.25-4.82 0.87-0.86 2.48-1.84 3.58-2.18 1.1-0.35 3.35-2.13 5-3.97 1.65-1.84 3.79-3.67 4.75-4.06 0.96-0.4 1.75-1.17 1.75-1.72 0-0.55 0.56-1.01 1.25-1.03 0.69-0.02 3.27-1.7 5.75-3.73 2.48-2.04 4.61-4.05 4.75-4.47 0.14-0.42 3.17-2.23 6.75-4.02 3.57-1.79 6.72-4.04 7-5 0.27-0.96 1.4-1.75 2.5-1.75 1.1 0 3.13-1.35 4.5-3 1.38-1.65 3.06-3 3.75-2.99 0.69 0 2.04-0.9 3-2 0.96-1.11 2.31-2.01 3-2.02 0.69-0.01 3.27-1.59 5.75-3.53 2.48-1.94 4.73-3.51 5-3.5 0.27 0.01 2.19-1.55 4.25-3.47 2.06-1.92 4.31-3.48 5-3.47 0.69 0.01 2.6-1.35 4.25-3.02 1.65-1.67 3.56-3.03 4.25-3.02 0.69 0.01 2.71-1.09 4.5-2.45 1.79-1.36 3.7-2.47 4.25-2.47 0.55 0 1.9-0.92 3-2.06 1.1-1.14 2.45-2.05 3-2.02 0.55 0.02 2.58-1.29 4.5-2.93 1.92-1.63 3.95-2.98 4.5-2.98 0.55-0.01 2.13-1.17 3.5-2.57 1.38-1.4 3.06-2.54 3.75-2.53 0.69 0.02 1.57-0.76 1.97-1.72 0.4-0.96 1.52-2.54 2.5-3.5 0.98-0.96 2.23-1.75 2.78-1.75 0.55 0 1.69-1.01 2.53-2.25 0.84-1.24 2.53-2.33 3.75-2.42 1.22-0.09 2.45-0.2 2.72-0.24 0.27-0.04 1.87-1.31 3.54-2.83 1.68-1.52 4.15-3.33 5.5-4.03 1.35-0.7 4.04-2.41 5.96-3.81 1.92-1.39 4.41-3.29 5.51-4.22 1.11-0.94 3.92-2.94 6.25-4.45 2.33-1.51 4.69-2.75 5.24-2.75 0.55 0 1-0.45 1-1 0-0.55 0.43-1 0.95-1 0.53 0 2.14-1.01 3.57-2.25 1.44-1.24 3.49-3.04 4.55-4 1.06-0.96 2.38-1.75 2.93-1.75 0.55 0 0.99-0.34 0.98-0.75-0.02-0.41 1.22-1.07 2.75-1.45 1.52-0.39 4.42-2.19 6.45-4 2.02-1.82 6.69-4.88 10.37-6.8 3.68-1.92 8.1-4.79 9.82-6.37 1.72-1.58 4.48-3.45 6.13-4.16 1.65-0.7 4.46-2.68 6.25-4.38 1.79-1.7 3.48-3.09 3.75-3.09 0.27 0 1.96-1.35 3.75-3 1.79-1.64 3.7-2.98 4.25-2.96 0.55 0.01 1.9-0.9 3-2.04 1.1-1.14 2.6-2.05 3.33-2.03 0.73 0.02 2.67-1.32 4.32-2.97 1.65-1.65 3.53-2.99 4.18-2.97 0.64 0.01 2.3-1.13 3.67-2.53 1.38-1.4 3.06-2.54 3.75-2.53 0.69 0.02 3.03-1.43 5.21-3.22 2.17-1.79 5.66-4.5 7.75-6.03 2.08-1.52 4.46-2.75 5.29-2.72 0.83 0.03 2.63-1.1 4-2.5 1.38-1.4 2.95-2.55 3.5-2.55 0.55-0.01 1.67-0.67 2.5-1.48 0.83-0.82 4.2-3.49 7.5-5.94 3.3-2.45 6.34-4.47 6.75-4.49 0.41-0.02 1.76-0.96 3-2.09 1.24-1.12 3.93-2.81 5.98-3.75 2.04-0.93 3.96-2.49 4.25-3.45 0.31-1.06 1.51-1.75 3.02-1.75 1.38 0 2.84-0.57 3.25-1.26 0.41-0.69 2.51-2.16 4.66-3.25 2.16-1.09 5.76-3.69 8-5.77 2.25-2.08 4.2-3.76 4.34-3.75 0.14 0.02 2.16-1.27 4.5-2.85 2.34-1.59 4.92-3.63 5.75-4.55 0.83-0.91 1.95-1.63 2.5-1.59 0.55 0.03 2.58-1.31 4.5-2.98 1.92-1.67 3.95-3.02 4.5-2.99 0.55 0.03 2.24-0.86 3.75-1.98 1.51-1.11 2.75-2.93 2.75-4.03 0-1.1-0.67-2.22-1.5-2.5-0.83-0.28-1.5-0.95-1.5-1.5 0-0.55-1.29-2.69-2.87-4.75-1.57-2.06-3.23-4.88-3.68-6.25-0.45-1.38-2.05-3.85-3.55-5.5-1.5-1.65-3.22-4.13-3.83-5.5-0.61-1.38-2.47-4.3-4.14-6.5-1.66-2.2-5.08-7.15-7.61-11-2.52-3.85-4.98-7.11-5.45-7.25-0.48-0.14-0.87-0.81-0.86-1.5 0-0.69-3.36-5.08-7.47-9.75-4.12-4.67-8.34-9.4-9.38-10.5-1.04-1.1-2.17-3.01-2.52-4.25-0.35-1.24-1.09-2.25-1.64-2.25-0.55 0-1-0.45-1-1 0-0.55-1.91-3.44-4.25-6.43-2.34-2.99-6.73-8.69-9.75-12.66-3.02-3.98-7.86-9.63-10.75-12.57-4.91-5-5.56-5.34-10.1-5.34-3.87 0-5.63 0.61-8.75 3.03-2.14 1.67-4.8 3.01-5.9 2.97zm78.5-546.76c12.66 0.28 14.94 0.59 18 2.44 1.92 1.17 4.96 2.39 6.75 2.72 1.9 0.35 3.97 1.66 5 3.16 0.96 1.41 2.54 2.76 3.5 3 0.96 0.24 4.34 3.57 7.5 7.4 3.16 3.83 6.73 8.21 7.92 9.75 1.19 1.53 2.47 4.81 2.84 7.29 0.37 2.48 1.36 6.75 2.2 9.5 1.39 4.52 1.39 5.67-0.05 12-0.87 3.85-1.83 9.25-2.12 12-0.3 2.75-1.38 6.12-2.4 7.5-1.02 1.37-2.57 3.85-3.44 5.5-0.87 1.65-3.53 5.06-5.89 7.58-2.37 2.52-5.89 5.18-7.81 5.91-1.92 0.74-4.17 1.92-5 2.62-0.83 0.71-5.55 2.6-10.5 4.21-4.95 1.61-10.35 3.18-12 3.48-1.65 0.3-5.7 0.15-9-0.33-3.3-0.48-9.6-1.83-14-3.01-4.4-1.18-8.45-2.73-9-3.45-0.55-0.73-3.02-2.2-5.5-3.28-2.59-1.13-6.63-4.3-9.5-7.46-2.75-3.02-6.8-9.01-13-21.11v-13.58c0-12.04 0.25-14.03 2.17-17.58 1.19-2.2 2.69-5.58 3.32-7.5 0.64-1.92 2.14-4.76 3.33-6.29 1.2-1.53 3.98-4.61 6.18-6.83 2.2-2.22 6.48-5.58 9.5-7.47 3.02-1.88 6.17-3.44 7-3.45 0.83-0.01 3.3-1.15 5.5-2.54 3.87-2.43 4.46-2.5 18.5-2.18zm-16.32 38.26c-2.62 2.2-4.97 4.56-5.22 5.25-0.25 0.69-0.46 5.3-0.46 10.25v9c8.41 9.09 9.38 9.6 15.64 10.7 4.86 0.85 8.18 0.91 11.36 0.2 2.97-0.67 5.78-2.26 8.27-4.7l3.76-3.7-0.07-22c-7.99-8.85-9.02-9.42-13.46-9.82-2.75-0.25-7.26-0.17-10.03 0.18-3.86 0.49-6.12 1.56-9.79 4.64zm-265.68-15.83c8.31 0.36 9.72 0.69 11.29 2.62 1.11 1.37 1.81 3.92 1.84 6.71 0.02 2.48 0 32.29-0.05 66.25-0.07 57.52 0.04 61.87 1.67 63.56 1.43 1.48 4.14 1.93 15 2.5 7.29 0.38 13.7 0.92 14.25 1.19 0.55 0.27 1 3.99 1 8.25-0.01 6.08-0.52 8.83-2.38 12.75-1.31 2.75-2.88 6.24-3.5 7.75-1.11 2.73-1.21 2.75-11.51 3-8.81 0.21-10.72 0.56-12.53 2.25-1.94 1.82-2.11 2.89-1.86 11.75 0.16 5.36 0.62 9.75 1.03 9.75 0.41 0 0.74 1.91 0.74 4.25-0.01 2.34-0.8 6.59-1.75 9.45-1.11 3.31-2.46 5.44-3.74 5.87-1.1 0.37-7.93 1.18-15.17 1.8-7.24 0.62-13.77 0.84-14.5 0.49-0.73-0.36-2.57-1.14-6.83-2.86l-0.61-19.75c-0.39-12.45-1.04-20.23-1.75-21.06-0.91-1.04-5.9-1.16-24.64-0.62-12.92 0.37-28.9 0.58-35.5 0.47-6.6-0.11-12.45-0.62-13-1.14-0.55-0.51-4.15-0.91-8-0.87-4.55 0.04-7.39-0.39-8.12-1.24-0.61-0.71-2.75-2.08-4.75-3.04-2-0.96-4.85-3.44-6.35-5.5-2.2-3.04-2.9-5.45-4.6-21.75l3.71-5.5c2.04-3.02 4.83-7.08 6.21-9 1.38-1.92 4.42-5.52 6.77-8 2.34-2.48 5.58-6.29 7.19-8.48 1.62-2.2 3.39-4.73 3.94-5.63 0.55-0.91 2.86-4.07 5.13-7.02 2.27-2.95 5.35-6.5 6.84-7.87 1.5-1.38 3.56-4.08 4.57-6 1.02-1.92 5.36-7.65 9.65-12.72 4.3-5.07 9.16-11.05 10.81-13.3 1.65-2.24 5.04-6.64 7.54-9.78 2.5-3.13 5.6-7.28 6.9-9.2 1.31-1.92 2.87-3.95 3.48-4.5 0.62-0.55 1.56-1.99 2.1-3.21 0.54-1.21 5.25-7.05 10.48-12.96 5.23-5.92 11.38-12.67 13.67-15 3.79-3.86 4.7-4.28 10-4.66 3.21-0.22 10.1-0.22 15.33 0zm-43.91 82.85c0.01 0.69-3.95 5.95-8.79 11.7-4.84 5.75-10.06 12.22-11.6 14.37-1.55 2.15-4.63 6.39-6.86 9.41-2.22 3.02-6.25 7.86-8.94 10.75-2.7 2.89-4.92 6.04-4.94 7-0.03 0.96 0.53 2.3 1.25 2.98 0.98 0.93 7.42 1.11 26.79 0.72 20.93-0.41 25.77-0.77 27-2.01 1.27-1.28 1.5-6.37 1.5-33.22v-31.72c-4.8-0.56-6.57 0.45-10.42 4.07-2.75 2.59-5 5.27-4.99 5.95zm224.91-82.8c5.24 0.22 9.08 0.88 10 1.71 0.83 0.74 2.05 3.31 2.71 5.71 0.67 2.4 1.34 9.06 1.79 25.23l-8.67 6.13-40.92 0.17c-32.46 0.14-41.21 0.45-42.34 1.5-1.02 0.96-1.62 5.25-2.13 15.33-0.59 11.46-1.06 14.45-2.61 16.5-1.05 1.37-1.88 3.96-1.86 5.75 0.01 1.79 0.7 3.92 1.53 4.75 0.83 0.83 2.4 1.5 3.5 1.5 1.1 0 4.36-1.22 7.25-2.72 5.16-2.67 5.56-2.72 24.25-2.75 18.74-0.03 19.08 0.01 24.5 2.71 3.02 1.51 6.06 2.74 6.75 2.75 0.69 0.01 2.71 1.02 4.5 2.26 1.79 1.24 3.48 2.3 3.75 2.36 0.27 0.06 1.85 0.41 3.5 0.77 1.77 0.39 5.32 3.02 8.63 6.39 3.1 3.15 7.26 8.09 9.25 10.98 1.99 2.89 3.62 5.81 3.62 6.5 0 0.69 1.23 3.5 5.5 11.25v46l-2.73 4.5c-1.5 2.48-2.72 5.4-2.72 6.5 0.01 1.1-0.89 2.9-2 4-1.11 1.1-1.8 2.34-1.53 2.75 0.26 0.41-2.21 3.56-5.49 7-3.29 3.44-5.99 6.81-6 7.5-0.02 0.69-0.7 1.25-1.53 1.25-0.83 0-1.72 0.56-1.98 1.25-0.27 0.69-1.73 1.54-3.25 1.9-1.53 0.36-4.23 2.05-6.02 3.75-1.79 1.71-3.92 3.1-4.75 3.1-0.83 0-3.86 1.17-6.75 2.59-2.89 1.43-7.66 2.89-10.61 3.25-2.95 0.36-5.53 1-5.75 1.41-0.21 0.41-1.97 0.75-3.89 0.75-1.92 0-3.73 0.45-4 1-0.31 0.63-1.1 0.54-2.12-0.25-1.12-0.87-3.02-1.02-6.25-0.48-2.55 0.43-6.77 0.99-9.38 1.25-3.71 0.38-4.91 0.13-5.5-1.13-0.55-1.17-1.69-1.48-4.25-1.14-1.92 0.26-8.23-0.36-14-1.38-5.77-1.01-11.17-2.51-12-3.33-0.83-0.82-2.62-1.51-4-1.54-1.37-0.03-4.52-1.51-6.98-3.28-2.47-1.77-7.32-6.14-10.79-9.72-3.6-3.72-6.28-7.36-6.25-8.5 0.02-1.1 1.45-4.25 3.18-7 1.72-2.75 5.77-7.36 8.99-10.25 3.76-3.37 6.74-5.25 8.35-5.25 1.38 0 3.51 0.54 4.75 1.19 1.24 0.66 3.83 1.27 5.75 1.37 1.92 0.09 5.3 1.36 7.5 2.81 2.2 1.46 5.58 3.9 7.5 5.43 2.97 2.36 4.78 2.88 12 3.45 4.67 0.37 13 0.31 18.5-0.12 8.33-0.66 10.67-1.23 14-3.42 2.2-1.45 5.51-3.89 7.36-5.43 1.85-1.53 3.78-3.68 4.29-4.78 0.52-1.1 1.6-3.13 2.41-4.5 1.14-1.94 1.38-5.18 1.07-14.5-0.22-6.6-0.58-13.35-0.81-15-0.23-1.65-1.48-4.8-2.78-7-1.31-2.2-4.32-5.91-6.7-8.25-2.77-2.71-5.25-4.25-6.84-4.25-1.37 0-3.96-0.79-5.75-1.75-1.79-0.96-3.48-2.03-3.75-2.37-0.27-0.34-4.55-0.71-9.5-0.81-6.25-0.14-10.37 0.31-13.5 1.44-2.48 0.91-7.65 2.53-11.5 3.6-3.85 1.08-7.31 2.51-7.69 3.18-0.53 0.93-1.21 0.9-3-0.15-1.27-0.74-3.43-1.11-4.81-0.81-1.37 0.31-4.38 1.14-6.68 1.86-3.71 1.16-4.38 1.12-6-0.41-1-0.95-2.49-1.73-3.32-1.74-0.83 0-3.08-1.61-8.5-7.15l0.08-10.2c0.06-7.14 0.74-12.58 2.26-18.19 1.97-7.23 2.25-11.46 2.89-44 0.64-32.37 0.89-36.23 4.27-40.5l52.75-0.32c29.01-0.18 56.58-0.16 61.25 0.04zm699.5 16.84c11.85 0.29 16.37 0.81 21.5 2.49 3.58 1.17 10.1 2.33 14.5 2.58 4.4 0.25 9.58 0.85 11.5 1.34 1.92 0.49 4.17 1.6 5 2.47 0.83 0.86 3.75 1.83 6.5 2.15 2.75 0.32 6.58 1.6 8.5 2.83 1.92 1.24 4.96 2.55 6.75 2.91 1.79 0.37 4.94 1.8 7 3.17 2.06 1.38 4.42 2.49 5.25 2.47 0.83-0.02 2.63 0.83 4 1.9 1.38 1.07 4.64 2.88 7.25 4.04 2.61 1.15 4.97 2.54 5.25 3.09 0.28 0.55 2.3 1.45 4.5 2 2.2 0.55 4.56 1.59 5.25 2.32 0.69 0.73 3.97 3.31 7.29 5.75 3.32 2.44 10.22 8.26 15.33 12.93 5.11 4.67 12.69 13 16.85 18.5 4.15 5.5 9.26 12.02 11.34 14.5 2.08 2.48 4.49 6.19 5.36 8.25 0.87 2.06 2.12 4.09 2.78 4.5 0.66 0.41 2.08 2.77 3.15 5.25 1.06 2.48 2.79 5.62 3.83 7 1.04 1.37 2.21 4.02 2.61 5.87 0.39 1.85 1.25 3.65 1.91 4 0.66 0.35 1.79 3 2.5 5.9 0.72 2.9 1.78 5.6 2.36 6 0.58 0.4 1.56 2.08 2.17 3.73 0.62 1.65 1.38 4.69 1.69 6.75 0.32 2.06 0.92 3.75 1.33 3.75 0.41 0 1.61 4.39 2.65 9.75 1.05 5.36 1.83 12.34 1.75 15.5-0.08 3.16 0.75 9.24 1.86 13.5 1.3 5.03 1.98 10.74 1.92 16.25-0.04 4.67-0.52 10.98-1.06 14-0.54 3.02-1.39 8.87-1.89 13-0.5 4.12-1.28 10.65-1.74 14.5-0.46 3.85-1.44 8.12-2.18 9.5-0.74 1.37-1.97 6.1-2.74 10.5-0.76 4.4-2.27 9.46-3.35 11.25-1.08 1.79-1.75 3.92-1.47 4.75 0.28 0.83 0.05 1.73-0.5 2-0.55 0.27-1 1.17-1 2 0 0.83-0.9 3.52-2 6-1.1 2.48-2.45 4.73-3 5-0.55 0.27-1.01 1.51-1.02 2.75-0.01 1.24-1.13 3.26-2.5 4.5-1.36 1.24-2.47 2.81-2.45 3.5 0.02 0.69-0.89 2.15-2.03 3.25-1.14 1.1-2.05 2.67-2.03 3.5 0.03 0.83-1.42 3.29-3.21 5.47-1.79 2.19-3.36 4.66-3.49 5.5-0.12 0.84-1.29 2.43-2.6 3.53-1.31 1.1-2.65 2.9-2.98 4-0.33 1.1-5.56 6.95-11.63 13-6.07 6.05-11.48 11.9-12.04 13-0.55 1.1-2.25 2.67-3.76 3.5-1.52 0.82-3.1 2.06-3.51 2.75-0.41 0.69-1.31 1.24-2 1.22-0.69-0.01-2.37 1.13-3.75 2.53-1.37 1.4-2.95 2.52-3.5 2.48-0.55-0.04-1.67 0.65-2.5 1.52-0.83 0.87-2.26 1.57-3.18 1.54-0.92-0.02-2.35 0.63-3.18 1.46-0.82 0.83-1.87 1.49-2.32 1.48-0.45 0-2.62 1.29-4.82 2.87-2.2 1.59-5.58 3.37-7.5 3.96-1.92 0.6-4.17 1.83-5 2.74-0.83 0.92-4.65 3.19-8.5 5.07-3.85 1.87-7.79 3.4-8.75 3.39-0.96 0-3.89 1.08-6.5 2.41-2.61 1.33-6.33 2.7-8.25 3.06-1.92 0.36-5.08 0.8-7 0.98-1.92 0.18-5.53 1.08-8 2-2.47 0.92-10.8 2.29-18.5 3.03-7.7 0.75-17.83 1.38-22.5 1.41-4.67 0.03-9.17 0.05-10 0.04-0.83 0-4.42-0.21-8-0.45-3.58-0.24-11-0.85-16.5-1.34-5.5-0.5-11.8-1.43-14-2.07-2.2-0.65-7.6-1.96-12-2.93-4.4-0.97-9.58-2.53-11.5-3.48-1.92-0.94-4.17-1.7-5-1.69-0.83 0.02-3.64-0.76-6.26-1.73-2.63-0.96-4.76-2.09-4.75-2.5 0-0.41-1.11-0.75-2.49-0.75-1.37 0-2.5-0.45-2.5-1 0-0.55-1.58-1.34-3.52-1.75-1.93-0.41-3.73-1.31-4-2-0.26-0.69-1.04-1.24-1.73-1.22-0.69 0.02-3.28-1.55-5.75-3.49-2.47-1.94-4.95-3.54-5.5-3.56-0.55-0.02-3.47-1.7-6.5-3.74-3.03-2.04-6.23-4.39-7.12-5.22-0.89-0.84-3.54-3.1-5.87-5.02-2.34-1.92-5.45-4.63-6.92-6-1.47-1.38-6.32-5.88-10.79-10-4.47-4.13-8.61-8.74-9.21-10.25-0.6-1.51-1.76-2.75-2.59-2.75-0.83 0-1.5-0.45-1.5-1 0-0.55-2.02-2.91-4.48-5.25-2.47-2.34-4.47-4.7-4.46-5.25 0.02-0.55-0.72-1.67-1.63-2.5-0.92-0.83-2.96-3.41-4.55-5.75-1.58-2.34-2.86-4.81-2.84-5.5 0.03-0.69-0.72-1.92-1.66-2.75-0.94-0.83-2.59-3.52-3.68-6-1.08-2.48-2.92-5.85-4.08-7.5-1.17-1.65-2.15-3.23-2.2-3.5-0.05-0.27-0.38-1.74-0.75-3.25-0.37-1.51-1.01-2.74-1.42-2.74-0.41 0.01-1.29-2.13-1.95-4.75-0.65-2.62-1.5-6.34-1.89-8.26-0.38-1.92-1.52-5.08-2.53-7-1.02-1.92-2.26-6.65-2.75-10.5-0.5-3.85-1.9-9.92-3.11-13.5-1.75-5.15-2.31-9.61-2.71-21.5-0.27-8.25-0.07-21.52 0.44-29.5 0.65-9.96 1.46-15.52 2.59-17.75 0.91-1.79 2.07-7.41 2.57-12.5 0.63-6.35 1.73-10.97 3.49-14.75 1.42-3.02 2.58-6.51 2.59-7.75 0.01-1.24 0.66-3.49 1.46-5 0.8-1.51 3.27-6.58 5.49-11.25 2.21-4.67 4.05-8.95 4.07-9.5 0.03-0.55 1.16-2.46 2.52-4.25 1.36-1.79 2.46-3.81 2.46-4.5-0.01-0.69 1.43-3.5 3.21-6.25 1.77-2.75 3.69-5.72 4.26-6.61 0.57-0.88 2.36-3.58 3.97-6 1.61-2.41 10.61-12.06 20-21.44 9.39-9.37 19.75-19.05 23.02-21.5 3.28-2.45 8-5.68 10.5-7.19 2.5-1.51 6.46-3.65 8.8-4.75 2.34-1.11 4.47-2.46 4.75-3.01 0.28-0.55 2.41-1.49 4.75-2.09 2.34-0.6 4.92-1.72 5.75-2.49 0.83-0.77 3.75-2.1 6.5-2.97 2.75-0.87 6.24-2.45 7.75-3.51 1.51-1.07 4.89-2.24 7.5-2.61 2.61-0.36 6.78-1.72 9.25-3.02 3.35-1.76 6.09-2.35 10.75-2.33 4.12 0.01 8.04-0.71 11.5-2.12 3.2-1.3 8.96-2.43 14.75-2.9 5.22-0.43 16.25-0.61 24.5-0.4zm-35.5 56.31c-8.06 0.06-10.18 0.44-14 2.49-2.47 1.33-6.75 2.73-9.5 3.1-2.75 0.38-6.58 1.73-8.5 3.01-1.92 1.28-4.62 2.68-6 3.1-1.37 0.42-4.08 1.83-6 3.13-1.92 1.3-3.95 2.36-4.5 2.36-0.55 0-2.45 1.11-4.23 2.47-1.78 1.36-3.78 2.47-4.46 2.47-0.68 0-2.94 1.58-5.02 3.5-2.08 1.92-4.39 3.5-5.13 3.5-0.74 0-5.8 4.39-11.25 9.76-6.48 6.39-11.73 12.7-15.17 18.25-2.89 4.67-6.08 10.07-7.09 11.99-1.02 1.92-2.58 4.85-3.49 6.5-0.91 1.65-1.64 3.45-1.64 4 0.01 0.55-1.13 2.58-2.52 4.5-1.39 1.92-2.53 4.62-2.53 6 0 1.37-0.93 4.52-2.07 7-1.15 2.48-2.46 5.4-2.92 6.5-0.46 1.1-1.08 4.25-1.37 7-0.29 2.75-0.83 7.25-1.2 10-0.37 2.75-1.18 5.63-1.79 6.41-0.74 0.92-1.21 9.46-1.38 25-0.25 23.48-0.24 23.61 2.25 28.34 1.6 3.03 2.51 6.38 2.51 9.25 0 2.48 0.45 4.73 1 5 0.55 0.27 1 1.29 0.99 2.25 0 0.96 0.9 3.55 2.01 5.75 1.11 2.2 2.01 4.9 2 6 0 1.1 1.06 3.58 2.36 5.5 1.3 1.92 2.66 4.96 3.01 6.75 0.34 1.79 1.19 3.59 1.88 4 0.69 0.41 2.23 2.55 3.43 4.75 1.21 2.2 3.46 5.56 5 7.47 1.55 1.92 9.68 10.35 18.07 18.75 8.39 8.41 15.92 15.28 16.75 15.28 0.83 0 2.96 1.01 4.75 2.25 1.79 1.24 3.59 2.81 4 3.5 0.41 0.69 3.69 2.71 7.28 4.5 3.6 1.79 6.75 3.81 7 4.5 0.26 0.69 1.26 1.24 2.22 1.24 0.96-0.01 4 1.04 6.75 2.33 2.75 1.3 7.14 2.88 9.75 3.52 2.61 0.64 5.65 1.16 6.75 1.16 1.1 0 2.9 0.9 4 2 1.62 1.62 3.38 2.01 9.25 2.06 3.99 0.03 18.05 0.1 31.25 0.17 13.2 0.06 27.38-0.25 31.5-0.69 4.13-0.44 8.74-1.42 10.25-2.17 1.51-0.75 4.89-1.84 7.5-2.41 2.61-0.57 7.67-2.41 11.25-4.08 3.58-1.68 7.17-3.48 8-3.99 0.83-0.52 2.29-1.16 3.25-1.42 0.96-0.26 1.75-0.92 1.75-1.47 0-0.55 1.46-1.11 3.25-1.25 2.27-0.17 3.55-0.93 4.25-2.5 0.55-1.24 1.79-2.26 2.75-2.25 0.96 0 3.1-1.13 4.75-2.5 1.65-1.38 3.34-2.49 3.75-2.48 0.41 0.01 2.1-1.35 3.75-3.02 1.65-1.67 3.45-3.03 4-3.02 0.55 0.01 2.69-1.78 4.75-3.98 2.06-2.2 3.75-4.45 3.75-5 0-0.55 0.56-1 1.25-1.01 0.69-0.01 2.28-1.24 3.53-2.75 1.25-1.51 2.27-3.08 2.25-3.49-0.02-0.41 1.15-1.31 2.59-2 1.44-0.69 3.69-3.16 5-5.5 1.31-2.34 2.38-4.7 2.38-5.25 0-0.55 1.4-2.24 3.12-3.75 1.72-1.51 3.19-3.65 3.28-4.75 0.09-1.1 1.11-3.35 2.27-5 1.16-1.65 2.67-5.02 3.35-7.5 0.68-2.48 2.08-5.96 3.11-7.75 1.03-1.79 1.87-4.6 1.87-6.25 0-1.65 0.45-3.23 1-3.5 0.55-0.27 1.22-2.3 1.5-4.5 0.28-2.2 0.95-4 1.5-4 0.55 0 1.23-2.81 1.52-6.25 0.29-3.44 0.57-18.85 0.64-34.25 0.07-15.4-0.28-30.19-0.77-32.87-0.49-2.68-1.23-5.04-1.64-5.25-0.41-0.21-1.5-3.87-2.41-8.13-0.91-4.26-2.71-9.66-4-12-1.29-2.34-2.35-5.04-2.37-6-0.02-0.96-1.14-3.55-2.5-5.75-1.35-2.2-2.45-4.9-2.43-6 0.01-1.1-0.95-2.9-2.15-4-1.19-1.1-2.84-3.58-3.66-5.5-0.82-1.92-3.17-5.75-5.22-8.5-2.04-2.75-7.72-8.73-12.61-13.29-4.9-4.57-9.24-8.28-9.65-8.25-0.41 0.02-0.75-0.41-0.75-0.96 0-0.55-1.43-2.24-3.18-3.75-1.75-1.51-5.47-4.22-8.25-6.01-2.79-1.79-5.52-3.27-6.07-3.29-0.55-0.01-1.45-0.66-2-1.44-0.55-0.77-5.5-3.63-11-6.34-5.5-2.71-11.8-5.25-14-5.64-2.2-0.39-4.45-1.12-5-1.62-0.55-0.5-2.8-1.4-5-2.01-2.2-0.61-9.62-1.52-16.5-2.01-6.87-0.5-17.22-1.08-23-1.29-5.78-0.22-14.33-0.03-19 0.4-4.67 0.44-12.78 0.83-18 0.87zm-290.25 40.14c1.24-0.01 4.39 1.19 7 2.65 2.61 1.46 5.65 3.65 6.75 4.86 1.1 1.21 3.35 2.89 5 3.73 1.65 0.85 7.77 3.95 13.61 6.9 5.84 2.94 11.46 6.08 12.5 6.98 1.04 0.9 3.02 1.97 4.39 2.39 1.38 0.41 4.3 1.98 6.5 3.49 2.2 1.51 6.4 4.26 9.34 6.11 4.3 2.72 5.91 4.55 8.26 9.38 2.23 4.6 2.9 7.4 2.9 12-0.01 3.3-0.51 8.7-1.11 12-0.61 3.3-1.51 6.79-2 7.75-0.49 0.96-0.89 3.21-0.9 5 0 1.79-0.43 4.83-0.95 6.75-0.52 1.92-1.87 4.4-3.01 5.5-1.13 1.1-2.33 3.35-2.66 5-0.33 1.65-1.19 3.67-1.93 4.5-0.73 0.83-2.06 3.52-2.94 6-0.89 2.47-2.47 5.85-3.53 7.5-1.05 1.65-1.95 3.67-1.99 4.5-0.05 0.83-1.53 2.59-3.29 3.92-2.67 2.03-4 2.34-8.19 1.94-2.75-0.26-6.58-1.26-8.5-2.22-1.92-0.96-7.1-2.18-11.5-2.72-4.4-0.54-9.7-1.53-11.77-2.2-2.07-0.67-3.98-1.78-4.25-2.47-0.26-0.69-1.49-1.23-2.73-1.22-1.24 0.02-3.37-0.81-4.75-1.86-1.37-1.04-3.62-2.24-5-2.66-1.37-0.43-3.74-1.61-5.25-2.64-1.51-1.03-2.97-1.87-3.25-1.87-0.28 0-2.64-1.82-5.25-4.03-2.61-2.22-5.2-4.04-5.75-4.03-0.55 0-2.46-1.34-4.25-2.97-1.79-1.63-3.25-3.42-3.25-3.97 0-0.55-2.25-2.58-5-4.5-2.75-1.92-5.01-4.06-5.02-4.75 0-0.69-1.12-2.83-2.47-4.75-1.35-1.92-2.75-5.52-3.1-8-0.54-3.85-0.2-5.22 2.33-9.5 1.63-2.75 3.3-7.02 3.72-9.5 0.41-2.48 2.55-8.1 4.74-12.5 2.19-4.4 4.39-8.45 4.91-9 0.51-0.55 1.02-1.93 1.13-3.06 0.11-1.14 1.55-3.36 3.2-4.94 1.65-1.58 2.9-3.46 2.78-4.19-0.12-0.72 2.37-4.04 5.53-7.38 3.16-3.34 6.88-6.65 8.25-7.36 1.38-0.72 3.85-2.03 5.5-2.93 1.65-0.89 4.01-1.63 5.25-1.63zm333.75 6.94c19.8 0.3 39.6 0.55 44 0.55 4.4 0 8.22 0.35 8.5 0.78 0.28 0.43 2.97 1.02 6 1.32 3.03 0.3 7.19 0.96 9.25 1.47 2.06 0.51 4.42 1.6 5.25 2.43 0.83 0.83 1.95 1.5 2.5 1.5 0.55 0 2.34 1.46 3.98 3.25 1.64 1.79 4.11 4.71 5.5 6.5 1.39 1.79 2.52 3.7 2.52 4.25 0 0.55 0.34 1 0.75 1 0.41 0 1.35 1.69 2.08 3.75 0.72 2.06 1.72 6.67 2.21 10.25 0.48 3.58 1.1 20.67 1.36 38 0.27 17.33 0.56 31.95 0.65 32.5 0.09 0.55-0.11 15.51-1.05 65.5l-4.2 8.25c-2.3 4.54-4.78 8.59-5.5 9-0.71 0.41-1.29 1.31-1.28 2 0.01 0.69-3.26 3.94-7.25 7.23-4 3.29-8.85 6.53-10.77 7.2-1.92 0.68-4.4 1.25-5.5 1.27-1.1 0.02-2.9 0.66-4 1.42-1.1 0.76-4.25 1.69-7 2.07-2.75 0.37-9.5 0.89-15 1.14-5.5 0.24-14.5 0.6-20 0.79-5.5 0.19-16.08 0.47-23.5 0.62-7.42 0.16-14.06 0-14.75-0.35-0.69-0.35-9.91-0.88-20.5-1.17-10.59-0.29-21.5-1.03-24.25-1.64-2.75-0.61-6.35-1.66-8-2.35-1.65-0.68-4.8-1.57-7-1.96-2.2-0.4-5.24-1.81-6.75-3.12-1.51-1.32-3.09-2.38-3.5-2.36-0.41 0.02-3.56-3.35-7-7.5-4.91-5.92-6.55-8.78-7.64-13.29-0.77-3.16-2.21-10.03-3.2-15.25-1.61-8.46-1.81-15.86-1.91-125.5l2.25-4.75c1.24-2.61 2.25-5.65 2.25-6.75 0-1.1 1.49-4.14 3.3-6.75 1.82-2.61 5.08-6.53 7.25-8.72 2.17-2.18 5.41-4.99 7.2-6.25 1.79-1.25 5.39-2.76 8-3.35 2.61-0.59 5.2-1.47 5.75-1.95 0.55-0.49 10.45-1.04 22-1.23 11.55-0.19 37.2-0.1 57 0.2zm-65.9 46.05c-0.93 0.83-1.67 2.06-1.64 2.75 0.02 0.69-0.48 1.36-1.12 1.5-0.83 0.18-1.28 6.25-1.56 20.75-0.21 11.27-0.09 21.17 0.26 22 0.35 0.83 0.71 17.31 0.8 36.64 0.15 33.65 0.25 35.24 2.16 37.29 1.1 1.17 2.56 2.12 3.25 2.1 0.69-0.02 1.36 0.49 1.5 1.12 0.16 0.73 3.63 1.24 9.75 1.42 5.22 0.15 12.09-0.14 15.25-0.65 3.29-0.53 6.29-0.55 7-0.05 0.69 0.48 7.78 0.59 15.75 0.25 7.97-0.34 20.13-0.22 27 0.27 10.44 0.75 13.73 0.62 20-0.79 4.13-0.93 8.85-2.73 10.5-4 2.85-2.19 3.07-2.89 4.41-14.2 0.77-6.55 1.04-12.57 0.59-13.4-0.45-0.83-0.98-15.67-1.17-33-0.19-17.33-0.52-34.65-0.74-38.5-0.22-3.85-1.1-10.38-1.96-14.5-0.86-4.13-2.14-7.79-2.85-8.15-0.7-0.35-10.95-0.91-22.78-1.24-11.83-0.33-29.83-0.52-40-0.42-10.17 0.1-23.95 0.44-30.6 0.75-8.7 0.4-12.58 0.98-13.8 2.06z"/>
	</g>
</svg>